<?xml version="1.0" standalone="no"?>
<!DOCTYPE svg PUBLIC "-//W3C//DTD SVG 1.1//EN" "http://www.w3.org/Graphics/SVG/1.1/DTD/svg11.dtd" >
<svg xmlns="http://www.w3.org/2000/svg">
<metadata>
<json>
<![CDATA[
{
	"fontFamily": "BarcodeJackets",
	"description": "Font generated by IcoMoon.",
	"majorVersion": 1,
	"minorVersion": 0,
	"version": "Version 1.0",
	"fontId": "BarcodeJackets",
	"psName": "BarcodeJackets",
	"subFamily": "Regular",
	"fullName": "BarcodeJackets"
}
]]>
</json>
</metadata>
<defs>
<font id="BarcodeJackets" horiz-adv-x="1024">
<font-face units-per-em="1024" ascent="960" descent="-64" />
<missing-glyph horiz-adv-x="1024" />
<glyph unicode="&#x20;" horiz-adv-x="512" d="" />
<glyph unicode="&#xe900;" glyph-name="copy" data-tags="copy" d="M469.333 618.667c-35.328 0-67.413-14.379-90.496-37.504s-37.504-55.168-37.504-90.496v-384c0-35.328 14.379-67.413 37.504-90.496s55.168-37.504 90.496-37.504h384c35.328 0 67.413 14.379 90.496 37.504s37.504 55.168 37.504 90.496v384c0 35.328-14.379 67.413-37.504 90.496s-55.168 37.504-90.496 37.504zM469.333 533.333h384c11.776 0 22.4-4.736 30.165-12.501s12.501-18.389 12.501-30.165v-384c0-11.776-4.736-22.4-12.501-30.165s-18.389-12.501-30.165-12.501h-384c-11.776 0-22.4 4.736-30.165 12.501s-12.501 18.389-12.501 30.165v384c0 11.776 4.736 22.4 12.501 30.165s18.389 12.501 30.165 12.501zM213.333 362.667h-42.667c-11.776 0-22.4 4.736-30.165 12.501s-12.501 18.389-12.501 30.165v384c0 11.776 4.736 22.4 12.501 30.165s18.389 12.501 30.165 12.501h384c11.776 0 22.4-4.736 30.165-12.501s12.501-18.389 12.501-30.165v-42.667c0-23.552 19.115-42.667 42.667-42.667s42.667 19.115 42.667 42.667v42.667c0 35.328-14.379 67.413-37.504 90.496s-55.168 37.504-90.496 37.504h-384c-35.328 0-67.413-14.379-90.496-37.504s-37.504-55.168-37.504-90.496v-384c0-35.328 14.379-67.413 37.504-90.496s55.168-37.504 90.496-37.504h42.667c23.552 0 42.667 19.115 42.667 42.667s-19.115 42.667-42.667 42.667z" />
<glyph unicode="&#xe901;" glyph-name="logo" data-tags="logo" horiz-adv-x="1038" d="M1029.033 414.514c-10.51 15.444-21.628 33.815-31.832 52.751l-1.698 3.447c-10.057 34.272-63.807 163.588-66.118 169.142l-0.398 0.853c-14.299 27.591-112.944 155.342-117.142 160.764l-1.326 1.741-1.909 1.1c-10.746 6.23-31.563 13.442-55.677 21.789-21.59 7.481-43.909 15.214-60.361 22.735l-3.729 1.692c-31.714 14.339-89.003 38.479-102.675 44.219-14.568 19.494-30.807 36.479-48.871 51.324l-0.504 0.402-1.494 1.184-1.803 0.627c-113.351 39.137-178.567-31.815-183.989-38.032-9.394-9.841-10.919-30.49-11.007-41.682-6.447-5.528-19.257-15.581-31.661-25.13-6.49-4.181-12.133-8.526-17.387-13.292l0.109 0.098 0.619-0.787c-21.497-16.433-68.345-31.44-85.411-36.026l-2.541-1.034c-79.538-44.289-88.301-81.955-88.818-94.372-7.070-16.283-14.37-55.783-16.95-70.546-39.124-25.218-52.774-77.908-55.381-89.631-29.129-45.549-40.1-113.753-40.56-116.656l-0.535-3.411 1.485-3.128c16.12-33.945 9.814-51.819 9.823-51.819l-0.857-1.997-0.044-2.174c-0.826-38.828 12.748-57.692 20.874-65.469 0.141-36.552 19.142-83.957 19.977-86.056l0.654-1.352c4.406-6.553 10.103-11.9 16.761-15.777l0.242-0.13c7.424-9.677 28.501-30.423 37.949-39.588l0.826-0.729c26.857-21.36 49.084-24.065 62.627-22.81l0.831-5.793 2.718-2.651c3.904-3.675 8.498-6.67 13.56-8.764l0.297-0.109-5.201-55.518c-0.632-10.839 1.591-18.488 6.809-23.375 2.258-2.159 5.145-3.677 8.359-4.254l0.099-0.015 50.551-22.889c10.986-6.826 18.801-17.873 21.206-30.819l0.044-0.285 0.34-4.083 2.899-2.899c22.73-22.735 66.282-29.301 109.025-29.301 41.229 0.552 81.083 5.010 119.634 13.019l-4.052-0.704c59.008 13.999 182.191 59.499 187.401 61.421l6.593 2.439 5.957 62.574c40.012 13.99 50.171 48.554 49.782 65.8l-0.208 1.874c-0.155 0.593-0.245 1.274-0.245 1.975 0 1.938 0.681 3.716 1.816 5.11l-0.012-0.015c7.198 9.363 31.563 13.91 42.239 14.648l1.078 0.119c12.784 2.125 46.19 16.897 52.76 19.845l2.391 1.061 1.661 2.019c19.31 23.327 31.771 24.948 31.409 24.948h3.579l2.921 2.090c10.605 7.578 52.53 25.501 67.78 31.767l1.485 0.614 1.255 0.999c20.702 16.566 24.838 34.025 25.337 43.613l32.571 26.994 1.043 1.993c34.365 65.862 21.148 87.695 13.018 94.31zM565.463 885.137c-10.021-23.482-26.883-42.438-48.062-54.808l-0.545-0.294c-17.078-10.877-37.137-21.776-57.94-31.332l-3.212-1.322c0.502 7.494 2.641 14.391 6.060 20.472l-0.125-0.242c10.548 16.752 37.224 19.235 68.862 40.949 12.846 8.578 22.37 21.259 26.758 36.141l0.117 0.464c2.753-3.195 5.475-6.553 8.086-10.026zM360.948 864.037c-0.442 12.903 1.874 27.838 4.733 30.728l0.597 0.65c2.342 2.713 58.138 65.84 158.055 32.341 1.794-1.489 5.17-4.357 9.443-8.276-7.622 0.507-14.682 1.572-21.537 3.171l0.892-0.175c-29.778 6.827-89.958-5.585-120.977-19.854s-22.978-32.257-14.268-40.326 31.638-19.231 36.605-36.605-1.242-73.206-1.242-73.206l-11.789-8.064s3.725 41.563 4.344 55.235-1.86 14.273-8.069 19.235c-5.612 4.489-36.101 30.304-41.864 35.182 0.707 0.641 1.326 1.215 1.807 1.706l3.433 3.433zM86.308 203.937l-1.582 2.704-2.718 1.502c-4.020 2.199-7.441 4.946-10.309 8.192l-0.035 0.040c-2.651 6.752-19.575 51.62-17.883 81.367l0.102 6.571-5.333 3.535c-0.667 0.442-16.115 11.171-15.788 48.607 2.231 7.313 6.314 29.314-9.54 64.514 2.55 14.047 13.884 70.166 37.745 106.365l1.228 1.874 0.442 2.209c0.11 0.579 11.489 58.138 49.49 79.361l4.702 2.62 0.884 5.303c3.756 22.509 11.648 61.863 16.849 71.615l1.732 2.731-0.468 3.557c0 0.323-0.658 32.474 76.162 75.561 10.163 2.819 70.356 20.212 96.197 43.074 2.682 2.373 5.068 4.481 7.097 6.412 11.648 8.908 28.722 22.129 37.745 29.858-0.599-1.41-0.948-3.050-0.948-4.772 0-1.789 0.376-3.491 1.054-5.030l-0.031 0.080c3.093-7.446 47.771-36.605 47.771-36.605s-0.619-15.51-11.171-8.064-47.148 44.669-47.148 44.669-3.721-4.344 1.242-17.993 37.224-34.122 49.009-42.809 0.623-14.268 0.623-14.268c-42.217 16.787-63.308 57.113-63.308 57.113-6.094-8.884-13.279-16.463-21.482-22.784l-0.232-0.171c-14.896-11.785-137.733-62.663-150.764-75.080s-14.268-94.924-11.166-125.321 32.88-73.21 32.88-73.21 6.186-43.428 1.242-62.040c-0.309-1.171-0.601-2.563-0.884-4.154-2.556-7.112-6.153-13.25-10.676-18.578l0.071 0.085c-10.733-9.964-16.866-14.56-16.866-14.56l24.078-33.185c-0.146-14.091-0.062-24.533-0.062-24.533s28.541 34.745 43.428 36.605 13.031-17.993 13.031-17.993l-54.603-46.512-3.093-15.514 60.179 54.594c6.186-6.186 3.093-19.231-6.186-26.071s-44.051-49.627-44.051-49.627l13.128-22.24 6.535-11.113 6.946-11.763c-13.937 0.482-26.672-2.364-57.391-18.7-17.896-9.9-32.339-24.101-42.25-41.249l-0.28-0.526 3.977-3.977c9.935 12.525 22.76 22.335 37.493 28.493l0.619 0.229c20.473 7.398 44.243 12.69 68.91 14.854l1.083 0.077c0.548-1.228 1.688-3.849 3.062-7.477-12.231 1.153-37.14 0.495-67.691-16.654-13.636-7.031-24.543-17.716-31.656-30.767l-0.194-0.39 7.689-7.68c6.815 8.839 15.091 16.173 24.527 21.752l0.399 0.218c19.641 10.773 59.707 13.164 73.007 13.672 0.989-3.966 1.833-8.811 2.354-13.753l0.041-0.484c-5.174 3.866-20.592 11.966-48.576-0.194-17.202-7.149-31.964-16.724-44.67-28.489l0.097 0.089 19.885-19.885-0.884-0.924c-9.156 0.769-22.536 4.755-39.124 17.839-12.498 11.753-24.153 23.885-35.171 36.585l-0.519 0.612zM162.205 148.817c5.228 0.49 9.862 1.194 14.408 2.138l-0.834-0.145-0.884-0.398c-2.938-1.097-6.332-1.732-9.875-1.732-0.992 0-1.972 0.050-2.938 0.147l0.122-0.010zM188.784 154.12c7.128 2.165 13.304 4.868 19.079 8.187l-0.441-0.234c11.815 6.828 21.385 16.341 28.085 27.744l0.195 0.359c0.009-0.345 0.014-0.752 0.014-1.16 0-7.142-1.565-13.919-4.37-20.007l0.123 0.297c-7.816-15.417-22.849-26.183-40.53-27.889l-0.207-0.016zM190.83 140.749l5.303-10.605c-1.543 0.66-2.849 1.356-4.089 2.148l0.112-0.067zM302.554 16.201c6.986 0 12.647-6.858 12.647-15.324s-5.66-15.329-12.647-15.329-12.647 6.862-12.647 15.329 5.66 15.342 12.647 15.342zM291.732 44.039c0 8.466 5.66 15.329 12.647 15.329s12.647-6.862 12.647-15.329-5.66-15.324-12.647-15.324-12.647 6.867-12.647 15.32zM997.204 332.586l-33.273-27.564-4.781-4.335 0.884-6.213c0.088-0.561 1.768-13.72-15.775-28.377-9.872-4.079-52.142-21.776-68.275-31.983-7.379-1.414-22.978-7.251-42.893-30.587-12.102-5.826-26.85-11.62-42.047-16.4l-2.468-0.669c-6.628-0.499-43.074-4.136-57.807-23.256-1.571-2.004-2.936-4.286-3.996-6.732l-0.078-0.201c0.725 7.6 0.725 12.982 0.725 12.982s-53.931-25.187-100.673-32.359-55.133 26.367-55.133 26.367l-31.466-13.199c-17.631 14.975-45.584 49.778-41.917 118.154l31.285 12.063c-15.501 24.347-103.669 82.631-103.669 82.631l16.098 13.8c28.4-17.048 82.264-64.748 100.395-81.058 0.835 1.913 1.794 4.105 2.908 6.628 1.146 2.425 2.688 4.48 4.565 6.171l0.017 0.015c-24.745 25.925-87.191 78.164-87.191 78.164l11.489 9.195c33.013-16.504 71.955-56.702 91.296-78.075 21.816 9.191 58.253 15.908 99.67 26.455 38.157 9.556 71.707 23.96 102.203 42.829l-1.53-0.881s-20.375 33.556-38.351 58.726-21.568 118.653-21.568 161.798 37.153 95.888 58.721 122.246 16.791 46.746 16.791 46.746l-173.782 70.701c-32.359-63.52-155.806-104.283-155.806-104.283-33.556-8.396-80.298-69.512-82.693-131.834s-17.98-86.294-33.583-111.464-5.992-61.121-10.786-100.673-45.544-97.081-33.556-136.633 0-65.915-3.597-89.887 8.396-82.698 8.396-82.698 93.479-27.564 134.234-35.951 82.698 15.581 111.464 26.362 75.499 20.379 101.862 20.379 47.944-2.399 65.919 10.786c8.184 6.001 12.638 18.696 15.064 30.755 0.066-0.641 0.146-1.29 0.247-1.935-0.119-5.192-2.439-35.293-40.653-45.217l-7.538-1.931-0.199-2.046c-8.396 0-26.252-0.442-51.96-3.133-36.795-3.831-62.088-21.453-105.777-36.022s-81.244-9.96-137.194 0.769c-7.896 1.516-15.625 3.261-23.146 5.179l-0.23-17.574c13.181-2.373 48.978-8.74 63.233-10.605 17.627-2.307 42.92-3.836 84.306 4.596s84.31 31.426 114.972 39.857c13.107 3.491 28.155 5.496 43.671 5.496 3.871 0 7.713-0.125 11.522-0.371l-0.519 0.027-1.016-10.702c-37.492-5.524-71.074-14.288-103.102-26.242l3.454 1.13c-43.689-16.098-61.319-21.458-127.23-27.591-51.7-4.808-79.799 2.651-89.533 6.076l-0.247-18.687c20.216-3.694 67.090-11.374 98.212-9.615 40.626 2.298 91.977 23.76 141.030 41.391 22.082 8.402 47.777 14.673 74.462 17.674l1.462 0.134-1.167-12.267c-36.604-7.672-68.051-16.984-98.412-28.502l4.473 1.49c-42.933-16.921-92.663-28.642-144.52-32.838l-1.865-0.121c-6.559-0.733-14.163-1.152-21.865-1.152-18.496 0-36.429 2.413-53.501 6.941l1.453-0.328-0.34-25.991c-7.185 0.508-14.14 1.273-20.79 2.346v101.672c-24.003 7.56-43.953 15.481-63.21 24.624l2.964-1.266-5.744-71.841c-3.109 2.853-6.52 5.493-10.143 7.835l-0.299 0.181-12.629 5.744 0.384 11.931-42.513 13.588 1.18 12.58 41.806-11.511 0.34 10.552-41.307 9.92 1.511 16.093 40.251-11.97 0.65 20.092c-11.177 5.579-24.348 8.844-38.282 8.844-0.368 0-0.735-0.002-1.101-0.007l0.056 0.001 0.72 7.702 0.526 5.992 66.631-26.097s1.242 27.918-0.619 53.971 14.268 73.829 4.344 105.472-4.967 53.357 3.093 76.308 20.477 52.738 29.164 89.339-0.619 42.191 2.483 71.969 34.122 67.002 39.084 88.716 13.65 116.656 23.579 131.525 77.444 52.694 77.444 52.694-0.884 5.532-1.246 13.256c15.103 7.459 51.903 26.208 70.838 40.777 21.758 16.734 40.494 35.978 46.76 55.924l1.631-0.68 7.759-3.265c-7.472-20.847-19.806-38.403-35.68-51.925l-0.17-0.141c-35.956-31.161-89.891-53.931-89.891-53.931l-7.189-16.791s77.903 26.371 106.669 59.928c26.27 30.649 33.543 39.327 40.087 57.002 23.353-9.885 60.343-25.655 83.488-36.124l3.654-1.653c17.414-7.954 40.251-15.877 62.336-23.526 20.348-6.484 36.883-12.926 52.946-20.227l-3.013 1.226c29.058-37.67 101.716-133.284 113.342-155.148 3.632-8.736 56.936-137.265 65.398-167.366l0.884-2.245c0.959-1.794 23.596-44.024 36.998-61.549l1.374-1.803 0.844-0.482c1.268-2.223 7.291-17.264-17.163-64.801zM469.549 183.531c6.938-19.674 18.745-36.175 34-48.606l0.197-0.155-6.425-2.691s-32.359 9.589-44.342 61.125 0 57.528 0 57.528l8.104 3.128c-0.489-4.769-0.769-10.305-0.769-15.906 0-19.5 3.383-38.21 9.594-55.576l-0.36 1.152zM473.384 211.891c-1.569 20.737-1.732 36.075-1.52 46.123l9.107 3.535c-1.286-16.853-1.396-45.955 9.279-70.338 8.612-18.636 20.4-34.412 34.823-47.301l0.139-0.122-10.468-4.388c-13.99 14.096-39.155 43.291-41.36 72.49zM405.932 623.474c0-8.462-5.66-15.329-12.642-15.329s-12.647 6.867-12.647 15.329 5.66 15.329 12.647 15.329 12.642-6.862 12.642-15.329zM363.012 479.382c0-8.466-5.66-15.329-12.647-15.329s-12.647 6.862-12.647 15.329 5.665 15.329 12.647 15.329 12.647-6.862 12.647-15.329zM311.277 274.735c-6.982 0-12.647 6.867-12.647 15.333s5.665 15.333 12.647 15.333 12.647-6.867 12.647-15.333-5.66-15.333-12.647-15.333zM320.861 136.012c0-8.466-5.665-15.329-12.651-15.329s-12.647 6.862-12.647 15.329 5.665 15.329 12.647 15.329 12.651-6.862 12.651-15.329z" />
<glyph unicode="&#xe902;" glyph-name="facebook" data-tags="facebook" horiz-adv-x="602" d="M548 944v-150.857h-89.714c-70.286 0-83.429-33.714-83.429-82.286v-108h167.429l-22.286-169.143h-145.143v-433.714h-174.857v433.714h-145.714v169.143h145.714v124.571c0 144.571 88.571 223.429 217.714 223.429 61.714 0 114.857-4.571 130.286-6.857z" />
<glyph unicode="&#xe903;" glyph-name="Instagram" data-tags="Instagram" d="M327.68 889.417c-146.842 0-266.24-119.398-266.24-266.24v-368.64c0-146.842 119.398-266.24 266.24-266.24h368.64c146.842 0 266.24 119.398 266.24 266.24v368.64c0 146.842-119.398 266.24-266.24 266.24h-368.64zM757.76 725.577c22.528 0 40.96-18.432 40.96-40.96s-18.432-40.96-40.96-40.96-40.96 18.432-40.96 40.96 18.432 40.96 40.96 40.96zM512 664.137c124.314 0 225.28-100.966 225.28-225.28s-100.966-225.28-225.28-225.28-225.28 100.966-225.28 225.28 100.966 225.28 225.28 225.28zM512 623.177c-101.581 0-184.32-82.739-184.32-184.32s82.739-184.32 184.32-184.32 184.32 82.739 184.32 184.32-82.739 184.32-184.32 184.32z" />
<glyph unicode="&#xe904;" glyph-name="twitter" data-tags="twitter" horiz-adv-x="951" d="M925.714 717.714c-25.143-36.571-56.571-69.143-92.571-95.429 0.571-8 0.571-16 0.571-24 0-244-185.714-525.143-525.143-525.143-104.571 0-201.714 30.286-283.429 82.857 14.857-1.714 29.143-2.286 44.571-2.286 86.286 0 165.714 29.143 229.143 78.857-81.143 1.714-149.143 54.857-172.571 128 11.429-1.714 22.857-2.857 34.857-2.857 16.571 0 33.143 2.286 48.571 6.286-84.571 17.143-148 91.429-148 181.143v2.286c24.571-13.714 53.143-22.286 83.429-23.429-49.714 33.143-82.286 89.714-82.286 153.714 0 34.286 9.143 65.714 25.143 93.143 90.857-112 227.429-185.143 380.571-193.143-2.857 13.714-4.571 28-4.571 42.286 0 101.714 82.286 184.571 184.571 184.571 53.143 0 101.143-22.286 134.857-58.286 41.714 8 81.714 23.429 117.143 44.571-13.714-42.857-42.857-78.857-81.143-101.714 37.143 4 73.143 14.286 106.286 28.571z" />
<glyph unicode="&#xe905;" glyph-name="Whatsapp" data-tags="Whatsapp" d="M813.995 740.51c-76.644 77.217-182.834 125.015-300.187 125.015-0.456 0-0.911-0.001-1.367-0.002h0.071c-235.008 0-426.197-191.147-426.197-425.984-0.001-0.383-0.002-0.835-0.002-1.288 0-77.975 21.105-151.020 57.913-213.736l-1.079 1.989-60.459-220.8 225.963 59.307c58.834-32.647 129.006-51.893 203.668-51.968h0.193c234.837 0 425.984 191.147 426.155 426.155 0.001 0.403 0.002 0.88 0.002 1.358 0 117.218-47.66 223.304-124.658 299.938l-0.016 0.016zM720.981 287.177c-8.832-24.832-52.309-48.811-71.808-50.475-19.669-1.835-37.973-8.832-127.829 26.453-108.373 42.667-176.64 153.685-182.016 160.853-5.333 6.997-43.349 57.685-43.349 109.995 0 52.48 27.52 78.165 37.205 88.832 9.813 10.667 21.333 13.355 28.501 13.355 6.997 0 14.165 0 20.309-0.341 7.68-0.171 16-0.64 24.021-18.347 9.472-20.992 30.165-73.643 32.853-78.976 2.645-5.333 4.48-11.691 0.811-18.688-3.499-7.168-5.333-11.52-10.496-17.835-5.333-6.144-11.179-13.824-16-18.475-5.333-5.333-10.837-11.179-4.693-21.845 6.187-10.667 27.52-45.483 59.179-73.643 40.661-36.352 75.008-47.531 85.675-52.864s16.811-4.48 22.997 2.688c6.315 6.997 26.667 30.976 33.835 41.643 6.997 10.667 14.165 8.832 23.808 5.333 9.813-3.499 62.165-29.312 72.832-34.645s17.664-8.021 20.352-12.373c2.645-4.48 2.645-25.813-6.187-50.645z" />
<glyph unicode="&#xe906;" glyph-name="snapchat" data-tags="snapchat" horiz-adv-x="951" d="M484.571 877.714c102.857 1.143 188-56.571 230.857-149.143 13.143-28 15.429-71.429 15.429-102.286 0-36.571-2.857-72.571-5.143-109.143 4.571-2.286 10.857-4 16-4 20.571 0 37.714 15.429 58.286 15.429 19.429 0 47.429-13.714 47.429-36.571 0-54.857-114.857-44.571-114.857-92.571 0-8.571 3.429-16.571 6.857-24.571 27.429-60 79.429-117.714 141.143-143.429 14.857-6.286 29.714-9.714 45.714-13.143 10.286-2.286 16-9.714 16-20 0-38.857-98.857-54.857-125.143-58.857-11.429-17.714-2.857-59.429-33.143-59.429-23.429 0-46.857 7.429-72 7.429-12 0-24-0.571-35.429-2.857-68-11.429-90.857-84.571-202.286-84.571-107.429 0-133.143 73.143-199.429 84.571-12 2.286-24 2.857-36 2.857-25.714 0-50.286-8.571-70.857-8.571-32 0-22.286 42.286-34.286 60.571-26.286 4-125.143 20-125.143 58.857 0 10.286 5.714 17.714 16 20 16 3.429 30.857 6.857 45.714 13.143 61.143 25.143 114.286 83.429 141.143 143.429 3.429 8 6.857 16 6.857 24.571 0 48-115.429 38.857-115.429 92 0 22.286 26.286 36.571 46.286 36.571 17.714 0 35.429-14.857 57.714-14.857 6.286 0 12.571 1.143 18.286 4-2.286 36-5.143 72-5.143 108.571 0 30.857 2.286 74.857 15.429 102.857 50.286 108.571 135.429 148 249.143 149.143z" />
<glyph unicode="&#xe907;" glyph-name="currency-ex" data-tags="currency-ex" d="M1001.040 448.001h-17.946c0 259.763-211.33 471.093-471.093 471.093-22.988 0-41.624-18.636-41.624-41.624s18.636-41.624 41.624-41.624c213.856 0 387.845-173.986 387.845-387.845h-17.942c-17.648 0-28.682-19.106-19.858-34.392l59.57-103.176c8.824-15.284 30.888-15.284 39.712 0l59.568 103.176c8.824 15.284-2.208 34.392-19.856 34.392zM512.001 60.156c-213.858 0-387.845 173.986-387.845 387.845h17.942c17.648 0 28.682 19.106 19.854 34.394l-59.568 103.176c-8.824 15.284-30.888 15.284-39.712 0l-59.566-103.18c-8.824-15.284 2.206-34.392 19.854-34.392h17.942c0-259.763 211.33-471.093 471.093-471.093 22.988 0 41.624 18.636 41.624 41.624 0.006 22.99-18.632 41.626-41.618 41.626zM506.317 489.539v36.59c-22.41-4.482-30.062-23.932 0-36.59zM523.535 432.653v-41.206c10.456 2.462 18.758 8.302 18.758 19.372 0.002 10.148-7.686 16.606-18.758 21.834zM512.001 751.078c-167.118 0-303.077-135.96-303.077-303.077s135.958-303.077 303.077-303.077 303.077 135.96 303.077 303.077-135.96 303.077-303.077 303.077zM526.613 348.707v-8.916c0-4.306-5.842-8.302-11.686-8.302-6.766 0-11.682 3.996-11.682 8.302v7.686c-36.898 1.23-67.034 20.296-67.034 39.974 0 10.456 9.226 25.83 20.91 25.83 12.914 0 23.37-18.142 46.126-22.142v49.814c-28.288 10.762-61.498 23.984-61.498 63.344 0 39.052 28.904 57.808 61.498 62.42v8.61c0 4.304 4.92 8.302 11.682 8.302 5.842 0 11.686-3.998 11.686-8.302v-7.69c19.064-0.616 55.042-5.536 55.042-26.75 0-8.302-5.534-25.214-19.064-25.214-10.148 0-15.99 9.84-35.978 11.378v-44.894c27.982-10.456 60.574-24.908 60.574-66.418-0.002-38.128-24.598-61.19-60.576-67.032z" />
<glyph unicode="&#xe908;" glyph-name="shopping-bag" data-tags="shopping-bag" d="M1004 155.429l20-178.857c1.143-10.286-2.286-20.571-9.143-28.571-6.857-7.429-17.143-12-27.429-12h-950.857c-10.286 0-20.571 4.571-27.429 12-6.857 8-10.286 18.286-9.143 28.571l20 178.857h984zM950.857 634.857l49.143-442.857h-976l49.143 442.857c2.286 18.286 17.714 32.571 36.571 32.571h146.286v-73.143c0-40.571 32.571-73.143 73.143-73.143s73.143 32.571 73.143 73.143v73.143h219.429v-73.143c0-40.571 32.571-73.143 73.143-73.143s73.143 32.571 73.143 73.143v73.143h146.286c18.857 0 34.286-14.286 36.571-32.571zM731.429 740.571v-146.286c0-20-16.571-36.571-36.571-36.571s-36.571 16.571-36.571 36.571v146.286c0 80.571-65.714 146.286-146.286 146.286s-146.286-65.714-146.286-146.286v-146.286c0-20-16.571-36.571-36.571-36.571s-36.571 16.571-36.571 36.571v146.286c0 121.143 98.286 219.429 219.429 219.429s219.429-98.286 219.429-219.429z" />
<glyph unicode="&#xe909;" glyph-name="home" data-tags="home" d="M1024 352l-192 192v288h-128v-160l-192 192-512-512v-32h128v-320h320v192h128v-192h320v320h128z" />
<glyph unicode="&#xe90a;" glyph-name="language" data-tags="language" horiz-adv-x="878" d="M373.714 344c-1.143-4-29.143 9.143-36.571 12-7.429 3.429-41.143 22.286-49.714 28s-41.143 32.571-45.143 34.286v0c-20.571-31.429-46.857-68.571-76.571-103.429-10.286-12-41.143-50.857-60-62.857-2.857-1.714-19.429-3.429-21.714-2.286 9.143 6.857 35.429 39.429 46.857 52.571 14.286 16.571 82.286 111.429 93.714 133.143 12 21.714 48 93.714 49.714 100.571-5.714 0.571-50.857-14.857-62.857-18.857-11.429-3.429-42.857-10.857-45.143-12.571-2.286-2.286-0.571-9.143-1.714-11.429s-11.429-7.429-17.714-8.571c-5.714-1.714-18.857-2.286-26.857 0-7.429 1.714-14.286 9.143-16 12 0 0-2.286 3.429-2.857 13.143 6.857 2.286 18.286 2.857 30.857 6.286s43.429 12.571 60 18.286 48.571 17.714 58.286 20c10.286 1.714 36 18.857 49.714 23.429s23.429 10.286 24 7.429 0-15.429-0.571-18.857c-0.571-2.857-28-56.571-32-65.143-2.286-4.571-18.286-34.857-44-74.857 9.143-4 28.571-12 36.571-16 9.714-4.571 77.714-33.143 81.143-34.286s9.714-27.429 8.571-32zM256.571 621.714c1.714-9.714-1.143-13.714-2.286-16-5.714-10.857-20-18.286-28.571-21.714s-22.857-6.857-34.286-6.857c-5.143 0.571-15.429 2.286-28 14.857-6.857 7.429-12 27.429-9.714 25.143s18.857-4.571 26.286-2.857 25.143 6.857 33.143 9.143c8.571 2.857 25.714 7.429 31.429 8 5.714 0 10.286-2.286 12-9.714zM655.429 548l36-129.714-79.429 24zM22.286 90.857l396.571 132.571v589.714l-396.571-133.143v-589.143zM731.429 272l58.286-17.714-103.429 375.429-57.143 17.714-123.429-306.286 58.286-17.714 25.714 62.857 120.571-37.143zM444 821.714l327.429-105.143v217.143zM621.714 65.714l90.286-7.429-30.857-91.429-22.857 37.714c-46.286-29.714-103.429-52.571-157.714-61.714-16.571-3.429-35.429-6.857-52-6.857h-48c-60.571 0-170.857 36-218.857 70.857-3.429 2.857-4.571 5.143-4.571 9.143 0 6.286 4.571 10.857 10.286 10.857 5.143 0 32-16.571 39.429-20 51.429-25.714 123.429-49.143 181.143-49.143 71.429 0 120 9.143 185.143 37.143 18.857 8.571 35.429 19.429 53.143 29.143zM877.714 682.286v-616.571c-441.714 140.571-442.286 140.571-442.286 140.571-9.143-4-418.857-142.286-424.571-142.286-4.571 0-8.571 2.857-10.286 7.429 0 0.571-0.571 1.143-0.571 1.714v616c0.571 1.714 1.143 4.571 2.286 5.714 3.429 4 8 5.143 11.429 6.286 1.714 0.571 36.571 12 85.143 28.571v219.429l318.857-113.143c4 1.143 359.429 124 364.571 124 6.286 0 11.429-4.571 11.429-12v-238.857z" />
<glyph unicode="&#xe90b;" glyph-name="angle-down" data-tags="angle-down" horiz-adv-x="658" d="M614.286 539.429c0-4.571-2.286-9.714-5.714-13.143l-266.286-266.286c-3.429-3.429-8.571-5.714-13.143-5.714s-9.714 2.286-13.143 5.714l-266.286 266.286c-3.429 3.429-5.714 8.571-5.714 13.143s2.286 9.714 5.714 13.143l28.571 28.571c3.429 3.429 8 5.714 13.143 5.714 4.571 0 9.714-2.286 13.143-5.714l224.571-224.571 224.571 224.571c3.429 3.429 8.571 5.714 13.143 5.714s9.714-2.286 13.143-5.714l28.571-28.571c3.429-3.429 5.714-8.571 5.714-13.143z" />
<glyph unicode="&#xe90c;" glyph-name="angle-left" data-tags="angle-left" horiz-adv-x="384" d="M358.286 649.143c0-4.571-2.286-9.714-5.714-13.143l-224.571-224.571 224.571-224.571c3.429-3.429 5.714-8.571 5.714-13.143s-2.286-9.714-5.714-13.143l-28.571-28.571c-3.429-3.429-8.571-5.714-13.143-5.714s-9.714 2.286-13.143 5.714l-266.286 266.286c-3.429 3.429-5.714 8.571-5.714 13.143s2.286 9.714 5.714 13.143l266.286 266.286c3.429 3.429 8.571 5.714 13.143 5.714s9.714-2.286 13.143-5.714l28.571-28.571c3.429-3.429 5.714-8 5.714-13.143z" />
<glyph unicode="&#xe90d;" glyph-name="angle-right" data-tags="angle-right" horiz-adv-x="347" d="M340 411.429c0-4.571-2.286-9.714-5.714-13.143l-266.286-266.286c-3.429-3.429-8.571-5.714-13.143-5.714s-9.714 2.286-13.143 5.714l-28.571 28.571c-3.429 3.429-5.714 8-5.714 13.143 0 4.571 2.286 9.714 5.714 13.143l224.571 224.571-224.571 224.571c-3.429 3.429-5.714 8.571-5.714 13.143s2.286 9.714 5.714 13.143l28.571 28.571c3.429 3.429 8.571 5.714 13.143 5.714s9.714-2.286 13.143-5.714l266.286-266.286c3.429-3.429 5.714-8.571 5.714-13.143z" />
<glyph unicode="&#xe90e;" glyph-name="angle-up" data-tags="angle-up" horiz-adv-x="658" d="M614.286 283.429c0-4.571-2.286-9.714-5.714-13.143l-28.571-28.571c-3.429-3.429-8-5.714-13.143-5.714-4.571 0-9.714 2.286-13.143 5.714l-224.571 224.571-224.571-224.571c-3.429-3.429-8.571-5.714-13.143-5.714s-9.714 2.286-13.143 5.714l-28.571 28.571c-3.429 3.429-5.714 8.571-5.714 13.143s2.286 9.714 5.714 13.143l266.286 266.286c3.429 3.429 8.571 5.714 13.143 5.714s9.714-2.286 13.143-5.714l266.286-266.286c3.429-3.429 5.714-8.571 5.714-13.143z" />
<glyph unicode="&#xe90f;" glyph-name="delete" data-tags="delete" d="M256 128c0-52.992 42.976-96 96-96h320c52.992 0 96 43.008 96 96l64 512h-640l64-512zM608 544h64v-416h-64v416zM480 544h64v-416h-64v416zM352 544h64v-416h-64v416zM816 768h-208c0 0-14.336 64-32 64h-128c-17.696 0-32-64-32-64h-208c-26.528 0-48-21.472-48-48s0-48 0-48h704c0 0 0 21.472 0 48s-21.504 48-48 48z" />
<glyph unicode="&#xe910;" glyph-name="cog" data-tags="cog" d="M933.79 349.75c-53.726 93.054-21.416 212.304 72.152 266.488l-100.626 174.292c-28.75-16.854-62.176-26.518-97.846-26.518-107.536 0-194.708 87.746-194.708 195.99h-201.258c0.266-33.41-8.074-67.282-25.958-98.252-53.724-93.056-173.156-124.702-266.862-70.758l-100.624-174.292c28.97-16.472 54.050-40.588 71.886-71.478 53.638-92.908 21.512-211.92-71.708-266.224l100.626-174.292c28.65 16.696 61.916 26.254 97.4 26.254 107.196 0 194.144-87.192 194.7-194.958h201.254c-0.086 33.074 8.272 66.57 25.966 97.218 53.636 92.906 172.776 124.594 266.414 71.012l100.626 174.29c-28.78 16.466-53.692 40.498-71.434 71.228zM512 240.668c-114.508 0-207.336 92.824-207.336 207.334 0 114.508 92.826 207.334 207.336 207.334s207.332-92.826 207.332-207.334c-0.002-114.51-92.824-207.334-207.332-207.334z" />
<glyph unicode="&#xe911;" glyph-name="tinder" data-tags="tinder" d="M397.525 556.757c1.92-3.115 5.248-5.12 9.045-5.12 2.56 0 4.949 0.896 6.741 2.432l0.64 0.512c16.64 13.867 31.616 28.16 45.696 43.392 136.917 148.608 56.96 331.051 56.32 332.757-3.84 8.96-1.28 19.584 6.4 25.344 8.32 5.76 18.56 5.12 26.24-1.408 464-431.531 341.12-760.235 332.16-782.379-37.12-134.016-184.96-230.997-360.277-235.947-5.888-0.341-10.325-0.341-15.488-0.341-207.019 0-383.019 127.531-383.019 290.432v2.56c0 226.005 204.587 448.939 213.717 458.411 5.803 6.357 14.72 8.32 22.4 4.48 7.68-3.243 12.672-10.88 12.416-19.243-1.835-44.203 7.125-82.56 26.923-115.2v-0.64l0.085-0.043z" />
<glyph unicode="&#xe912;" glyph-name="globe-solid" data-tags="globe-solid" horiz-adv-x="992" d="M673 640c-29 178.6-97.4 304-177 304s-148-125.4-177-304h354zM304 448c0-44.4 2.4-87 6.6-128h370.6c4.2 41 6.6 83.6 6.6 128s-2.4 87-6.6 128h-370.6c-4.2-41-6.6-83.6-6.6-128zM953.4 640c-57.2 135.8-173 240.8-316 283.2 48.8-67.6 82.4-169.4 100-283.2h216zM354.4 923.2c-142.8-42.4-258.8-147.4-315.8-283.2h216c17.4 113.8 51 215.6 99.8 283.2zM974.8 576h-229.4c4.2-42 6.6-85 6.6-128s-2.4-86-6.6-128h229.2c11 41 17.2 83.6 17.2 128s-6.2 87-17 128zM240 448c0 43 2.4 86 6.6 128h-229.4c-10.8-41-17.2-83.6-17.2-128s6.4-87 17.2-128h229.2c-4 42-6.4 85-6.4 128zM319 256c29-178.6 97.4-304 177-304s148 125.4 177 304h-354zM637.6-27.2c142.8 42.4 258.8 147.4 316 283.2h-216c-17.6-113.8-51.2-215.6-100-283.2zM38.6 256c57.2-135.8 173-240.8 316-283.2-48.8 67.6-82.4 169.4-100 283.2h-216z" />
<glyph unicode="&#xe913;" glyph-name="equalizer" data-tags="equalizer" d="M448 832v16c0 26.4-21.6 48-48 48h-160c-26.4 0-48-21.6-48-48v-16h-192v-128h192v-16c0-26.4 21.6-48 48-48h160c26.4 0 48 21.6 48 48v16h576v128h-576zM256 704v128h128v-128h-128zM832 528c0 26.4-21.6 48-48 48h-160c-26.4 0-48-21.6-48-48v-16h-576v-128h576v-16c0-26.4 21.6-48 48-48h160c26.4 0 48 21.6 48 48v16h192v128h-192v16zM640 384v128h128v-128h-128zM448 208c0 26.4-21.6 48-48 48h-160c-26.4 0-48-21.6-48-48v-16h-192v-128h192v-16c0-26.4 21.6-48 48-48h160c26.4 0 48 21.6 48 48v16h576v128h-576v16zM256 64v128h128v-128h-128z" />
<glyph unicode="&#xe914;" glyph-name="camera" data-tags="camera" d="M420 32c68.709 118.625 136.493 238.172 206 356l156-270c-74-60-168-96-270-96-32 0-62 4-92 10zM104 320h414l-158-270c-122 46-216 146-256 270zM198 736c71.999-124.667 143.587-249.745 216-374h-320c-6 28-8 56-8 86 0 112 42 212 112 288zM930 534c6-28 8-56 8-86 0-112-42-212-112-288l-204 352-12 22h320zM920 576h-414l158 270c122-46 216-146 256-270zM402 512l-4-4-156 270c74 60 168 96 270 96 32 0 62-4 92-10z" />
<glyph unicode="&#xe915;" glyph-name="pictures" data-tags="pictures" d="M896 704v-512c0-35.328-28.672-64-64-64h-672c0-35.328 28.672-64 64-64h672c35.328 0 64 28.672 64 64v512c0 35.328-28.672 64-64 64zM864 224v512c0 35.328-28.672 64-64 64h-672c-35.328 0-64-28.672-64-64v-512c0-35.328 28.672-64 64-64h672c35.328 0 64 28.672 64 64zM128 736h672v-512h-672v512zM500.064 406.048l-95.616 101.792-95.648-163.328-71.744 74.976-77.728-164.128h609.76l-137.504 359.84-131.52-209.152zM256 512c35.328 0 64 28.672 64 64s-28.672 64-64 64-64-28.672-64-64 28.672-64 64-64z" />
<glyph unicode="&#xe916;" glyph-name="arrow-down" data-tags="arrow-down" d="M877.254 338.746l-320-320c-24.992-24.994-65.514-24.994-90.508 0l-320 320c-24.994 24.994-24.994 65.516 0 90.51s65.516 24.996 90.51 0l210.744-210.746v613.49c0 35.346 28.654 64 64 64s64-28.654 64-64v-613.49l210.746 210.746c12.496 12.496 28.876 18.744 45.254 18.744s32.758-6.248 45.254-18.746c24.994-24.994 24.994-65.514 0-90.508z" />
<glyph unicode="&#xe917;" glyph-name="arrow-left" data-tags="arrow-left" d="M402.746 82.746l-320 320c-24.994 24.992-24.994 65.516 0 90.51l320 320c24.994 24.992 65.516 24.992 90.51 0s24.994-65.516 0-90.51l-210.746-210.746h613.49c35.346 0 64-28.654 64-64s-28.654-64-64-64h-613.49l210.746-210.746c12.496-12.496 18.744-28.876 18.744-45.254s-6.248-32.758-18.744-45.254c-24.994-24.994-65.516-24.994-90.51 0z" />
<glyph unicode="&#xe918;" glyph-name="watch_later" data-tags="watch_later" d="M692 268l34 56-192 116v222h-64v-256zM512 874c234 0 426-192 426-426s-192-426-426-426-426 192-426 426 192 426 426 426z" />
<glyph unicode="&#xe919;" glyph-name="arrow-right" data-tags="arrow-right" d="M621.254 82.746l320 320c24.994 24.992 24.994 65.516 0 90.51l-320 320c-24.994 24.992-65.516 24.992-90.51 0s-24.994-65.516 0-90.51l210.746-210.746h-613.49c-35.346 0-64-28.654-64-64s28.654-64 64-64h613.49l-210.746-210.746c-12.496-12.496-18.744-28.876-18.744-45.254s6.248-32.758 18.744-45.254c24.994-24.994 65.516-24.994 90.51 0z" />
<glyph unicode="&#xe91a;" glyph-name="arrow-up" data-tags="arrow-up" d="M877.254 557.254l-320 320c-24.992 24.994-65.514 24.994-90.508 0l-320-320c-24.994-24.994-24.994-65.516 0-90.51s65.516-24.996 90.51 0l210.744 210.746v-613.49c0-35.346 28.654-64 64-64s64 28.654 64 64v613.49l210.746-210.746c12.496-12.496 28.876-18.744 45.254-18.744s32.758 6.248 45.254 18.746c24.994 24.994 24.994 65.514 0 90.508z" />
<glyph unicode="&#xe91b;" glyph-name="crop" data-tags="crop" d="M832 704l192 192-64 64-192-192h-448v192h-128v-192h-192v-128h192v-512h512v-192h128v192h192v128h-192v448zM320 640h320l-320-320v320zM384 256l320 320v-320h-320z" />
<glyph unicode="&#xe91c;" glyph-name="file-pdf" data-tags="file-pdf" d="M842.012 370.52c-13.648 13.446-43.914 20.566-89.972 21.172-31.178 0.344-68.702-2.402-108.17-7.928-17.674 10.198-35.892 21.294-50.188 34.658-38.462 35.916-70.568 85.772-90.576 140.594 1.304 5.12 2.414 9.62 3.448 14.212 0 0 21.666 123.060 15.932 164.666-0.792 5.706-1.276 7.362-2.808 11.796l-1.882 4.834c-5.894 13.592-17.448 27.994-35.564 27.208l-10.916 0.344c-20.202 0-36.664-10.332-40.986-25.774-13.138-48.434 0.418-120.892 24.98-214.738l-6.288-15.286c-17.588-42.876-39.63-86.060-59.078-124.158l-2.528-4.954c-20.46-40.040-39.026-74.028-55.856-102.822l-17.376-9.188c-1.264-0.668-31.044-16.418-38.028-20.644-59.256-35.38-98.524-75.542-105.038-107.416-2.072-10.17-0.53-23.186 10.014-29.212l16.806-8.458c7.292-3.652 14.978-5.502 22.854-5.502 42.206 0 91.202 52.572 158.698 170.366 77.93 25.37 166.652 46.458 244.412 58.090 59.258-33.368 132.142-56.544 178.142-56.544 8.168 0 15.212 0.78 20.932 2.294 8.822 2.336 16.258 7.368 20.792 14.194 8.926 13.432 10.734 31.932 8.312 50.876-0.72 5.622-5.21 12.574-10.068 17.32zM211.646 145.952c7.698 21.042 38.16 62.644 83.206 99.556 2.832 2.296 9.808 8.832 16.194 14.902-47.104-75.124-78.648-105.066-99.4-114.458zM478.434 760.314c13.566 0 21.284-34.194 21.924-66.254s-6.858-54.56-16.158-71.208c-7.702 24.648-11.426 63.5-11.426 88.904 0 0-0.566 48.558 5.66 48.558v0zM398.852 322.506c9.45 16.916 19.282 34.756 29.33 53.678 24.492 46.316 39.958 82.556 51.478 112.346 22.91-41.684 51.444-77.12 84.984-105.512 4.186-3.542 8.62-7.102 13.276-10.65-68.21-13.496-127.164-29.91-179.068-49.862v0zM828.902 326.348c-4.152-2.598-16.052-4.1-23.708-4.1-24.708 0-55.272 11.294-98.126 29.666 16.468 1.218 31.562 1.838 45.102 1.838 24.782 0 32.12 0.108 56.35-6.072 24.228-6.18 24.538-18.734 20.382-21.332v0zM917.806 730.924c-22.21 30.292-53.174 65.7-87.178 99.704s-69.412 64.964-99.704 87.178c-51.574 37.82-76.592 42.194-90.924 42.194h-496c-44.112 0-80-35.888-80-80v-864c0-44.112 35.886-80 80-80h736c44.112 0 80 35.888 80 80v624c0 14.332-4.372 39.35-42.194 90.924v0zM785.374 785.374c30.7-30.7 54.8-58.398 72.58-81.374h-153.954v153.946c22.982-17.78 50.678-41.878 81.374-72.572v0zM896 16c0-8.672-7.328-16-16-16h-736c-8.672 0-16 7.328-16 16v864c0 8.672 7.328 16 16 16 0 0 495.956 0.002 496 0v-224c0-17.672 14.324-32 32-32h224v-624z" />
<glyph unicode="&#xe91d;" glyph-name="file-text" data-tags="file-text" d="M917.806 730.924c-22.212 30.292-53.174 65.7-87.178 99.704s-69.412 64.964-99.704 87.178c-51.574 37.82-76.592 42.194-90.924 42.194h-496c-44.112 0-80-35.888-80-80v-864c0-44.112 35.888-80 80-80h736c44.112 0 80 35.888 80 80v624c0 14.332-4.372 39.35-42.194 90.924zM785.374 785.374c30.7-30.7 54.8-58.398 72.58-81.374h-153.954v153.946c22.984-17.78 50.678-41.878 81.374-72.572zM896 16c0-8.672-7.328-16-16-16h-736c-8.672 0-16 7.328-16 16v864c0 8.672 7.328 16 16 16 0 0 495.956 0.002 496 0v-224c0-17.672 14.326-32 32-32h224v-624zM736 128h-448c-17.672 0-32 14.326-32 32s14.328 32 32 32h448c17.674 0 32-14.326 32-32s-14.326-32-32-32zM736 256h-448c-17.672 0-32 14.326-32 32s14.328 32 32 32h448c17.674 0 32-14.326 32-32s-14.326-32-32-32zM736 384h-448c-17.672 0-32 14.326-32 32s14.328 32 32 32h448c17.674 0 32-14.326 32-32s-14.326-32-32-32z" />
<glyph unicode="&#xe91e;" glyph-name="file-word" data-tags="file-word" d="M639.778 484.108h44.21l-51.012-226.178-66.324 318.010h-106.55l-77.114-318.010-57.816 318.010h-111.394l113.092-511.88h108.838l76.294 302.708 68.256-302.708h100.336l129.628 511.88h-170.446v-91.832zM917.806 730.924c-22.21 30.292-53.174 65.7-87.178 99.704s-69.412 64.964-99.704 87.178c-51.574 37.82-76.592 42.194-90.924 42.194h-496c-44.112 0-80-35.888-80-80v-864c0-44.112 35.886-80 80-80h736c44.112 0 80 35.888 80 80v624c0 14.332-4.372 39.35-42.194 90.924v0zM785.374 785.374c30.7-30.7 54.8-58.398 72.58-81.374h-153.954v153.946c22.982-17.78 50.678-41.878 81.374-72.572v0zM896 16c0-8.672-7.328-16-16-16h-736c-8.672 0-16 7.328-16 16v864c0 8.672 7.328 16 16 16 0 0 495.956 0.002 496 0v-224c0-17.672 14.324-32 32-32h224v-624z" />
<glyph unicode="&#xe91f;" glyph-name="feed" data-tags="feed" d="M384 448c0 70.692 57.308 128 128 128s128-57.308 128-128c0-70.692-57.308-128-128-128s-128 57.308-128 128zM664.348 729.474c99.852-54.158 167.652-159.898 167.652-281.474s-67.8-227.316-167.652-281.474c44.066 70.126 71.652 170.27 71.652 281.474s-27.586 211.348-71.652 281.474zM288 448c0-111.204 27.584-211.348 71.652-281.474-99.852 54.16-167.652 159.898-167.652 281.474s67.8 227.314 167.652 281.474c-44.068-70.126-71.652-170.27-71.652-281.474zM96 448c0-171.9 54.404-326.184 140.652-431.722-142.302 90.948-236.652 250.314-236.652 431.722s94.35 340.774 236.652 431.722c-86.248-105.538-140.652-259.822-140.652-431.722zM787.352 879.72c142.298-90.946 236.648-250.312 236.648-431.72s-94.35-340.774-236.648-431.72c86.244 105.536 140.648 259.82 140.648 431.72s-54.404 326.184-140.648 431.72z" />
<glyph unicode="&#xe920;" glyph-name="history" data-tags="history" horiz-adv-x="1088" d="M640 896c247.424 0 448-200.576 448-448s-200.576-448-448-448v96c94.024 0 182.418 36.614 248.902 103.098s103.098 154.878 103.098 248.902c0 94.022-36.614 182.418-103.098 248.902s-154.878 103.098-248.902 103.098c-94.022 0-182.418-36.614-248.902-103.098-51.14-51.138-84.582-115.246-97.306-184.902h186.208l-224-256-224 256h164.57c31.060 217.102 217.738 384 443.43 384zM832 512v-128h-256v320h128v-192z" />
<glyph unicode="&#xe921;" glyph-name="save-solid" data-tags="save-solid" horiz-adv-x="896" d="M867.882 700.118l-167.764 167.764c-17.373 17.373-41.372 28.118-67.882 28.118h-536.236c-53.020 0-96-42.98-96-96v-704c0-53.020 42.98-96 96-96h704c53.020 0 96 42.98 96 96v536.236c0 26.51-10.745 50.509-28.118 67.882v0zM448 128c-70.692 0-128 57.308-128 128s57.308 128 128 128 128-57.308 128-128c0-70.692-57.308-128-128-128zM640 737.040v-201.040c0-13.254-10.746-24-24-24h-464c-13.254 0-24 10.746-24 24v208c0 13.254 10.746 24 24 24h457.040c6.366 0 12.47-2.528 16.97-7.030l6.96-6.96c4.343-4.342 7.030-10.341 7.030-16.968 0-0.001 0-0.002 0-0.002v0z" />
<glyph unicode="&#xe922;" glyph-name="plus" data-tags="plus" d="M992 576h-352v352c0 17.672-14.328 32-32 32h-192c-17.672 0-32-14.328-32-32v-352h-352c-17.672 0-32-14.328-32-32v-192c0-17.672 14.328-32 32-32h352v-352c0-17.672 14.328-32 32-32h192c17.672 0 32 14.328 32 32v352h352c17.672 0 32 14.328 32 32v192c0 17.672-14.328 32-32 32z" />
<glyph unicode="&#xe923;" glyph-name="minus" data-tags="minus" d="M0 544v-192c0-17.672 14.328-32 32-32h960c17.672 0 32 14.328 32 32v192c0 17.672-14.328 32-32 32h-960c-17.672 0-32-14.328-32-32z" />
<glyph unicode="&#xe924;" glyph-name="stack" data-tags="stack" d="M1024 640l-512 256-512-256 512-256 512 256zM512 811.030l342.058-171.030-342.058-171.030-342.058 171.030 342.058 171.030zM921.444 499.278l102.556-51.278-512-256-512 256 102.556 51.278 409.444-204.722zM921.444 307.278l102.556-51.278-512-256-512 256 102.556 51.278 409.444-204.722z" />
<glyph unicode="&#xe925;" glyph-name="barcode" data-tags="barcode" d="M0 832h128v-640h-128zM192 832h64v-640h-64zM320 832h64v-640h-64zM512 832h64v-640h-64zM768 832h64v-640h-64zM960 832h64v-640h-64zM640 832h32v-640h-32zM448 832h32v-640h-32zM864 832h32v-640h-32zM0 128h64v-64h-64zM192 128h64v-64h-64zM320 128h64v-64h-64zM640 128h64v-64h-64zM960 128h64v-64h-64zM768 128h128v-64h-128zM448 128h128v-64h-128z" />
<glyph unicode="&#xe926;" glyph-name="qrcode" data-tags="qrcode" d="M320 896h-256v-256h256v256zM384 960v0-384h-384v384h384zM128 832h128v-128h-128zM960 896h-256v-256h256v256zM1024 960v0-384h-384v384h384zM768 832h128v-128h-128zM320 256h-256v-256h256v256zM384 320v0-384h-384v384h384zM128 192h128v-128h-128zM448 960h64v-64h-64zM512 896h64v-64h-64zM448 832h64v-64h-64zM512 768h64v-64h-64zM448 704h64v-64h-64zM512 640h64v-64h-64zM448 576h64v-64h-64zM448 448h64v-64h-64zM512 384h64v-64h-64zM448 320h64v-64h-64zM512 256h64v-64h-64zM448 192h64v-64h-64zM512 128h64v-64h-64zM448 64h64v-64h-64zM512 0h64v-64h-64zM960 448h64v-64h-64zM64 448h64v-64h-64zM128 512h64v-64h-64zM0 512h64v-64h-64zM256 512h64v-64h-64zM320 448h64v-64h-64zM384 512h64v-64h-64zM576 448h64v-64h-64zM640 512h64v-64h-64zM704 448h64v-64h-64zM768 512h64v-64h-64zM832 448h64v-64h-64zM896 512h64v-64h-64zM960 320h64v-64h-64zM576 320h64v-64h-64zM640 384h64v-64h-64zM704 320h64v-64h-64zM832 320h64v-64h-64zM896 384h64v-64h-64zM960 192h64v-64h-64zM576 192h64v-64h-64zM640 256h64v-64h-64zM768 256h64v-64h-64zM832 192h64v-64h-64zM896 256h64v-64h-64zM960 64h64v-64h-64zM640 128h64v-64h-64zM704 64h64v-64h-64zM768 128h64v-64h-64zM832 64h64v-64h-64zM640 0h64v-64h-64zM768 0h64v-64h-64zM896 0h64v-64h-64z" />
<glyph unicode="&#xe927;" glyph-name="amazon" data-tags="amazon" d="M925.6 74.8c-112.2-82.8-274.6-126.8-414.6-126.8-196.2 0-372.8 72.4-506.4 193.2-10.4 9.4-1.2 22.4 11.4 15 144.2-84 322.6-134.4 506.8-134.4 124.2 0 260.8 25.8 386.6 79.2 18.8 8 34.8-12.6 16.2-26.2zM972.2 128c-14.4 18.4-94.8 8.8-131 4.4-11-1.2-12.6 8.2-2.8 15.2 64.2 45 169.4 32 181.6 17 12.4-15.2-3.2-120.6-63.4-171-9.2-7.8-18-3.6-14 6.6 13.8 33.8 44 109.4 29.6 127.8zM707.4 202.4l0.2-0.2c24.8 21.8 69.4 60.8 94.6 81.8 10 8 8.2 21.4 0.4 32.6-22.6 31.2-46.6 56.6-46.6 114.2v192c0 81.4 5.6 156-54.2 212-47.2 45.2-125.6 61.2-185.6 61.2-117.2 0-248-43.8-275.4-188.6-3-15.4 8.4-23.6 18.4-25.8l119.4-13c11.2 0.6 19.2 11.6 21.4 22.8 10.2 49.8 52 74 99 74 25.4 0 54.2-9.2 69.2-32 17.2-25.4 15-60 15-89.4v-16c-71.4-8-164.8-13.2-231.6-42.6-77.2-33.4-131.4-101.4-131.4-201.4 0-128 80.6-192 184.4-192 87.6 0 135.4 20.6 203 89.8 22.4-32.4 29.6-48.2 70.6-82.2 9.4-5 21-4.6 29.2 2.8zM583.2 502.8c0-48 1.2-88-23-130.6-19.6-34.8-50.6-56-85.2-56-47.2 0-74.8 36-74.8 89.2 0 105 94.2 124 183.2 124v-26.6z" />
<glyph unicode="&#xe928;" glyph-name="close" data-tags="close" d="M810 686l-238-238 238-238-60-60-238 238-238-238-60 60 238 238-238 238 60 60 238-238 238 238z" />
<glyph unicode="&#xe929;" glyph-name="bookmark-solid" data-tags="bookmark-solid" horiz-adv-x="768" d="M0-64v928c0 53.020 42.98 96 96 96h576c53.020 0 96-42.98 96-96v-928l-384 224-384-224z" />
<glyph unicode="&#xe92a;" glyph-name="edit" data-tags="edit" d="M341.792 377.376l-70.688-181.44 178.304 73.824-107.616 107.616zM859.36 764.896l-22.624 22.624c-24.96 24.992-65.504 24.992-90.496 0l-45.248-45.248 113.12-113.152 45.248 45.248c25.024 24.992 25.024 65.536 0 90.528zM345.376 386.624l16.192 16.192 113.12-113.12 316.8 316.8-113.12 113.12 22.624 22.656-355.616-355.648zM736.128 127.872l-544.832-0.192 0.096 544.832 381.472 0.128 59.776 63.36h-473.76c-17.664 0-32-14.304-32-32v-608c0-17.696 14.336-32 32-32h608c17.696 0 32 14.304 32 32v449.856l-64.48-63.264 1.728-354.72z" />
<glyph unicode="&#xe92b;" glyph-name="question" data-tags="question" d="M512-64c-282.77 0-512 229.23-512 512s229.23 512 512 512v0c282.77 0 512-229.23 512-512s-229.23-512-512-512v0zM614.4 601.6c0-14.336-10.752-40.96-21.504-51.2l-80.896-80.896c-29.184-29.696-51.2-81.92-51.2-123.904v-51.2h102.4v51.2c0 14.848 10.752 40.96 21.504 51.2l80.896 80.896c29.184 29.696 51.2 81.92 51.2 123.904 0 113.107-91.693 204.8-204.8 204.8s-204.8-91.693-204.8-204.8v0h102.4c0 56.554 45.846 102.4 102.4 102.4s102.4-45.846 102.4-102.4v0zM460.8 192v-102.4h102.4v102.4h-102.4z" />
<glyph unicode="&#xe92c;" glyph-name="info" data-tags="info" d="M512 864c-229.76 0-416-186.24-416-416s186.24-416 416-416 416 186.24 416 416-186.24 416-416 416zM577.248 294.944c-31.392-47.136-63.328-83.456-117.056-83.456-36.672 5.984-51.744 32.256-43.808 59.040l69.12 228.928c1.696 5.6-1.12 11.584-6.24 13.408-5.088 1.792-15.072-4.832-23.712-14.304l-41.792-50.272c-1.12 8.448-0.128 22.4-0.128 28.032 31.392 47.136 82.976 84.32 117.952 84.32 33.248-3.392 48.992-29.984 43.2-59.2l-69.6-230.048c-0.928-5.184 1.824-10.464 6.528-12.128 5.12-1.792 15.872 4.832 24.544 14.304l41.76 50.24c1.12-8.448-0.768-23.232-0.768-28.864zM567.936 593.952c-26.432 0-47.872 19.264-47.872 47.616s21.44 47.584 47.872 47.584 47.872-19.264 47.872-47.584c0-28.384-21.44-47.616-47.872-47.616z" />
<glyph unicode="&#xe92d;" glyph-name="exclamation-triangle" data-tags="exclamation-triangle" d="M585.143 174.286v108.571c0 10.286-8 18.857-18.286 18.857h-109.714c-10.286 0-18.286-8.571-18.286-18.857v-108.571c0-10.286 8-18.857 18.286-18.857h109.714c10.286 0 18.286 8.571 18.286 18.857zM584 388l10.286 262.286c0 3.429-1.714 8-5.714 10.857-3.429 2.857-8.571 6.286-13.714 6.286h-125.714c-5.143 0-10.286-3.429-13.714-6.286-4-2.857-5.714-8.571-5.714-12l9.714-261.143c0-7.429 8.571-13.143 19.429-13.143h105.714c10.286 0 18.857 5.714 19.429 13.143zM576 921.714l438.857-804.571c12.571-22.286 12-49.714-1.143-72s-37.143-36-62.857-36h-877.714c-25.714 0-49.714 13.714-62.857 36s-13.714 49.714-1.143 72l438.857 804.571c12.571 23.429 37.143 38.286 64 38.286s51.429-14.857 64-38.286z" />
<glyph unicode="&#xe92e;" glyph-name="floppy-o" data-tags="floppy-o" horiz-adv-x="878" d="M219.429 82.286h438.857v219.429h-438.857v-219.429zM731.429 82.286h73.143v512c0 10.857-9.714 34.286-17.143 41.714l-160.571 160.571c-8 8-30.286 17.143-41.714 17.143v-237.714c0-30.286-24.571-54.857-54.857-54.857h-329.143c-30.286 0-54.857 24.571-54.857 54.857v237.714h-73.143v-731.429h73.143v237.714c0 30.286 24.571 54.857 54.857 54.857h475.429c30.286 0 54.857-24.571 54.857-54.857v-237.714zM512 612.571v182.857c0 9.714-8.571 18.286-18.286 18.286h-109.714c-9.714 0-18.286-8.571-18.286-18.286v-182.857c0-9.714 8.571-18.286 18.286-18.286h109.714c9.714 0 18.286 8.571 18.286 18.286zM877.714 594.286v-530.286c0-30.286-24.571-54.857-54.857-54.857h-768c-30.286 0-54.857 24.571-54.857 54.857v768c0 30.286 24.571 54.857 54.857 54.857h530.286c30.286 0 72-17.143 93.714-38.857l160-160c21.714-21.714 38.857-63.429 38.857-93.714z" />
<glyph unicode="&#xe92f;" glyph-name="jacket" data-tags="jacket" d="M1018.149 351.451c2.926 29.257-35.109 125.806-35.109 125.806-40.96 143.36-76.069 225.28-102.4 275.017 0 0 0 0 0 0-40.96 61.44-146.286 87.771-234.057 99.474 0 5.851-5.851 32.183-11.703 49.737-8.777 23.406-20.48 35.109-46.811 43.886-35.109 8.777-117.029 8.777-149.211 0-29.257-5.851-40.96-20.48-46.811-43.886-5.851-17.554-11.703-43.886-11.703-49.737-87.771-11.703-193.097-38.034-234.057-99.474 0 0 0 0 0 0-29.257-49.737-64.366-134.583-105.326-275.017 0 0-38.034-93.623-35.109-125.806 2.926-29.257-14.629-67.291 0-137.509s23.406-152.137 67.291-198.949c2.926-2.926 5.851-5.851 5.851-5.851v0l5.851-20.48c0 0 0 0 0 0l2.926-8.777c0 0 0 0 0 0l2.926-11.703c0 0 0 0 0 0l2.926-8.777c0 0 0 0 0 0v-2.926c2.926-8.777 8.777-11.703 17.554-11.703s29.257 2.926 43.886 8.777 35.109 11.703 43.886 14.629c8.777 2.926 14.629 8.777 11.703 17.554l-14.629 52.663c0 0 2.926 55.589-5.851 111.177-11.703 67.291-14.629 137.509-5.851 157.989 5.851 17.554 46.811 96.549 64.366 152.137 0-2.926 0-5.851 2.926-8.777 0 0-17.554-96.549-8.777-128.731s-52.663-160.914 2.926-216.503c0 0 0 0 2.926-2.926v-55.589c0-8.777 2.926-14.629 11.703-20.48 43.886-26.331 119.954-35.109 210.651-38.034v0c0 0 0 0 0 0 2.926 0 5.851 0 11.703 0 0 0 0 0 0 0 2.926 0 5.851 0 11.703 0 0 0 0 0 0 0 2.926 0 2.926 0 5.851 0h2.926c0 0 2.926 0 2.926 0s0 0 2.926 0 8.777 0 11.703 0c2.926 0 8.777 0 11.703 0 0 0 2.926 0 2.926 0 2.926 0 5.851 0 8.777 0 0 0 0 0 2.926 0s5.851 0 8.777 0c0 0 0 0 0 0 96.549 2.926 178.469 11.703 222.354 40.96 5.851 2.926 8.777 11.703 8.777 17.554v5.851c0 0 0 0 0 0v8.777c0 0 0 0 0 0v8.777c0 0 0 0 0 0v11.703c0 0 0 0 0 0v23.406c0 0 0 0 2.926 2.926 55.589 55.589-2.926 184.32 2.926 216.503s-8.777 128.731-8.777 128.731c0 2.926 0 5.851 2.926 8.777 17.554-55.589 58.514-134.583 64.366-152.137 8.777-23.406 5.851-90.697-5.851-157.989-8.777-52.663-8.777-93.623-5.851-111.177v0l-14.629-52.663c-2.926-8.777 2.926-14.629 11.703-17.554 8.777-5.851 29.257-11.703 43.886-14.629s35.109-8.777 43.886-8.777c8.777 0 17.554 2.926 17.554 11.703v2.926c0 0 0 0 0 0l2.926 8.777c0 0 0 0 0 0l2.926 11.703c0 0 0 0 0 0l2.926 8.777c0 0 0 0 0 0l2.926 11.703c2.926 2.926 2.926 11.703 2.926 11.703 2.926 2.926 2.926 2.926 5.851 5.851 43.886 46.811 52.663 128.731 67.291 198.949 2.926 64.366-14.629 105.326-11.703 131.657zM687.543 407.040h-134.583v-134.583c0-23.406-17.554-40.96-40.96-40.96s-40.96 17.554-40.96 40.96v134.583h-134.583c-23.406 0-40.96 17.554-40.96 40.96s17.554 40.96 40.96 40.96h134.583v134.583c0 23.406 17.554 40.96 40.96 40.96s40.96-17.554 40.96-40.96v-134.583h134.583c23.406 0 40.96-17.554 40.96-40.96-2.926-23.406-20.48-40.96-40.96-40.96z" />
<glyph unicode="&#xe930;" glyph-name="time" data-tags="time" horiz-adv-x="1248" d="M1248 574.336l-64-0.672v65.344c0 53.024-43.008 96-96 96h-992c-53.024 0-96-42.976-96-96v-352c0-52.992 42.976-96 96-96h127.328l-0.672-30.016h737.344l-0.672 30.016h128.672c52.992 0 96 43.008 96 96v65.984h65.312l-1.312 221.344zM1152 287.008c0-35.328-28.672-64-64-64h-992c-35.328 0-64 28.672-64 64v352c0 35.328 28.672 64 64 64h992c35.328 0 64-28.672 64-64v-352zM1088 671.008h-992c-17.696 0-32-14.304-32-32v-352c0-17.696 14.304-32 32-32h992c17.664 0 32 14.304 32 32v352c0 17.664-14.336 32-32 32zM1031.904 575.552l-25.6-24h-77.792l-21.76 24h125.152zM1002.56 475.552l11.2-11.872-13.44-11.872h-83.584l-10.592 11.872 12.8 11.872h83.616zM901.984 571.328l21.728-24-5.408-64-16.32-15.040-8.32 8.96 8.32 94.080zM694.304 571.328l21.728-24-5.408-64-16.32-15.040-8.32 8.96 8.32 94.080zM794.784 475.552l11.232-11.872-13.472-11.872h-83.488l-10.56 11.872 12.768 11.872h83.52zM374.56 571.328l21.728-24-5.6-64-16.16-15.072-8.224 8.96 8.256 94.112zM475.008 475.552l11.232-11.872-13.44-11.872h-83.616l-10.432 11.872 12.768 11.872h83.488zM296.8 575.552l-25.632-24h-77.76l-21.76 24h125.152zM166.88 571.328l21.76-24-5.632-64-16.16-15.072-8.224 8.96 8.256 94.112zM156.224 450.048l9.6 9.248 13.76-15.008-5.376-64.032-26.176-24 8.192 93.792zM152 351.808l26.24 24h77.632l21.408-24h-125.28zM282.080 356.32l-21.504 23.968 5.376 64.032 16.352 15.008 8-9.248-8.224-93.76zM292.672 477.248l-9.376-8.96-13.92 15.072 5.6 64 25.984 24-8.288-94.112zM363.904 450.048l9.6 9.248 13.76-15.008-5.376-64.032-26.176-23.968 8.192 93.76zM359.648 351.808l26.24 24h77.664l21.408-24h-125.312zM489.76 356.288l-21.44 24 5.408 64 16.352 15.040 8.032-9.248-8.352-93.792zM478.88 551.552h-77.76l-21.792 24h125.12l-25.568-24zM594.4 351.808h-24l2.208 24h24l-2.208-24zM608.48 514.304h-24l2.24 24h24l-2.24-24zM679.584 351.808l25.92 24h77.76l21.44-24h-125.12zM809.504 356.32l-21.472 23.968 5.44 64 16.352 15.040 8-9.248-8.32-93.76zM798.624 551.552h-77.76l-21.792 24h125.12l-25.568-24zM887.264 351.808l25.952 24h77.76l21.44-24h-125.152zM1017.184 356.32l-21.504 23.968 5.376 64.032 16.352 15.008 8-9.248-8.224-93.76zM1027.808 477.248l-9.408-8.96-13.92 15.072 5.632 64 25.984 24-8.288-94.112z" />
<glyph unicode="&#xe931;" glyph-name="tippes" data-tags="tippes" d="M87.771 316.343l29.257-2.926 819.2 70.217c40.96 2.926 58.514 20.48 70.217 38.034s14.629 38.034 14.629 49.737v178.469c-5.851-5.851-11.703-11.703-20.48-17.554 0 0 0-2.926 0-2.926v-67.291c0 0 0 0 0 0 0-11.703-11.703-23.406-23.406-23.406s-23.406 11.703-23.406 23.406v46.811c-5.851 0-11.703-2.926-17.554-2.926l-49.737-2.926v-52.663c0 0 0 0 0 0 0-11.703-11.703-23.406-23.406-23.406s-23.406 11.703-23.406 23.406v49.737l-67.291-5.851v-122.88c0 0 0 0 0 0 0-11.703-11.703-23.406-23.406-23.406s-23.406 11.703-23.406 23.406v117.029l-67.291-5.851v-55.589c0 0 0 0 0 0 0-11.703-11.703-23.406-23.406-23.406s-23.406 11.703-23.406 23.406v52.663l-55.589-5.851v-58.514c0 0 0 0 0 0 0-11.703-11.703-23.406-23.406-23.406s-23.406 11.703-23.406 23.406v55.589l-67.291-5.851v-128.731c0 0 0 0 0 0 0-11.703-11.703-23.406-23.406-23.406s-23.406 11.703-23.406 23.406v122.88l-67.291-5.851v-61.44c0 0 0 0 0 0 0-11.703-11.703-23.406-23.406-23.406s-23.406 11.703-23.406 23.406v58.514l-67.291-5.851v-64.366c0 0 0 0 0 0 0-11.703-11.703-23.406-23.406-23.406s-23.406 11.703-23.406 23.406v58.514l-67.291-5.851v-128.731c0 0 0 0 0 0 0-11.703-11.703-23.406-23.406-23.406s-23.406 11.703-23.406 23.406v122.88c-26.331-8.777-40.96-23.406-52.663-35.109 2.926-17.554 0-35.109 0-46.811v-17.554c0 0 0 0 0-2.926 0-11.703 2.926-38.034 17.554-61.44s32.183-40.96 70.217-46.811zM1000.594 170.057v-58.514c0 0 0 0 0 0 0-11.703-11.703-23.406-23.406-23.406s-23.406 11.703-23.406 23.406v64.366l-67.291 5.851v-58.514c0 0 0 0 0 0 0-11.703-11.703-23.406-23.406-23.406s-23.406 11.703-23.406 23.406v61.44l-67.291 8.777v-122.88c0 0 0 0 0 0 0-11.703-11.703-23.406-23.406-23.406s-23.406 11.703-23.406 23.406v128.731l-67.291 8.777v-52.663c0 0 0 0 0 0 0-11.703-11.703-23.406-23.406-23.406s-23.406 11.703-23.406 23.406v58.514l-55.589 5.851v-52.663c0 0 0 0 0 0 0-11.703-11.703-23.406-23.406-23.406s-23.406 11.703-23.406 23.406v58.514l-67.291 5.851v-117.029c0 0 0 0 0 0 0-11.703-11.703-23.406-23.406-23.406s-23.406 11.703-23.406 23.406v122.88l-67.291 5.851v-46.811c0 0 0 0 0 0 0-11.703-11.703-23.406-23.406-23.406s-23.406 11.703-23.406 23.406v52.663l-67.291 8.777v-43.886c0 0 0 0 0 0 0-11.703-11.703-23.406-23.406-23.406s-23.406 11.703-23.406 23.406v49.737l-49.737 2.926h-5.851v-111.177c0 0 0 0 0 0 0-11.703-11.703-23.406-23.406-23.406s-23.406 11.703-23.406 23.406v117.029c-29.257 8.777-49.737 26.331-67.291 43.886v-163.84c0 0 0-2.926 0-2.926v-17.554c0-11.703 2.926-32.183 14.629-46.811 11.703-17.554 32.183-32.183 73.143-40.96l939.154-108.251v231.131l-23.406 2.926zM825.051 641.097v0l108.251 8.777c40.96 2.926 58.514 23.406 70.217 46.811s14.629 49.737 14.629 64.366c0 2.926 0 5.851 0 5.851s0 0 0 0c0 11.703-5.851 23.406-14.629 38.034-2.926 2.926-5.851 5.851-5.851 8.777v-32.183c0 0 0 0 0 0 0-11.703-11.703-23.406-23.406-23.406s-23.406 11.703-23.406 23.406v61.44c-5.851 2.926-11.703 5.851-20.48 5.851h-2.926l-43.886 5.851v-58.514c0 0 0 0 0 0 0-11.703-11.703-23.406-23.406-23.406s-23.406 11.703-23.406 23.406v64.366l-67.291 8.777v-125.806c0 0 0 0 0 0 0-11.703-11.703-23.406-23.406-23.406s-23.406 11.703-23.406 23.406v128.731l-67.291 8.777v-55.589c0 0 0 0 0 0 0-11.703-11.703-23.406-23.406-23.406s-23.406 11.703-23.406 23.406v61.44l-52.663 8.777v-55.589c0 0 0 0 0 0 0-14.629-8.777-26.331-20.48-26.331s-23.406 11.703-23.406 23.406v61.44l-67.291 8.777v-122.88c0 0 0 0 0 0 0-11.703-11.703-23.406-23.406-23.406s-23.406 11.703-23.406 23.406v128.731l-67.291 8.777v-52.663c0 0 0 0 0 0 0-11.703-11.703-23.406-23.406-23.406s-23.406 11.703-23.406 23.406v58.514l-61.44 5.851v-49.737c0 0 0 0 0 0 0-11.703-11.703-23.406-23.406-23.406s-23.406 11.703-23.406 23.406v55.589l-64.366 5.851v-117.029c0 0 0 0 0 0 0-11.703-11.703-23.406-23.406-23.406s-23.406 11.703-23.406 23.406v122.88l-64.366 8.777v-216.503l825.051-102.4c0 0 0 0 0 0z" />
<glyph unicode="&#xe932;" glyph-name="cookie-bite-solid" data-tags="cookie-bite-solid" d="M1021.040 448.36c-139.94 1.7-252.94 115.38-252.94 255.72-140.34 0-254 112.98-255.72 252.9-54.52 8.28-110.26-0.6-159.44-25.64l-138.26-70.44c-50-25.853-89.743-65.609-114.886-114.147l-0.694-1.473-70.2-137.76c-18.218-35.021-28.903-76.471-28.903-120.417 0-14.645 1.187-29.014 3.469-43.014l-0.206 1.53 24.16-152.54c9.328-57.484 35.972-107.553 74.321-145.921l109.539-109.519c38.228-38.24 88.127-64.812 143.896-73.915l1.524-0.205 153.42-24.3c55.020-8.72 111.4 0.22 161.060 25.52l138.26 70.42c49.996 25.859 89.737 65.613 114.886 114.147l0.694 1.473 70.2 137.76c25.12 49.28 34.020 105.16 25.82 159.82zM352 224c-35.34 0-64 28.66-64 64s28.66 64 64 64 64-28.66 64-64-28.66-64-64-64zM416 544c-35.34 0-64 28.66-64 64s28.66 64 64 64 64-28.66 64-64-28.66-64-64-64zM736 288c-35.34 0-64 28.66-64 64s28.66 64 64 64 64-28.66 64-64-28.66-64-64-64z" />
<glyph unicode="&#xe933;" glyph-name="book-solid" data-tags="book-solid" horiz-adv-x="896" d="M896 240v672c0 26.6-21.4 48-48 48h-656c-106 0-192-86-192-192v-640c0-106 86-192 192-192h656c26.6 0 48 21.4 48 48v32c0 15-7 28.6-17.8 37.4-8.4 30.8-8.4 118.6 0 149.4 10.8 8.6 17.8 22.2 17.8 37.2zM256 692c0 6.6 5.4 12 12 12h424c6.6 0 12-5.4 12-12v-40c0-6.6-5.4-12-12-12h-424c-6.6 0-12 5.4-12 12v40zM256 564c0 6.6 5.4 12 12 12h424c6.6 0 12-5.4 12-12v-40c0-6.6-5.4-12-12-12h-424c-6.6 0-12 5.4-12 12v40zM762.8 64h-570.8c-35.4 0-64 28.6-64 64 0 35.2 28.8 64 64 64h570.8c-3.8-34.2-3.8-93.8 0-128z" />
<glyph unicode="&#xe934;" glyph-name="star-solid" data-tags="star-solid" horiz-adv-x="1152" d="M518.6 924.4l-130.6-264.8-292.2-42.6c-52.4-7.6-73.4-72.2-35.4-109.2l211.4-206-50-291c-9-52.6 46.4-92 92.8-67.4l261.4 137.4 261.4-137.4c46.4-24.4 101.8 14.8 92.8 67.4l-50 291 211.4 206c38 37 17 101.6-35.4 109.2l-292.2 42.6-130.6 264.8c-23.4 47.2-91.2 47.8-114.8 0z" />
<glyph unicode="&#xe935;" glyph-name="play-solid" data-tags="play-solid" horiz-adv-x="896" d="M848.8 530.6l-704 416.2c-57.2 33.8-144.8 1-144.8-82.6v-832.2c0-75 81.4-120.2 144.8-82.6l704 416c62.8 37 63 128.2 0 165.2z" />
<glyph unicode="&#xe936;" glyph-name="play-circle-solid" data-tags="play-circle-solid" d="M512 944c-274 0-496-222-496-496s222-496 496-496 496 222 496 496-222 496-496 496zM743.4 400l-352-202c-31.6-17.6-71.4 5-71.4 42v416c0 36.8 39.6 59.6 71.4 42l352-214c32.8-18.4 32.8-65.8 0-84z" />
<glyph unicode="&#xe937;" glyph-name="map-marker-alt-solid" data-tags="map-marker-alt-solid" horiz-adv-x="768" d="M344.536-43.34c-290.596 421.278-344.536 464.514-344.536 619.34 0 212.078 171.922 384 384 384s384-171.922 384-384c0-154.826-53.94-198.062-344.536-619.34-19.070-27.548-59.86-27.546-78.928 0zM384 416c88.366 0 160 71.634 160 160s-71.634 160-160 160-160-71.634-160-160 71.634-160 160-160z" />
<glyph unicode="&#xe938;" glyph-name="heart-solid" data-tags="heart-solid" d="M924.6 834.8c-109.6 93.4-272.6 76.6-373.2-27.2l-39.4-40.6-39.4 40.6c-100.4 103.8-263.6 120.6-373.2 27.2-125.6-107.2-132.2-299.6-19.8-415.8l387-399.6c25-25.8 65.6-25.8 90.6 0l387 399.6c112.6 116.2 106 308.6-19.6 415.8z" />
<glyph unicode="&#xe939;" glyph-name="thumbs-up-solid" data-tags="thumbs-up-solid" d="M208 512h-160c-26.51 0-48-21.49-48-48v-480c0-26.51 21.49-48 48-48h160c26.51 0 48 21.49 48 48v480c0 26.51-21.49 48-48 48zM128 16c-26.51 0-48 21.49-48 48s21.49 48 48 48 48-21.49 48-48-21.49-48-48-48zM768 797.096c0-84.832-51.94-132.416-66.554-189.096h203.446c66.794 0 118.794-55.492 119.106-116.196 0.168-35.876-15.092-74.498-38.878-98.394l-0.22-0.22c19.672-46.674 16.474-112.074-18.616-158.938 17.362-51.79-0.138-115.408-32.764-149.514 8.596-35.196 4.488-65.15-12.296-89.264-40.82-58.648-141.992-59.474-227.546-59.474l-5.69 0.002c-96.574 0.034-175.612 35.196-239.12 63.45-31.914 14.198-73.642 31.774-105.302 32.356-13.080 0.24-23.566 10.914-23.566 23.996v427.54c0 6.4 2.564 12.542 7.116 17.042 79.228 78.288 113.296 161.174 178.234 226.222 29.608 29.664 40.376 74.472 50.786 117.804 8.894 37.002 27.498 115.588 67.864 115.588 48 0 144-16 144-162.904z" />
<glyph unicode="&#xe93a;" glyph-name="teamspeak-brands" data-tags="teamspeak-brands" horiz-adv-x="1022" d="M1.64 484.36c4.72 31.040 21.38 54.080 49.76 68.060 7 3.7 11.3 7 12.74 15.62 12.34 66.82 39.060 127.88 78.74 183.18 4.72 6.38 8.020 10.7 2.060 18.7-7.4 10.7-2.060 20.36 5.96 28.98 56.12 63.74 123.76 110.2 203.96 134.88 191.62 58.8 360.2 18.7 504.74-120.9 13.36-12.74 31.040-25.7 13.98-48.72-2.68-3.7 2.060-7 4.32-10.080 41.32-56.12 68.46-118.84 80.8-187.3 1.64-7.4 5.96-10.080 11.72-12.74 34.74-17.68 51.4-46.68 52.020-84.5 0-34.34 3.7-69.080-2.060-103.42-8.020-49.34-58.38-83.48-106.5-73.4-14.4 3.28-18.7 14.4-18.7 28.38 0 56.12 1.64 112.88 0 169.2-3.7 151.52-72.36 265.62-204.56 338.82-222.060 120.92-506.4-13.96-555.54-262.94-12.12-60.84-3.48-96.54-7.4-251.64-0.62-14.4-8.64-22.4-24.060-23.020-61.68-2.68-103.62 36.38-103.62 98.060v41.74zM443.48 217.7c23.64 8.64 40.1 23.64 45.020 48.72 4.72 24.68-24.060 60.040-64.76 97.46-41.74 38.44-96.44 78.12-126.86 93.14-43.38 24.060-83.48 3.7-92.52-45.44-10.080-52.42 0-102.8 28.98-147.82 20.36-31.040 50.78-45.44 86.76-48.1 23.24-1.24 105.080-4.32 123.38 2.040zM703.14 206.6c73-5.62 118.66 57.1 116.78 120.9-4.28 90.34-132.34 32.96-175.58 16.040-146.32-56.28-90.1-109.84-44.4-121.5zM898.46 224.7c-5.96 4.72-14.4 2.060-16.66-4.72-16.040-50.78-89.44-224.92-344.16-243.020-299.34-20.98 160.58-87.18 290.72 12.74 45.44 34.74 95.2 70.1 93.14 170.86-0.64 20.14-9.68 53.44-23.040 64.14z" />
<glyph unicode="&#xe93b;" glyph-name="eye-solid" data-tags="eye-solid" horiz-adv-x="1152" d="M1138.708 496.738c-112.77 191.364-323.088 319.262-562.708 319.262-239.72 0-449.992-127.988-562.708-319.262-8.353-13.945-13.293-30.765-13.293-48.739s4.94-34.794 13.536-49.177l-0.243 0.438c112.77-191.362 323.088-319.26 562.708-319.26 239.72 0 449.992 127.988 562.708 319.262 8.353 13.945 13.293 30.764 13.293 48.738s-4.94 34.794-13.536 49.176l0.243-0.438zM576 176c-150.324 0-272 121.654-272 272 0 150.324 121.652 272 272 272 150.324 0 272-121.652 272-272 0-150.324-121.652-272-272-272zM784 448c0-114.876-93.124-208-208-208s-208 93.124-208 208c0 35.416 8.862 68.758 24.472 97.946l-0.002-0.064c0-47.302 38.346-85.646 85.648-85.646s85.648 38.346 85.648 85.646c0 47.302-38.346 85.648-85.648 85.648l-0.064-0.002c29.188 15.61 62.53 24.472 97.946 24.472 114.876 0 208-93.124 208-208z" />
<glyph unicode="&#xe93c;" glyph-name="plus-circle-solid" data-tags="plus-circle-solid" d="M512 944c-274 0-496-222-496-496s222-496 496-496 496 222 496 496-222 496-496 496zM800 392c0-13.2-10.8-24-24-24h-184v-184c0-13.2-10.8-24-24-24h-112c-13.2 0-24 10.8-24 24v184h-184c-13.2 0-24 10.8-24 24v112c0 13.2 10.8 24 24 24h184v184c0 13.2 10.8 24 24 24h112c13.2 0 24-10.8 24-24v-184h184c13.2 0 24-10.8 24-24v-112z" />
<glyph unicode="&#xe93d;" glyph-name="youtube-play" data-tags="youtube-play" d="M406.286 306.286l276.571 142.857-276.571 144.571v-287.429zM512 798.857c215.429 0 358.286-10.286 358.286-10.286 20-2.286 64-2.286 102.857-43.429 0 0 31.429-30.857 40.571-101.714 10.857-82.857 10.286-165.714 10.286-165.714v-77.714s0.571-82.857-10.286-165.714c-9.143-70.286-40.571-101.714-40.571-101.714-38.857-40.571-82.857-40.571-102.857-42.857 0 0-142.857-10.857-358.286-10.857v0c-266.286 2.286-348 10.286-348 10.286-22.857 4-74.286 2.857-113.143 43.429 0 0-31.429 31.429-40.571 101.714-10.857 82.857-10.286 165.714-10.286 165.714v77.714s-0.571 82.857 10.286 165.714c9.143 70.857 40.571 101.714 40.571 101.714 38.857 41.143 82.857 41.143 102.857 43.429 0 0 142.857 10.286 358.286 10.286v0z" />
<glyph unicode="&#xe93e;" glyph-name="c12df795cf59d4fc5a34028d11c0ed5" data-tags="c12df795cf59d4fc5a34028d11c0ed5" d="M759.501 904.806c-3.195-0.799-9.574-3.389-13.967-5.786-4.792-2.396-51.681-47.892-115.732-111.944l-107.745-107.95h-250.419c-193.751-0.195-251.218-0.594-253.614-2.591-6.984-5.192-7.782-10.772-7.782-48.292 0-48.087 1.198-50.678 24.545-50.883 7.383 0 13.373-0.799 13.373-1.597 0-8.98 60.457-420.424 62.659-426.609 7.383-20.951 23.142-37.908 45.097-48.486l14.961-7.178 312.484-1.188 6.185 6.185c4.987 5.192 5.786 7.178 4.792 12.575-0.799 3.594-2.99 8.182-5.386 10.373-3.789 3.994-7.188 3.994-158.034 4.987-172.595 1.198-161.423 0.195-176.794 15.964-4.393 4.588-9.38 11.971-10.977 16.558-2.396 6.185-61.061 407.654-61.061 417.034 0 0.799 185.774 1.393 413.041 1.393 333.425 0 413.041-0.399 413.041-2.591 0-1.393-3.195-23.941-6.984-50.289-3.789-26.337-6.984-50.483-6.984-53.473 0-7.383 7.977-15.36 15.77-15.36 3.389 0 8.376 1.997 11.172 4.588 4.987 4.188 5.786 7.188 13.169 58.266 4.188 29.532 8.182 54.876 8.581 56.269 0.799 1.792 4.987 2.591 12.974 2.591 23.347 0 24.146 1.792 24.146 50.883 0 37.509-0.799 43.1-7.782 48.292-2.396 1.792-37.509 2.396-149.258 2.591-80.415 0-146.258 0.594-146.258 1.597 0 0.799 31.13 32.328 69.038 70.236 76.82 76.626 79.421 80.015 79.421 101.765 0 21.944-11.377 39.905-30.331 48.292-9.8 4.383-26.358 6.175-35.338 3.779zM782.254 869.683c6.779-3.389 10.977-12.575 9.38-20.357-0.993-4.188-34.314-38.707-117.524-121.917l-116.326-116.326-54.682 1.188 130.294 130.294c119.327 119.327 130.693 130.099 136.684 130.099 3.594 0.020 9.175-1.382 12.175-2.98zM471.173 628.244l-16.957-16.957h-410.051v33.915h443.976l-16.968-16.957zM946.074 628.244v-16.957h-340.214l33.915 33.915h306.299v-16.957zM174.264 468.419c-6.984-4.792-8.776-11.776-5.591-19.558 4.393-10.373 9.574-11.571 52.879-10.772l38.513 0.594 4.792 5.591c6.185 7.383 6.185 16.169-0.195 22.344-4.792 4.987-4.987 4.987-45.292 4.987-33.935 0.010-41.318-0.594-45.107-3.185zM310.548 466.627c-6.789-6.584-6.789-16.558 0.195-23.142 4.987-4.588 6.185-4.792 40.305-5.386 39.311-0.799 46.694 0 52.48 5.786 5.591 5.591 4.987 16.763-1.198 22.743-4.792 4.987-4.987 4.987-45.896 4.987s-41.103 0-45.885-4.987zM449.618 467.62c-8.776-8.182-6.984-21.955 3.594-27.341 6.984-3.594 76.82-3.594 83.804 0 10.578 5.386 12.37 19.159 3.594 27.341-3.994 3.789-6.984 3.994-45.496 3.994s-41.503-0.205-45.496-3.994zM587.899 466.627c-6.185-5.99-6.789-17.162-1.198-22.743 8.182-8.182 32.727-8.182 41.298 0 6.584 6.185 6.584 16.159-0.195 22.743-4.188 4.393-6.584 4.987-19.958 4.987-13.363 0-15.759-0.604-19.948-4.987zM762.092 435.692c-88.791-11.172-163.215-74.824-187.965-160.225-22.948-79.012-0.799-164.424 57.672-221.891 27.341-26.941 63.652-47.688 101.765-58.061 18.36-4.987 22.948-5.386 55.869-5.386 32.727 0 37.714 0.399 55.869 5.192 11.776 3.195 29.932 10.373 43.899 17.357 119.122 59.259 160.43 205.322 90.388 319.457-11.971 19.558-45.896 54.671-64.451 66.642-37.509 24.545-74.23 36.321-117.719 37.919-11.971 0.399-27.935 0-35.328-1.004zM832.338 398.776c40.509-9.779 76.227-31.724 102.758-63.058 20.552-24.146 34.724-53.678 41.308-85.207 5.591-27.136 4.188-63.652-3.195-89.19-17.961-60.252-61.46-106.947-119.122-127.498-25.743-9.175-44.503-11.971-74.025-10.578-71.434 2.99-131.697 43.5-163.42 109.742-13.373 28.14-16.558 43.5-16.558 80.21 0.205 36.721 3.195 51.282 16.558 80.015 10.977 23.142 22.344 38.707 43.5 58.665 27.136 25.743 58.665 41.708 96.174 48.886 18.555 3.604 57.457 2.601 76.022-1.987zM869.048 305.992c-2.191-0.799-26.542-33.526-53.873-72.632-27.341-38.912-50.678-70.84-51.681-71.035-1.198 0-6.984 4.987-12.974 11.172-23.747 24.146-41.708 38.707-48.087 38.707-8.376 0-15.759-7.782-15.759-16.957 0-6.39 2.191-9.175 25.539-31.529 40.909-39.711 47.493-45.292 54.272-45.292 3.195 0 7.977 1.997 10.772 4.588 2.591 2.396 29.532 39.711 59.863 83.005 55.071 78.418 57.661 83.005 53.873 92.979-1.403 3.389-10.977 8.98-15.165 8.776-1.393 0.020-4.383-0.778-6.779-1.782zM173.261 363.858c-2.591-2.191-5.591-6.185-6.185-8.98-1.597-6.584 3.594-16.558 9.974-18.954 7.782-2.99 76.626-2.396 82.606 0.594 10.772 5.386 12.575 18.76 3.994 27.341-3.789 3.789-6.789 3.994-44.698 3.994-37.509 0-40.899-0.399-45.691-3.994zM310.548 362.865c-6.789-6.584-6.789-16.558 0.195-23.142 4.987-4.588 6.185-4.792 42.301-5.386 20.357-0.399 39.107-0.195 41.708 0.594 12.974 3.195 17.357 20.756 7.383 28.733-4.987 3.994-7.782 4.188-46.090 4.188-40.509 0-40.714 0-45.496-4.987zM449.618 363.858c-5.786-5.386-7.383-12.575-3.994-19.159 4.588-9.779 9.574-10.977 43.1-10.373l30.73 0.594 4.792 5.591c6.185 7.383 6.185 16.169-0.195 22.354-4.792 4.987-5.386 4.987-37.509 4.987-29.942 0-32.932-0.399-36.925-3.994zM172.667 259.308c-7.188-5.99-7.782-17.162-1.198-23.747 4.393-4.188 6.185-4.393 43.899-4.987 42.506-0.594 46.694 0.195 52.081 9.779 3.389 5.99 1.792 14.162-3.789 19.753-3.789 3.789-6.789 3.994-44.698 3.994-40.11-0.010-40.909-0.010-46.295-4.792zM310.548 259.103c-8.376-8.182-6.185-20.951 4.393-26.542 6.789-3.789 77.025-3.195 84.204 0.594 9.779 4.987 11.377 17.961 3.195 25.938-4.792 4.987-4.987 4.987-45.896 4.987s-41.114 0.010-45.896-4.977zM448.819 258.109c-4.987-5.192-5.786-7.178-4.792-12.575 2.396-11.571 7.188-14.367 25.139-14.367 17.961 0 22.743 2.796 25.139 14.367 0.993 5.386 0.205 7.383-4.792 12.575-5.591 5.591-7.188 5.99-20.357 5.99-13.148-0.010-14.746-0.41-20.337-5.99z" />
<glyph unicode="&#xe93f;" glyph-name="SaveClose-595b40b75ba036ed117d8ec5" data-tags="Save Close-595b40b75ba036ed117d8ec5" d="M144 864c-26.4 0-48-21.6-48-48v-736c0-26.4 21.6-48 48-48h496.812c36.96-57.76 101.588-96 175.188-96 114.72 0 208 93.28 208 208 0 73.6-38.24 138.228-96 175.188v358.25c0 21.44-8.335 41.456-23.375 56.656l-106.531 106.531c-15.2 15.040-35.216 23.375-56.656 23.375h-597.438zM144 832h80v-240c0-26.464 21.536-48 48-48h416c26.464 0 48 21.536 48 48v240h5.438c12.64 0 25.138-5.134 33.938-14.094l106.531-106.531c9.12-8.96 14.094-21.138 14.094-33.938v-341.438c-24.64 10.24-51.68 16-80 16-5.44 0-10.72-0.172-16-0.812v80.812c0 26.4-21.6 48-48 48h-480c-26.4 0-48-21.6-48-48v-368h-80c-8.8 0-16 7.2-16 16v736c0 8.8 7.2 16 16 16zM256 832h448v-240c0-8.816-7.184-16-16-16h-416c-8.816 0-16 7.184-16 16v240zM624 800c-26.464 0-48-21.536-48-48v-96c0-26.464 21.536-48 48-48s48 21.536 48 48v96c0 26.464-21.536 48-48 48zM624 768c8.816 0 16-7.184 16-16v-96c0-8.816-7.184-16-16-16s-16 7.184-16 16v96c0 8.816 7.184 16 16 16zM272 448h480c8.8 0 16-7.2 16-16v-85.594c-91.68-21.76-160-104.166-160-202.406 0-28.32 5.76-55.36 16-80h-368v368c0 8.8 7.2 16 16 16zM336 384c-8.832 0-16-7.168-16-16s7.168-16 16-16h224c8.832 0 16 7.168 16 16s-7.168 16-16 16h-224zM624 384c-8.832 0-16-7.168-16-16s7.168-16 16-16h64c8.832 0 16 7.168 16 16s-7.168 16-16 16h-64zM336 320c-8.832 0-16-7.168-16-16s7.168-16 16-16h288c8.832 0 16 7.168 16 16s-7.168 16-16 16h-288zM816 320c28.8 0 56-6.868 80-19.188 11.36-5.76 22.080-12.809 32-20.969 39.040-32.32 64-81.284 64-135.844 0-97.12-78.88-176-176-176-54.56 0-103.524 24.96-135.844 64-8.16 9.92-15.209 20.64-20.969 32-12.32 24-19.188 51.2-19.188 80 0 80.48 54.24 148.481 128 169.281 10.4 3.040 21.12 4.946 32 5.906 5.28 0.48 10.56 0.812 16 0.812zM912 224c-4.092 0-8.184-1.56-11.312-4.688l-116.688-116.688-52.688 52.688c-6.256 6.256-16.369 6.256-22.625 0s-6.256-16.369 0-22.625l64-64c3.12-3.12 7.216-4.688 11.312-4.688s8.192 1.568 11.312 4.688l128 128c6.256 6.256 6.256 16.369 0 22.625-3.128 3.128-7.22 4.688-11.312 4.688zM304 192c-8.832 0-16-7.168-16-16v-32c0-8.832 7.168-16 16-16s16 7.168 16 16v32c0 8.832-7.168 16-16 16zM384 192c-8.832 0-16-7.168-16-16v-32c0-8.832 7.168-16 16-16s16 7.168 16 16v32c0 8.832-7.168 16-16 16zM464 192c-8.832 0-16-7.168-16-16v-32c0-8.832 7.168-16 16-16s16 7.168 16 16v32c0 8.832-7.168 16-16 16zM544 192c-8.832 0-16-7.168-16-16v-32c0-8.832 7.168-16 16-16s16 7.168 16 16v32c0 8.832-7.168 16-16 16z" />
<glyph unicode="&#xe940;" glyph-name="graphic-design-svgrepo-com" data-tags="graphic-design-svgrepo-com" d="M1006.933 960h-989.867c-10.24 0-17.067-6.827-17.067-17.067v-785.067c0-10.24 6.827-17.067 17.067-17.067h375.467v-170.667h-51.2v-34.133h341.333v34.133h-51.2v170.667h375.467c10.24 0 17.067 6.827 17.067 17.067v785.067c0 10.24-6.827 17.067-17.067 17.067zM597.333-29.867h-170.667v170.667h170.667v-170.667zM989.867 174.933h-955.733v136.533h955.733v-136.533zM576.853 681.813l-49.493 129.707c-1.707 5.12-8.533 10.24-15.36 10.24s-13.653-3.413-15.36-10.24l-49.493-129.707c-1.707-3.413-3.413-6.827-3.413-11.947v-324.267h-341.333v512h819.2v-512h-341.333v324.267c0 5.12-1.707 8.533-3.413 11.947zM484.693 686.933l25.6 71.68 27.307-71.68h-52.907zM494.933 652.8v-307.2h-17.067v307.2h17.067zM529.067 652.8h17.067v-307.2h-17.067v307.2zM989.867 345.6h-34.133v529.067c0 10.24-6.827 17.067-17.067 17.067h-853.333c-10.24 0-17.067-6.827-17.067-17.067v-529.067h-34.133v580.267h955.733v-580.267zM870.4 533.333v136.533c0 10.24-6.827 17.067-17.067 17.067h-204.8v-85.333h34.133v51.2h68.267v-51.2h34.133v51.2h51.2v-102.4h-187.733v-34.133h204.8c10.24 0 17.067 6.827 17.067 17.067zM153.6 669.867v-136.533c0-10.24 6.827-17.067 17.067-17.067h204.8v34.133h-187.733v102.4h51.2v-51.2h34.133v51.2h68.267v-51.2h34.133v85.333h-204.8c-10.24 0-17.067-6.827-17.067-17.067zM204.8 482.133h34.133v-34.133h-34.133v34.133zM273.067 482.133h34.133v-34.133h-34.133v34.133zM341.333 482.133h34.133v-34.133h-34.133v34.133zM648.533 482.133h34.133v-34.133h-34.133v34.133zM716.8 482.133h34.133v-34.133h-34.133v34.133zM785.067 482.133h34.133v-34.133h-34.133v34.133zM648.533 755.2h34.133v-34.133h-34.133v34.133zM716.8 755.2h34.133v-34.133h-34.133v34.133zM785.067 755.2h34.133v-34.133h-34.133v34.133zM204.8 755.2h34.133v-34.133h-34.133v34.133zM273.067 755.2h34.133v-34.133h-34.133v34.133zM341.333 755.2h34.133v-34.133h-34.133v34.133z" />
<glyph unicode="&#xe941;" glyph-name="jacket1" data-tags="jacket" horiz-adv-x="1168" d="M1160.504 471.921l-167.387 272.177c-3.998 6.466-9.713 11.531-16.512 14.633l-0.235 0.096-68.628 30.804c-0.092 0-0.158 0.132-0.251 0.172l-133.904 55.866-13.607 23.109c-3.222 5.249-6.636 9.8-10.423 14.009l0.076-0.086-0.106 0.119c-2.508 2.877-5.055 5.715-7.826 8.631-2.777 2.931-5.012 6.408-6.524 10.249l-0.075 0.217c-15.085 39.092-31.345 58.070-49.69 58.070l-1.821-0.132-0.462-0.066c-0.785-0.040-1.521-0.149-2.234-0.32l0.082 0.017c-26.764-4.050-58.293-6.754-90.307-7.493l-0.889-0.016c-32.926 0.762-64.467 3.471-95.407 8.027l4.171-0.504c-0.601 0.145-1.306 0.249-2.027 0.289l-0.031 0.001-0.515 0.079-1.821 0.132c-18.318 0-34.578-19.005-49.69-58.070-1.632-4.227-3.983-7.842-6.935-10.868l0.006 0.006c-6.587-6.32-12.361-13.403-17.204-21.131l-0.269-0.461-13.805-23.558-145.36-55.985c-0.106 0-0.185-0.145-0.29-0.185s-0.224 0-0.33-0.079l-68.628-30.83c-7.050-3.192-12.779-8.259-16.695-14.568l-0.093-0.16-167.374-272.164c-4.699-7.538-7.484-16.689-7.484-26.491 0-1.681 0.082-3.343 0.242-4.982l-0.016 0.208 22.858-235.514c0.806-8.203 4.116-15.511 9.145-21.28l-0.039 0.045 10.268-70.687c0.821-6.068 5.968-10.696 12.195-10.696 0.647 0 1.283 0.050 1.903 0.146l-0.069-0.009c16.2 2.165 34.929 3.401 53.946 3.401s37.746-1.236 56.11-3.632l-2.164 0.231c0.581-0.101 1.251-0.158 1.933-0.158 0.007 0 0.014 0 0.021 0h-0.001c6.154 0.004 11.262 4.48 12.251 10.353l0.010 0.073 11.073 67.85c0.066 0.079 0.119 0.185 0.185 0.264l0.145 0.198c7.454 8.792 12.078 20.189 12.352 32.659l0.001 0.058 5.279 275.371 36.716-4.962c-1.531-56.315-6.506-304.010 19.599-425.205l12.366-112.181c0.708-6.255 5.968-11.070 12.353-11.073h589.029c6.385 0.002 11.645 4.818 12.348 11.016l0.005 0.057 11.759 106.743c1.072 1.336 1.877 2.934 2.305 4.681l0.017 0.084c3.867 17.777 7.048 38.273 10.136 64.59 14.755 125.299 10.915 313.249 9.608 361.354l36.571 4.936 5.279-275.371c0.263-12.732 5.019-24.306 12.74-33.246l-0.057 0.067 4.804-29.497c-0.018-0.248-0.029-0.537-0.029-0.828 0-0.771 0.073-1.525 0.212-2.256l-0.012 0.075c0.092-0.37 0.356-0.647 0.488-1.003l5.609-34.314c0.999-5.947 6.107-10.422 12.26-10.426v0c0.004 0 0.009 0 0.015 0 0.685 0 1.356 0.058 2.009 0.168l-0.070-0.010c16.202 2.167 34.933 3.403 53.952 3.403s37.751-1.237 56.117-3.634l-2.164 0.231c0.54-0.084 1.164-0.132 1.798-0.132 6.231 0 11.382 4.623 12.21 10.626l0.007 0.064 10.255 70.687c4.987 5.722 8.296 13.024 9.094 21.064l0.013 0.158 22.779 235.487c0.144 1.43 0.226 3.090 0.226 4.769 0 9.785-2.781 18.92-7.595 26.658l0.124-0.214zM745 845.259l6.177-10.558c0.158-2.362 0.264-4.738 0.264-7.14 0-46.575-28.877-79.186-85.944-97.333 36.535 29.356 64.142 68.434 79.011 113.316l0.492 1.715zM710.224 897.205c0.581-1.439 1.161-2.706 1.755-4.236 2.799-7.24 6.777-13.443 11.756-18.686l-0.023 0.024c0.937-0.977 1.703-1.9 2.64-2.851-12.163-50.955-40.623-93.946-79.461-124.257l-0.491-0.369 0.528 0.937c7.246 12.947 18.186 32.506 34.776 64.194 14.276 24.562 24.348 53.361 28.394 84.059l0.126 1.172zM500.379 934.159c26.311-3.868 57.238-6.405 88.634-7.023l0.754-0.012c32.183 0.634 63.136 3.174 93.506 7.522l-4.039-0.474c5.437-8.46 15.257-34.578-10.756-92.384-23.784 3.908-51.194 6.141-79.127 6.141-27.66 0-54.809-2.19-81.282-6.406l2.92 0.383c-25.749 57.463-16.141 83.568-10.545 92.265zM455.151 873.449c5.325 5.388 9.565 11.863 12.355 19.059l0.13 0.381c0.594 1.531 1.175 2.811 1.755 4.25 4.181-31.887 14.266-60.698 29.153-86.38l-0.593 1.109c16.59-31.675 27.531-51.247 34.776-64.194l0.172-0.304c-39.020 30.738-67.232 73.65-78.963 122.949l-0.302 1.506c0.568 0.581 1.095 1.148 1.584 1.689zM428.504 834.701l6.454 10.981c15.379-46.909 43.174-86.239 79.511-115.346l0.481-0.372c-57.595 18.107-86.709 50.825-86.709 97.663 0.013 2.376 0.106 4.738 0.264 7.074zM155.931 128.991c-13.28 1.381-28.693 2.169-44.291 2.169-16.339 0-32.477-0.865-48.369-2.551l1.978 0.17-1.887 12.973c14.435 2.755 31.038 4.33 48.009 4.33 16.498 0 32.648-1.489 48.323-4.34l-1.639 0.247zM162.055 166.512c-15.274 2.847-32.848 4.475-50.802 4.475-18.191 0-35.992-1.672-53.258-4.87l1.791 0.276-2.059 14.188c15.97 3.956 34.303 6.225 53.167 6.225 18.964 0 37.392-2.294 55.022-6.618l-1.578 0.327zM257.501 507.806l-49.65 6.704v158.162c0 6.863-5.563 12.426-12.426 12.426s-12.426-5.563-12.426-12.426v0-168.773l-5.543-289.321c-0.113-4.105-1.109-7.952-2.804-11.392l0.072 0.161c-19.277 5.263-41.411 8.287-64.252 8.287-21.888 0-43.128-2.777-63.385-7.998l1.757 0.384c-0.487 1.038-0.852 2.243-1.034 3.507l-0.008 0.070-22.845 235.474c-0.071 0.716-0.111 1.548-0.111 2.389 0 4.975 1.412 9.621 3.857 13.558l-0.063-0.11 167.413 272.204c1.376 2.214 3.339 3.948 5.673 5.009l0.081 0.033 56.975 25.604c10.756-27.425 35.713-100.791 27.491-173.445-8.037-71.268-26.527-79.754-28.771-80.506zM544.975-39.149h-245.28l-1.544 14.082h177.404c6.863 0 12.426 5.563 12.426 12.426s-5.563 12.426-12.426 12.426v0h-180.149l-1.109 10.057h181.258c6.863 0 12.426 5.563 12.426 12.426s-5.563 12.426-12.426 12.426v0h-183.99l-1.544 14.069h254.954zM544.975 73.639h-258.676c-23.373 121.591-18.477 362.12-17.157 412.073 2.515 1.258 4.678 2.64 6.68 4.219l-0.081-0.062c17.725 13.831 29.576 45.994 35.185 95.644 8.974 78.936-17.5 156.472-29.167 185.837l121.947 46.944c3.22-46.1 32.255-100.501 141.216-121.037zM554.49 759.922c-6.784 12.142-16.906 30.249-31.873 58.69 20.041 2.848 43.189 4.474 66.717 4.474 23.873 0 47.354-1.674 70.334-4.911l-2.645 0.305c-14.927-28.362-25.076-46.456-31.807-58.572-13.317-23.756-15.283-27.504-15.296-41.731-6.267-0.979-13.495-1.538-20.854-1.538-6.8 0-13.488 0.477-20.033 1.4l0.753-0.087c0 14.372-1.927 18.002-15.309 41.916zM874.694 34.732h-182.749c-6.863 0-12.426-5.563-12.426-12.426s5.563-12.426 12.426-12.426v0h180.017l-1.109-10.096h-178.909c-6.863 0-12.426-5.563-12.426-12.426s5.563-12.426 12.426-12.426v0h176.164l-1.544-14.082h-296.751v87.937h306.439zM881.808 73.639h-311.995v619.225c5.395-0.734 11.674-1.179 18.048-1.227h0.059c0.096 0 0.211 0 0.325 0 11.808 0 23.337 1.197 34.471 3.475l-1.102-0.188c0.211 0 0.356 0.198 0.568 0.251s0.158 0 0.238 0c0.007 0 0.016 0 0.025 0 0.69 0 1.367 0.058 2.026 0.168l-0.071-0.010c117.328 18.846 148.013 75.029 151.523 122.475l110.558-46.113c-11.574-29.114-38.273-106.902-29.325-186.088 5.622-49.637 17.461-81.826 35.185-95.644 1.92-1.517 4.084-2.9 6.38-4.057l0.219-0.1c1.359-50.046 6.256-290.575-17.117-412.166zM1102.725 128.793c-13.916 1.513-30.057 2.377-46.4 2.377-15.599 0-31.014-0.786-46.208-2.322l1.912 0.156-2.098 12.855c14.234 2.686 30.608 4.222 47.34 4.222s33.107-1.536 48.989-4.475l-1.648 0.253zM1108.188 166.485c-15.317 2.865-32.939 4.503-50.944 4.503-18.136 0-35.885-1.662-53.1-4.843l1.788 0.274-2.257 13.884c16.271 4.104 34.951 6.459 54.181 6.459 18.588 0 36.661-2.2 53.975-6.355l-1.571 0.318zM1120.212 207.61c-0.194-1.282-0.544-2.437-1.036-3.513l0.033 0.082c-18.295 4.739-39.299 7.46-60.938 7.46-23.073 0-45.424-3.093-66.661-8.888l1.771 0.412c-1.684 3.327-2.718 7.237-2.837 11.377l-0.001 0.039-5.543 289.321v168.773c0 6.863-5.563 12.426-12.426 12.426s-12.426-5.563-12.426-12.426v0-158.162l-49.584-6.704c-2.376 0.831-20.734 9.555-28.745 80.506-8.196 72.442 16.722 145.875 27.478 173.392l56.856-25.551c2.416-1.092 4.38-2.826 5.722-4.987l0.032-0.055 167.44-272.204c2.376-3.813 3.785-8.443 3.785-13.401 0-0.858-0.042-1.706-0.125-2.542l0.008 0.106zM760.929 307.292c-2.297 2.883-5.808 4.715-9.747 4.715-6.866 0-12.432-5.566-12.432-12.432 0-2.647 0.827-5.101 2.238-7.117l-0.027 0.040c29.554-40.263 57.596-85.95 81.8-133.905l2.56-5.595c1.898-4.588 6.339-7.758 11.52-7.758 6.866 0 12.432 5.566 12.432 12.432 0 2.181-0.562 4.231-1.549 6.014l0.032-0.064c-27.403 55.109-56.272 102.17-88.75 146.415l1.922-2.745zM401.502 307.292c-30.574-41.504-59.455-88.565-84.291-138.008l-2.577-5.663c-0.577-1.383-0.912-2.99-0.912-4.674 0-6.866 5.566-12.432 12.432-12.432 4.685 0 8.764 2.591 10.884 6.419l0.032 0.064c26.754 53.542 54.796 99.225 86.277 142.233l-1.917-2.746c1.439 2.002 2.301 4.503 2.301 7.205 0 6.866-5.566 12.432-12.432 12.432-3.99 0-7.541-1.88-9.816-4.802l-0.021-0.028zM593.067 676.658c-0.004 0-0.009 0-0.013 0-7.58 0-13.726-6.145-13.726-13.726s6.145-13.726 13.726-13.726c7.58 0 13.726 6.145 13.726 13.726v0c0 7.576-6.138 13.718-13.712 13.726h-0.001zM593.067 518.826c-0.004 0-0.009 0-0.013 0-7.58 0-13.726-6.145-13.726-13.726s6.145-13.726 13.726-13.726c7.58 0 13.726 6.145 13.726 13.726v0c0 7.576-6.138 13.718-13.712 13.726h-0.001zM593.067 356.942c-0.004 0-0.009 0-0.013 0-7.58 0-13.726-6.145-13.726-13.726s6.145-13.726 13.726-13.726c7.58 0 13.726 6.145 13.726 13.726 0 0.005 0 0.009 0 0.014v-0.001c-0.008 7.57-6.142 13.705-13.712 13.712h-0.001zM593.067 178.971c-0.004 0-0.009 0-0.013 0-7.58 0-13.726-6.145-13.726-13.726s6.145-13.726 13.726-13.726c7.58 0 13.726 6.145 13.726 13.726v0c0 7.576-6.138 13.718-13.712 13.726h-0.001zM593.067 8.522c7.58 0 13.726 6.145 13.726 13.726s-6.145 13.726-13.726 13.726c-7.58 0-13.726-6.145-13.726-13.726 0-0.005 0-0.009 0-0.014v0.001c0-7.573 6.139-13.712 13.712-13.712 0.005 0 0.009 0 0.014 0h-0.001zM593.067-26.36c7.58 0 13.726 6.145 13.726 13.726s-6.145 13.726-13.726 13.726c-7.58 0-13.726-6.145-13.726-13.726 0-0.005 0-0.009 0-0.014v0.001c0-7.573 6.139-13.712 13.712-13.712 0.005 0 0.009 0 0.014 0h-0.001z" />
<glyph unicode="&#xe942;" glyph-name="paper-plane" data-tags="paper-plane" horiz-adv-x="1025" d="M1008 944.571c12-8.571 17.714-22.286 15.429-36.571l-146.286-877.714c-1.714-10.857-8.571-20-18.286-25.714-5.143-2.857-11.429-4.571-17.714-4.571-4.571 0-9.143 1.143-13.714 2.857l-258.857 105.714-138.286-168.571c-6.857-8.571-17.143-13.143-28-13.143-4 0-8.571 0.571-12.571 2.286-14.286 5.143-24 18.857-24 34.286v199.429l493.714 605.143-610.857-528.571-225.714 92.571c-13.143 5.143-21.714 17.143-22.857 31.429-0.571 13.714 6.286 26.857 18.286 33.714l950.857 548.571c5.714 3.429 12 5.143 18.286 5.143 7.429 0 14.857-2.286 20.571-6.286z" />
<glyph unicode="&#xe943;" glyph-name="phone" data-tags="phone" horiz-adv-x="805" d="M804.571 242.286c0-20.571-9.143-60.571-17.714-79.429-12-28-44-46.286-69.714-60.571-33.714-18.286-68-29.143-106.286-29.143-53.143 0-101.143 21.714-149.714 39.429-34.857 12.571-68.571 28-100 47.429-97.143 60-214.286 177.143-274.286 274.286-19.429 31.429-34.857 65.143-47.429 100-17.714 48.571-39.429 96.571-39.429 149.714 0 38.286 10.857 72.571 29.143 106.286 14.286 25.714 32.571 57.714 60.571 69.714 18.857 8.571 58.857 17.714 79.429 17.714 4 0 8 0 12-1.714 12-4 24.571-32 30.286-43.429 18.286-32.571 36-65.714 54.857-97.714 9.143-14.857 26.286-33.143 26.286-50.857 0-34.857-103.429-85.714-103.429-116.571 0-15.429 14.286-35.429 22.286-49.143 57.714-104 129.714-176 233.714-233.714 13.714-8 33.714-22.286 49.143-22.286 30.857 0 81.714 103.429 116.571 103.429 17.714 0 36-17.143 50.857-26.286 32-18.857 65.143-36.571 97.714-54.857 11.429-5.714 39.429-18.286 43.429-30.286 1.714-4 1.714-8 1.714-12z" />
</font>
</defs>
</svg>
