<svg xmlns="http://www.w3.org/2000/svg" width="70" height="79" viewBox="0 0 70 79">
  <g id="Group_630" data-name="Group 630" transform="translate(-363 -343)">
    <path id="Path_100" data-name="Path 100" d="M0,0H70V79L34.535,63.447,0,79Z" transform="translate(363 343)" fill="#e8a100"/>
    <text id="Start_With" data-name="Start With" transform="translate(398 370)" fill="#363636" font-size="11" font-family="Lato-Bold, Lato" font-weight="700"><tspan x="-25.897" y="0">Start With</tspan></text>
    <g id="Group_383" data-name="Group 383" transform="translate(201 18)">
      <g id="star" transform="translate(173 329.548)">
        <path id="Path_103" data-name="Path 103" d="M4.045.573,5.028,2.9l2.516.216a.2.2,0,0,1,.113.347L5.748,5.116,6.32,7.575a.2.2,0,0,1-.3.215l-2.162-1.3L1.7,7.79a.2.2,0,0,1-.3-.215l.572-2.459L.068,3.462a.2.2,0,0,1,.113-.347L2.7,2.9,3.68.573a.2.2,0,0,1,.365,0Z" fill="#fff"/>
      </g>
      <g id="star-2" data-name="star" transform="translate(183 329.548)">
        <path id="Path_103-2" data-name="Path 103" d="M4.045.573,5.028,2.9l2.516.216a.2.2,0,0,1,.113.347L5.748,5.116,6.32,7.575a.2.2,0,0,1-.3.215l-2.162-1.3L1.7,7.79a.2.2,0,0,1-.3-.215l.572-2.459L.068,3.462a.2.2,0,0,1,.113-.347L2.7,2.9,3.68.573a.2.2,0,0,1,.365,0Z" fill="#fff"/>
      </g>
      <g id="star-3" data-name="star" transform="translate(193 329.548)">
        <path id="Path_103-3" data-name="Path 103" d="M4.045.573,5.028,2.9l2.516.216a.2.2,0,0,1,.113.347L5.748,5.116,6.32,7.575a.2.2,0,0,1-.3.215l-2.162-1.3L1.7,7.79a.2.2,0,0,1-.3-.215l.572-2.459L.068,3.462a.2.2,0,0,1,.113-.347L2.7,2.9,3.68.573a.2.2,0,0,1,.365,0Z" fill="#fff"/>
      </g>
      <g id="star-4" data-name="star" transform="translate(203 329.548)">
        <path id="Path_103-4" data-name="Path 103" d="M4.045.573,5.028,2.9l2.516.216a.2.2,0,0,1,.113.347L5.748,5.116,6.32,7.575a.2.2,0,0,1-.3.215l-2.162-1.3L1.7,7.79a.2.2,0,0,1-.3-.215l.572-2.459L.068,3.462a.2.2,0,0,1,.113-.347L2.7,2.9,3.68.573a.2.2,0,0,1,.365,0Z" fill="#fff"/>
      </g>
      <g id="star-5" data-name="star" transform="translate(213 329.548)">
        <path id="Path_103-5" data-name="Path 103" d="M4.045.573,5.028,2.9l2.516.216a.2.2,0,0,1,.113.347L5.748,5.116,6.32,7.575a.2.2,0,0,1-.3.215l-2.162-1.3L1.7,7.79a.2.2,0,0,1-.3-.215l.572-2.459L.068,3.462a.2.2,0,0,1,.113-.347L2.7,2.9,3.68.573a.2.2,0,0,1,.365,0Z" fill="#fff"/>
      </g>
    </g>
  </g>
</svg>
