<?xml version="1.0" encoding="utf-8"?>
<!-- Generator: Adobe Illustrator 23.0.1, SVG Export Plug-In . SVG Version: 6.00 Build 0)  -->
<svg version="1.1" id="Layer_1" xmlns="http://www.w3.org/2000/svg" xmlns:xlink="http://www.w3.org/1999/xlink" x="0px" y="0px"
	 viewBox="0 0 2267.72 2267.72" style="enable-background:new 0 0 2267.72 2267.72;" xml:space="preserve">
<style type="text/css">
	.Arched_x0020_Green{fill:url(#SVGID_1_);stroke:#FFFFFF;stroke-width:0.25;stroke-miterlimit:1;}
	.st0{fill-rule:evenodd;clip-rule:evenodd;}
</style>
<linearGradient id="SVGID_1_" gradientUnits="userSpaceOnUse" x1="836.2183" y1="1554.8032" x2="836.9254" y2="1554.0961">
	<stop  offset="0" style="stop-color:#20AC4B"/>
	<stop  offset="0.9831" style="stop-color:#19361A"/>
</linearGradient>
<polygon class="st0" points="914.88,180.43 912.43,180.43 903.85,197.51 903.85,269.51 913.65,282.94 914.88,282.94 914.88,269.51 
	914.88,197.51 914.88,180.43 "/>
<polygon class="st0" points="905.07,291.48 905.07,307.34 903.85,378.12 916.1,378.12 914.88,307.34 906.3,291.48 905.07,291.48 "/>
<polygon class="st0" points="887.92,253.65 869.54,268.29 848.72,286.6 848.72,309.78 887.92,359.82 887.92,329.31 870.77,301.24 
	870.77,298.8 879.35,287.82 887.92,298.8 887.92,253.65 "/>
<polygon class="st0" points="834.02,300.02 788.69,330.53 788.69,354.94 834.02,323.21 834.02,300.02 "/>
<polygon class="st0" points="772.76,340.29 761.73,343.95 761.73,372.02 772.76,365.92 772.76,340.29 "/>
<polygon class="st0" points="723.76,347.61 712.73,350.06 712.73,386.67 723.76,384.23 723.76,347.61 "/>
<polygon class="st0" points="695.58,354.94 680.88,357.38 680.88,395.21 695.58,390.33 695.58,354.94 "/>
<polygon class="st0" points="663.72,379.34 645.35,385.44 625.75,393.99 625.75,422.06 634.32,414.73 644.12,407.41 653.92,402.53 
	664.95,398.87 663.72,379.34 "/>
<polygon class="st0" points="608.59,406.19 595.12,413.51 584.09,422.06 570.61,434.26 564.49,440.36 565.71,487.95 568.16,478.19 
	573.07,468.43 577.97,462.33 584.09,456.22 595.12,446.46 608.59,437.92 608.59,406.19 "/>
<polygon class="st0" points="553.46,446.46 537.54,453.78 537.54,1216.49 553.46,1211.61 553.46,446.46 "/>
<polygon class="st0" points="553.46,1231.14 537.54,1239.68 537.54,1270.19 553.46,1260.43 553.46,1231.14 "/>
<polygon class="st0" points="537.54,1282.4 536.31,1333.65 553.46,1319.01 553.46,1271.41 537.54,1282.4 "/>
<polygon class="st0" points="553.46,1340.97 536.31,1360.5 536.31,1445.92 553.46,1450.8 553.46,1340.97 "/>
<polygon class="st0" points="519.16,1300.7 506.91,1312.9 506.91,1353.18 506.91,1367.82 506.91,1381.24 506.91,1427.61 
	517.93,1434.94 517.93,1382.46 514.26,1376.36 513.03,1372.7 511.81,1369.04 511.81,1364.16 514.26,1360.5 519.16,1351.96 
	519.16,1300.7 "/>
<polygon class="st0" points="519.16,1251.89 508.13,1260.43 508.13,1287.28 519.16,1278.73 519.16,1251.89 "/>
<polygon class="st0" points="519.16,508.7 508.13,517.24 508.13,1227.48 519.16,1223.82 519.16,508.7 "/>
<polygon class="st0" points="470.15,671.01 459.13,680.77 459.13,1262.87 459.13,1278.73 460.35,1278.73 470.15,1262.87 
	470.15,671.01 "/>
<polygon class="st0" points="471.38,1304.36 470.15,1304.36 459.13,1319.01 459.13,1359.28 470.15,1371.48 471.38,1371.48 
	471.38,1359.28 471.38,1317.78 471.38,1304.36 "/>
<polygon class="st0" points="441.98,686.87 426.05,700.29 426.05,1339.75 440.75,1340.97 441.98,686.87 "/>
<polygon class="st0" points="375.82,813.78 366.02,822.33 364.79,849.17 370.92,905.31 339.07,944.36 342.74,1016.36 
	343.97,1021.24 345.19,1027.34 350.09,1037.11 354.99,1046.87 356.22,1051.75 356.22,1057.85 354.99,1067.62 352.54,1077.38 
	347.64,1085.92 341.52,1094.46 341.52,1111.55 343.97,1128.63 347.64,1140.84 351.32,1151.82 357.44,1162.8 364.79,1172.56 
	373.37,1179.89 375.82,1220.16 381.95,1220.16 386.85,1179.89 378.27,1173.78 377.05,1127.41 377.05,1094.46 377.05,1060.29 
	377.05,1018.8 378.27,901.65 378.27,901.65 378.27,835.75 375.82,813.78 "/>
<polygon class="st0" points="608.59,1311.68 590.22,1314.12 577.97,1320.23 564.49,1329.99 564.49,1454.46 608.59,1449.58 
	608.59,1311.68 "/>
<polygon class="st0" points="608.59,1262.87 564.49,1265.31 564.49,1308.02 608.59,1290.94 608.59,1262.87 "/>
<polygon class="st0" points="584.09,1222.6 581.64,1222.6 564.49,1225.04 564.49,1253.11 591.44,1240.9 596.34,1239.68 
	600.02,1239.68 602.47,1239.68 608.59,1239.68 608.59,1209.18 608.59,1199.41 607.37,1196.97 607.37,830.87 603.69,773.51 
	590.22,753.99 584.09,743 579.19,733.24 571.84,717.38 565.71,701.51 564.49,701.51 564.49,733.24 564.49,773.51 564.49,829.65 
	564.49,1206.73 595.12,1203.07 597.57,1206.73 598.79,1211.61 597.57,1216.49 595.12,1221.38 590.22,1222.6 588.99,1222.6 
	584.09,1222.6 "/>
<polygon class="st0" points="624.52,1002.94 623.3,1005.38 624.52,1018.8 623.3,1021.24 624.52,1124.97 661.27,1085.92 
	661.27,990.73 629.42,1016.36 624.52,1002.94 "/>
<polygon class="st0" points="652.7,1284.83 656.37,1290.94 660.05,1303.14 658.82,1310.46 624.52,1311.68 624.52,1417.85 
	624.52,1428.83 624.52,1439.82 624.52,1470.33 625.75,1477.65 635.55,1486.19 633.1,1525.24 631.87,1526.46 630.65,1550.87 
	630.65,1552.09 628.2,1571.62 628.2,1571.62 628.2,1594.8 626.97,1598.46 628.2,1615.55 662.5,1621.65 664.95,1599.68 
	650.25,1596.02 651.47,1578.94 662.5,1581.38 663.72,1564.29 660.05,1561.85 657.6,1536.23 664.95,1535.01 663.72,1491.07 
	663.72,1472.77 644.12,1467.89 630.65,1436.16 635.55,1421.51 663.72,1408.09 663.72,1310.46 663.72,1310.46 664.95,1304.36 
	663.72,1292.16 663.72,1284.83 663.72,1284.83 663.72,1271.41 658.82,1262.87 652.7,1255.55 650.25,1251.89 647.8,1247 
	646.57,1245.79 645.35,1244.57 642.9,1236.02 640.45,1227.48 635.55,1210.4 625.75,1178.67 623.3,1178.67 623.3,1210.4 
	623.3,1244.57 630.65,1248.23 633.1,1254.33 624.52,1259.21 624.52,1270.19 623.3,1286.06 652.7,1284.83 "/>
<polygon class="st0" points="680.88,1607 680.88,1633.85 694.35,1638.73 694.35,1614.33 680.88,1607 "/>
<polygon class="st0" points="679.65,1588.7 695.58,1594.8 695.58,1576.49 679.65,1571.62 679.65,1588.7 "/>
<polygon class="st0" points="678.43,1510.6 678.43,1547.21 694.35,1554.53 694.35,1515.48 678.43,1510.6 "/>
<polygon class="st0" points="679.65,1494.74 696.8,1500.83 696.8,1481.31 679.65,1476.43 679.65,1494.74 "/>
<polygon class="st0" points="679.65,1292.16 678.43,1310.46 678.43,1334.87 678.43,1380.02 678.43,1404.43 685.78,1399.55 
	690.68,1387.35 694.35,1375.14 695.58,1365.38 696.8,1355.61 695.58,1334.87 695.58,1322.67 694.35,1316.56 691.9,1311.68 
	682.1,1292.16 679.65,1292.16 "/>
<polygon class="st0" points="679.65,1007.82 679.65,1035.89 679.65,1051.75 679.65,1070.06 695.58,1055.41 696.8,1046.87 
	695.58,1035.89 682.1,1007.82 679.65,1007.82 "/>
<polygon class="st0" points="771.54,1113.99 761.73,1134.73 761.73,1227.48 771.54,1261.65 773.99,1261.65 773.99,1228.7 
	772.76,1133.51 773.99,1112.77 771.54,1113.99 "/>
<polygon class="st0" points="712.73,1488.63 712.73,1599.68 712.73,1631.41 711.5,1649.72 722.53,1658.26 722.53,1633.85 
	716.4,1632.63 723.76,1598.46 723.76,1492.29 712.73,1488.63 "/>
<polygon class="st0" points="761.73,1697.31 772.76,1703.41 772.76,1356.83 773.99,1334.87 771.54,1336.09 761.73,1356.83 
	761.73,1697.31 "/>
<polygon class="st0" points="788.69,1226.26 787.46,1286.06 787.46,1340.97 789.91,1340.97 794.81,1327.55 797.26,1314.12 
	799.71,1299.48 800.94,1286.06 799.71,1270.19 798.49,1255.55 794.81,1242.12 789.91,1227.48 788.69,1226.26 "/>
<polygon class="st0" points="820.54,1159.14 816.86,1160.36 813.19,1162.8 809.51,1166.46 807.06,1171.34 804.61,1175 
	804.61,1185.99 804.61,1192.09 805.84,1198.19 808.29,1204.29 811.96,1209.18 815.64,1212.84 820.54,1215.27 825.44,1215.27 
	834.02,1209.18 834.02,1185.99 832.79,1166.46 831.57,1162.8 829.12,1160.36 824.22,1159.14 820.54,1159.14 "/>
<polygon class="st0" points="832.79,808.9 827.89,823.55 825.44,836.97 821.76,851.62 820.54,865.04 819.32,888.23 819.32,911.41 
	821.76,926.06 822.99,933.38 824.22,940.7 822.99,957.79 820.54,974.87 818.09,990.73 814.41,1007.82 810.74,1026.12 
	805.84,1044.43 802.16,1052.97 797.26,1062.73 792.36,1071.28 788.69,1079.82 788.69,1105.45 788.69,1142.06 791.14,1142.06 
	802.16,1105.45 813.19,1083.48 832.79,1045.65 832.79,1007.82 832.79,940.7 832.79,911.41 832.79,863.82 834.02,808.9 832.79,808.9 
	"/>
<polygon class="st0" points="879.35,850.4 872,854.06 868.32,862.6 867.1,871.14 865.87,880.9 865.87,891.89 867.1,901.65 
	869.54,906.53 872,910.19 875.67,913.85 880.57,915.07 884.25,915.07 887.92,912.63 889.15,893.11 889.15,871.14 889.15,854.06 
	881.8,850.4 879.35,850.4 "/>
<polygon class="st0" points="887.92,578.26 884.25,605.11 883.02,689.31 883.02,701.51 880.57,714.94 876.9,727.14 870.77,739.34 
	862.19,756.43 849.94,772.29 849.94,810.12 849.94,846.73 851.17,846.73 869.54,807.68 887.92,772.29 889.15,739.34 887.92,689.31 
	889.15,605.11 889.15,578.26 887.92,578.26 "/>
<polygon class="st0" points="905.07,544.09 905.07,572.16 906.3,584.36 906.3,657.58 905.07,688.09 906.3,688.09 911.2,655.14 
	912.43,579.48 917.33,563.61 916.1,531.89 905.07,544.09 "/>
<polygon class="st0" points="943.05,439.14 941.83,440.36 934.48,455 932.03,529.45 929.58,633.17 943.05,645.38 944.28,529.45 
	943.05,455 943.05,439.14 "/>
<path class="st0" d="M958.98,267.07l1.23,122.03v69.56v-18.31l20.83-53.69l0,0l-1.23-112.27L958.98,267.07L958.98,267.07z
	 M981.03,386.67v1.22l-19.6,70.78l6.12-10.98l17.15-28.07l19.6-35.39v-32.95l-22.05,32.95L981.03,386.67L981.03,386.67
	L981.03,386.67z"/>
<polygon class="st0" points="932.03,263.41 933.25,361.04 944.28,346.39 944.28,282.94 932.03,263.41 "/>
<polygon class="st0" points="943.05,192.63 934.48,202.39 932.03,241.44 943.05,258.53 943.05,192.63 "/>
<polygon class="st0" points="943.05,134.06 932.03,143.82 932.03,181.65 943.05,173.11 943.05,134.06 "/>
<polygon class="st0" points="961.43,140.16 961.43,162.12 1003.08,145.04 1004.31,124.29 961.43,140.16 "/>
<polygon class="st0" points="1003.08,156.02 960.2,177.99 960.2,188.97 1003.08,168.22 1003.08,156.02 "/>
<polygon class="st0" points="1045.96,112.09 1047.19,152.36 1059.44,147.48 1059.44,108.43 1045.96,112.09 "/>
<polygon class="st0" points="1102.32,87.68 1103.54,138.94 1113.34,136.5 1113.34,87.68 1102.32,87.68 "/>
<polygon class="st0" points="1130.5,136.5 1140.3,138.94 1141.52,91.34 1130.5,90.12 1130.5,136.5 "/>
<polygon class="st0" points="1059.44,274.39 1047.19,284.16 1047.19,363.48 1059.44,372.02 1059.44,274.39 "/>
<polygon class="st0" points="1047.19,389.11 1047.19,412.29 1045.96,436.7 1048.41,436.7 1052.09,430.6 1054.54,424.5 
	1056.99,418.39 1056.99,412.29 1056.99,406.19 1055.76,400.09 1053.31,395.21 1050.86,389.11 1047.19,389.11 "/>
<polygon class="st0" points="1102.32,425.72 1113.34,426.94 1113.34,391.55 1103.54,396.43 1102.32,425.72 "/>
<polygon class="st0" points="1113.34,347.61 1101.09,352.5 1102.32,383 1113.34,376.9 1113.34,347.61 "/>
<polygon class="st0" points="1114.57,293.92 1102.32,298.8 1102.32,325.65 1114.57,319.55 1114.57,293.92 "/>
<polygon class="st0" points="1113.34,248.77 1102.32,252.43 1103.54,273.17 1113.34,268.29 1113.34,248.77 "/>
<polygon class="st0" points="1130.5,239 1130.5,260.97 1140.3,257.31 1140.3,232.9 1130.5,239 "/>
<polygon class="st0" points="1140.3,280.5 1130.5,285.38 1131.72,311 1140.3,307.34 1140.3,280.5 "/>
<polygon class="st0" points="1128.05,340.29 1128.05,369.58 1139.07,363.48 1139.07,332.97 1128.05,340.29 "/>
<polygon class="st0" points="1140.3,380.56 1129.27,385.44 1129.27,422.06 1140.3,417.17 1140.3,380.56 "/>
<polygon class="st0" points="1221.16,319.55 1213.81,329.31 1205.23,337.85 1191.75,348.84 1177.05,357.38 1179.5,396.43 
	1194.2,385.44 1208.9,373.24 1223.6,361.04 1221.16,319.55 "/>
<polygon class="st0" points="1276.29,256.09 1239.53,300.02 1238.31,337.85 1277.51,293.92 1276.29,256.09 "/>
<polygon class="st0" points="1299.57,202.39 1299.57,262.19 1305.69,258.53 1305.69,206.06 1299.57,202.39 "/>
<polygon class="st0" points="1239.53,157.24 1239.53,202.39 1250.56,208.5 1255.46,212.16 1256.69,215.82 1255.46,218.26 
	1239.53,241.44 1239.53,273.17 1278.74,231.68 1278.74,210.94 1266.49,207.28 1261.59,199.95 1239.53,157.24 "/>
<polygon class="st0" points="1224.83,265.85 1199.1,298.8 1178.28,313.45 1178.28,336.63 1199.1,318.33 1224.83,292.7 
	1224.83,265.85 "/>
<polygon class="st0" points="1179.5,102.33 1179.5,134.06 1199.1,145.04 1206.46,148.7 1212.58,153.58 1215.03,157.24 
	1217.48,160.9 1219.93,170.67 1219.93,177.99 1219.93,185.31 1217.48,199.95 1213.81,220.7 1197.88,237.78 1178.28,258.53 
	1178.28,284.16 1211.36,248.77 1223.6,231.68 1222.38,197.51 1223.6,169.45 1223.6,142.6 1217.48,131.61 1207.68,120.63 
	1201.56,114.53 1194.2,109.65 1186.85,105.99 1179.5,102.33 "/>
<polygon class="st0" points="1179.5,143.82 1179.5,157.24 1188.08,162.12 1194.2,168.22 1199.1,173.11 1202.78,180.43 
	1202.78,184.09 1202.78,187.75 1200.33,196.29 1196.66,202.39 1190.53,206.06 1184.4,209.72 1178.28,210.94 1180.73,231.68 
	1189.3,226.8 1196.66,219.48 1204,212.16 1208.9,203.62 1213.81,191.41 1215.03,186.53 1215.03,180.43 1213.81,174.33 
	1212.58,169.45 1210.13,164.56 1206.46,159.68 1201.56,153.58 1194.2,148.7 1186.85,146.26 1179.5,143.82 "/>
<polygon class="st0" points="1348.57,228.02 1348.57,259.75 1359.59,268.29 1360.82,232.9 1348.57,228.02 "/>
<polygon class="st0" points="1375.52,278.05 1387.77,282.94 1387.77,243.89 1375.52,240.23 1375.52,278.05 "/>
<polygon class="st0" points="1404.93,262.19 1404.93,291.48 1428.2,301.24 1447.8,309.78 1447.8,280.5 1428.2,273.17 
	1404.93,262.19 "/>
<polygon class="st0" points="1463.73,315.89 1469.86,317.11 1469.86,280.5 1463.73,275.62 1463.73,315.89 "/>
<polygon class="st0" points="1491.91,289.04 1491.91,325.65 1531.11,341.51 1531.11,303.68 1491.91,289.04 "/>
<polygon class="st0" points="1553.16,311 1553.16,350.06 1562.97,354.94 1562.97,315.89 1553.16,311 "/>
<polygon class="st0" points="1600.94,326.87 1600.94,372.02 1613.2,378.12 1613.2,329.31 1600.94,326.87 "/>
<polygon class="st0" points="1629.12,335.41 1629.12,387.89 1631.57,393.99 1632.8,397.65 1634.02,400.09 1632.8,403.75 
	1631.57,407.41 1627.9,414.73 1627.9,1393.44 1645.05,1384.9 1645.05,414.73 1645.05,401.31 1645.05,387.89 1645.05,341.51 
	1629.12,335.41 "/>
<polygon class="st0" points="1610.75,434.26 1599.72,444.02 1599.72,1389.79 1610.75,1389.79 1610.75,434.26 "/>
<polygon class="st0" points="1562.97,501.38 1550.71,511.14 1550.71,999.28 1562.97,1005.38 1562.97,501.38 "/>
<polygon class="st0" points="1526.21,558.73 1517.64,578.26 1507.84,599 1498.03,620.97 1494.36,631.95 1491.91,642.94 
	1491.91,884.56 1528.66,935.82 1528.66,635.61 1528.66,599 1528.66,558.73 1526.21,558.73 "/>
<polygon class="st0" points="1562.97,1057.85 1550.71,1060.29 1550.71,1411.75 1562.97,1408.09 1562.97,1057.85 "/>
<polygon class="st0" points="1521.31,1400.77 1516.41,1425.18 1510.29,1448.36 1501.71,1470.33 1491.91,1491.07 1494.36,1530.12 
	1531.11,1493.51 1531.11,1473.99 1531.11,1437.38 1531.11,1398.33 1531.11,1394.67 1531.11,1066.39 1490.68,1073.72 
	1490.68,1410.53 1521.31,1400.77 "/>
<polygon class="st0" points="1464.96,1076.16 1464.96,1420.29 1469.86,1420.29 1469.86,1076.16 1464.96,1076.16 "/>
<polygon class="st0" points="1446.58,1081.04 1403.7,1092.02 1403.7,1438.6 1446.58,1425.18 1446.58,1081.04 "/>
<polygon class="st0" points="1387.77,1096.9 1376.75,1100.56 1376.75,1445.92 1387.77,1444.7 1387.77,1096.9 "/>
<polygon class="st0" points="1360.82,1106.67 1349.79,1117.65 1348.57,1454.46 1360.82,1452.02 1360.82,1106.67 "/>
<polygon class="st0" points="1298.34,1137.17 1298.34,1453.24 1304.47,1456.9 1304.47,1137.17 1298.34,1137.17 "/>
<polygon class="st0" points="1239.53,1398.33 1239.53,1415.41 1276.29,1439.82 1276.29,1412.97 1276.29,1406.87 1276.29,1369.04 
	1276.29,1142.06 1239.53,1149.38 1239.53,1354.4 1245.66,1398.33 1239.53,1398.33 "/>
<polygon class="st0" points="1179.5,1170.12 1178.28,1221.38 1178.28,1236.02 1178.28,1309.24 1178.28,1367.82 1178.28,1397.11 
	1179.5,1439.82 1222.38,1426.4 1221.16,1393.44 1219.93,1386.13 1216.26,1380.02 1211.36,1366.6 1201.56,1337.31 1194.2,1308.02 
	1186.85,1272.63 1185.63,1254.33 1185.63,1244.57 1186.85,1236.02 1189.3,1223.82 1192.98,1221.38 1201.56,1218.94 1221.16,1212.84 
	1221.16,1182.33 1221.16,1177.45 1222.38,1131.07 1178.28,1088.36 1178.28,1148.16 1211.36,1176.23 1202.78,1181.11 1194.2,1185.99 
	1179.5,1170.12 "/>
<polygon class="st0" points="1129.27,1306.8 1129.27,1349.52 1129.27,1454.46 1140.3,1450.8 1140.3,1349.52 1130.5,1306.8 
	1129.27,1306.8 "/>
<polygon class="st0" points="1140.3,1217.72 1129.27,1218.94 1129.27,1242.12 1141.52,1238.46 1140.3,1217.72 "/>
<polygon class="st0" points="1131.72,1116.43 1130.5,1171.34 1141.52,1179.89 1141.52,1126.19 1131.72,1116.43 "/>
<polygon class="st0" points="1130.5,1105.45 1140.3,1113.99 1140.3,1049.31 1130.5,1043.21 1130.5,1105.45 "/>
<polygon class="st0" points="1103.54,1018.8 1103.54,1145.72 1114.57,1154.26 1114.57,1026.12 1103.54,1018.8 "/>
<polygon class="st0" points="1059.44,1054.19 1047.19,1057.85 1049.64,1095.68 1059.44,1101.79 1059.44,1054.19 "/>
<polygon class="st0" points="1104.77,1222.6 1103.54,1255.55 1103.54,1288.5 1104.77,1315.34 1108.44,1340.97 1112.12,1372.7 
	1114.57,1373.92 1114.57,1340.97 1114.57,1288.5 1114.57,1222.6 1104.77,1222.6 "/>
<polygon class="st0" points="1060.67,1257.99 1058.21,1259.21 1054.54,1282.4 1052.09,1306.8 1052.09,1320.23 1053.31,1334.87 
	1055.76,1348.29 1058.21,1361.72 1059.44,1361.72 1060.67,1306.8 1060.67,1257.99 "/>
<polygon class="st0" points="1101.09,1409.31 1101.09,1439.82 1113.34,1453.24 1112.12,1425.18 1101.09,1409.31 "/>
<polygon class="st0" points="816.86,1406.87 813.19,1409.31 809.51,1414.19 808.29,1417.85 807.06,1422.74 805.84,1430.05 
	805.84,1436.16 805.84,1443.48 808.29,1450.8 809.51,1455.68 810.74,1459.35 814.41,1464.22 818.09,1466.66 822.99,1466.66 
	829.12,1461.79 831.57,1456.9 834.02,1453.24 834.02,1420.29 832.79,1416.63 830.34,1412.97 826.67,1409.31 822.99,1406.87 
	816.86,1406.87 "/>
<polygon class="st0" points="788.69,1476.43 789.91,1531.35 832.79,1538.66 832.79,1520.36 800.94,1510.6 789.91,1476.43 
	788.69,1476.43 "/>
<polygon class="st0" points="809.51,1556.97 803.39,1559.41 797.26,1563.07 794.81,1567.96 794.81,1572.83 796.04,1583.82 
	796.04,1589.92 797.26,1593.58 798.49,1596.02 803.39,1599.68 808.29,1600.9 810.74,1600.9 815.64,1599.68 820.54,1596.02 
	824.22,1589.92 826.67,1583.82 827.89,1577.72 827.89,1572.83 826.67,1567.96 822.99,1563.07 819.32,1559.41 813.19,1556.97 
	809.51,1556.97 "/>
<polygon class="st0" points="788.69,1604.57 788.69,1647.27 788.69,1687.55 789.91,1725.38 831.57,1747.34 832.79,1725.38 
	804.61,1708.29 800.94,1698.53 797.26,1688.77 794.81,1677.78 793.59,1668.02 792.36,1647.27 789.91,1604.57 788.69,1604.57 "/>
<polygon class="st0" points="818.09,1648.49 811.96,1650.94 807.06,1654.6 803.39,1659.48 800.94,1664.36 798.49,1669.24 
	798.49,1674.12 800.94,1683.88 803.39,1692.43 805.84,1696.09 809.51,1698.53 814.41,1700.97 819.32,1702.19 824.22,1702.19 
	832.79,1698.53 832.79,1685.1 832.79,1665.58 832.79,1653.38 820.54,1648.49 818.09,1648.49 "/>
<polygon class="st0" points="851.17,1733.92 851.17,1763.21 889.15,1772.97 889.15,1535.01 878.12,1531.35 848.72,1524.02 
	848.72,1543.55 873.22,1549.65 878.12,1554.53 878.12,1741.24 851.17,1733.92 "/>
<polygon class="st0" points="905.07,1539.88 905.07,1571.62 914.88,1574.05 916.1,1543.55 905.07,1539.88 "/>
<polygon class="st0" points="905.07,1591.14 905.07,1635.07 916.1,1635.07 916.1,1596.02 905.07,1591.14 "/>
<polygon class="st0" points="905.07,1666.8 903.85,1700.97 914.88,1704.63 914.88,1666.8 905.07,1666.8 "/>
<polygon class="st0" points="905.07,1736.36 905.07,1774.19 916.1,1775.41 916.1,1736.36 905.07,1736.36 "/>
<polygon class="st0" points="943.05,1736.36 932.03,1737.58 932.03,1776.63 943.05,1776.63 943.05,1736.36 "/>
<polygon class="st0" points="932.03,1668.02 932.03,1704.63 943.05,1707.07 943.05,1670.46 932.03,1668.02 "/>
<polygon class="st0" points="932.03,1637.51 944.28,1638.73 944.28,1607 932.03,1602.12 932.03,1637.51 "/>
<polygon class="st0" points="932.03,1578.94 943.05,1582.6 943.05,1556.97 932.03,1550.87 932.03,1578.94 "/>
<polygon class="st0" points="960.2,1565.51 960.2,1588.7 982.26,1596.02 1003.08,1600.9 1001.86,1578.94 983.48,1575.27 
	972.46,1571.62 960.2,1565.51 "/>
<polygon class="st0" points="960.2,1610.66 960.2,1641.17 1003.08,1643.61 1003.08,1617.99 960.2,1610.66 "/>
<polygon class="st0" points="958.98,1672.9 958.98,1709.51 1004.31,1709.51 1004.31,1675.34 958.98,1672.9 "/>
<polygon class="st0" points="960.2,1737.58 960.2,1772.97 1001.86,1771.75 1001.86,1737.58 960.2,1737.58 "/>
<polygon class="st0" points="1058.21,1732.7 1045.96,1733.92 1045.96,1766.87 1059.44,1765.65 1058.21,1732.7 "/>
<polygon class="st0" points="1059.44,1677.78 1047.19,1677.78 1047.19,1713.17 1059.44,1713.17 1059.44,1677.78 "/>
<polygon class="st0" points="1047.19,1621.65 1047.19,1648.49 1058.21,1648.49 1058.21,1622.87 1047.19,1621.65 "/>
<polygon class="st0" points="1047.19,1610.66 1058.21,1613.11 1058.21,1588.7 1047.19,1588.7 1047.19,1610.66 "/>
<polygon class="st0" points="1102.32,1587.48 1102.32,1607 1113.34,1605.79 1113.34,1585.03 1102.32,1587.48 "/>
<polygon class="st0" points="1103.54,1619.21 1103.54,1647.27 1113.34,1647.27 1113.34,1619.21 1103.54,1619.21 "/>
<polygon class="st0" points="1102.32,1675.34 1102.32,1704.63 1113.34,1703.41 1113.34,1675.34 1102.32,1675.34 "/>
<polygon class="st0" points="1102.32,1727.82 1102.32,1758.32 1113.34,1757.11 1113.34,1727.82 1102.32,1727.82 "/>
<polygon class="st0" points="1139.07,1722.94 1130.5,1726.6 1130.5,1752.23 1139.07,1752.23 1139.07,1722.94 "/>
<polygon class="st0" points="1141.52,1670.46 1129.27,1671.68 1129.27,1699.75 1141.52,1696.09 1141.52,1670.46 "/>
<polygon class="st0" points="1141.52,1615.55 1129.27,1615.55 1129.27,1643.61 1141.52,1641.17 1141.52,1615.55 "/>
<polygon class="st0" points="1140.3,1576.49 1129.27,1581.38 1129.27,1603.34 1140.3,1600.9 1140.3,1576.49 "/>
<polygon class="st0" points="1179.5,1561.85 1179.5,1588.7 1204,1582.6 1222.38,1577.72 1221.16,1533.79 1200.33,1548.43 
	1179.5,1561.85 "/>
<polygon class="st0" points="1221.16,1596.02 1197.88,1602.12 1178.28,1607 1179.5,1633.85 1199.1,1628.97 1221.16,1622.87 
	1221.16,1596.02 "/>
<polygon class="st0" points="1178.28,1659.48 1178.28,1682.66 1202.78,1675.34 1222.38,1668.02 1222.38,1646.05 1202.78,1652.16 
	1178.28,1659.48 "/>
<polygon class="st0" points="1222.38,1694.87 1178.28,1710.73 1178.28,1741.24 1222.38,1726.6 1222.38,1694.87 "/>
<polygon class="st0" points="1277.51,1676.56 1239.53,1689.99 1239.53,1724.16 1277.51,1713.17 1277.51,1676.56 "/>
<polygon class="st0" points="1277.51,1631.41 1239.53,1641.17 1238.31,1660.7 1277.51,1649.72 1277.51,1631.41 "/>
<polygon class="st0" points="1277.51,1576.49 1239.53,1589.92 1239.53,1619.21 1276.29,1610.66 1277.51,1576.49 "/>
<polygon class="st0" points="1277.51,1498.39 1239.53,1517.92 1238.31,1572.83 1277.51,1560.63 1277.51,1498.39 "/>
<polygon class="st0" points="1299.57,1542.33 1299.57,1556.97 1304.47,1555.75 1305.69,1542.33 1299.57,1542.33 "/>
<polygon class="st0" points="1300.79,1572.83 1300.79,1603.34 1304.47,1602.12 1305.69,1570.4 1300.79,1572.83 "/>
<polygon class="st0" points="1304.47,1622.87 1298.34,1625.31 1300.79,1644.83 1305.69,1642.4 1304.47,1622.87 "/>
<polygon class="st0" points="1298.34,1670.46 1300.79,1707.07 1305.69,1704.63 1305.69,1668.02 1298.34,1670.46 "/>
<polygon class="st0" points="1358.37,1654.6 1349.79,1658.26 1349.79,1687.55 1358.37,1682.66 1358.37,1654.6 "/>
<polygon class="st0" points="1359.59,1610.66 1348.57,1613.11 1348.57,1631.41 1360.82,1627.75 1359.59,1610.66 "/>
<polygon class="st0" points="1359.59,1558.19 1349.79,1563.07 1348.57,1591.14 1360.82,1587.48 1359.59,1558.19 "/>
<polygon class="st0" points="1359.59,1531.35 1348.57,1533.79 1348.57,1547.21 1359.59,1547.21 1359.59,1531.35 "/>
<polygon class="st0" points="1376.75,1527.68 1376.75,1544.77 1387.77,1544.77 1387.77,1525.24 1376.75,1527.68 "/>
<polygon class="st0" points="1387.77,1554.53 1375.52,1556.97 1375.52,1582.6 1387.77,1580.16 1387.77,1554.53 "/>
<polygon class="st0" points="1375.52,1605.79 1375.52,1624.09 1387.77,1621.65 1387.77,1602.12 1375.52,1605.79 "/>
<polygon class="st0" points="1387.77,1646.05 1376.75,1647.27 1376.75,1679 1387.77,1674.12 1387.77,1646.05 "/>
<polygon class="st0" points="1419.63,1614.33 1420.85,1636.29 1404.93,1641.17 1404.93,1670.46 1449.03,1652.16 1450.25,1628.97 
	1450.25,1627.75 1451.48,1604.57 1450.25,1604.57 1452.7,1586.26 1452.7,1578.94 1455.16,1566.73 1455.16,1563.07 1455.16,1548.43 
	1455.16,1544.77 1447.8,1537.44 1447.8,1517.92 1403.7,1522.8 1403.7,1542.33 1413.5,1547.21 1403.7,1550.87 1403.7,1576.49 
	1420.85,1571.62 1417.18,1592.36 1403.7,1597.24 1403.7,1616.77 1419.63,1614.33 "/>
<polygon class="st0" points="1463.73,1514.26 1463.73,1545.99 1471.08,1542.33 1469.86,1511.82 1463.73,1514.26 "/>
<polygon class="st0" points="1662.2,354.94 1662.2,1382.46 1667.1,1378.8 1667.1,357.38 1662.2,354.94 "/>
<polygon class="st0" points="1680.58,379.34 1679.35,397.65 1678.13,434.26 1678.13,1375.14 1714.88,1360.5 1714.88,445.24 
	1711.21,422.06 1692.83,396.43 1680.58,379.34 "/>
<polygon class="st0" points="1740.61,467.21 1740.61,1331.21 1746.73,1327.55 1746.73,467.21 1740.61,467.21 "/>
<polygon class="st0" points="1793.29,539.21 1792.06,568.5 1793.29,606.33 1793.29,1299.48 1838.62,1281.18 1838.62,612.43 
	1838.62,605.11 1836.17,596.56 1833.72,589.24 1831.27,581.92 1827.59,575.82 1822.69,568.5 1817.79,562.4 1812.89,557.51 
	1793.29,539.21 "/>
<polygon class="st0" points="1914.58,793.04 1914.58,1238.46 1921.93,1233.58 1921.93,793.04 1914.58,793.04 "/>
<polygon class="st0" points="1940.31,895.55 1940.31,935.82 1940.31,987.07 1940.31,1002.94 1941.53,1134.73 1943.98,1181.11 
	1980.73,1150.6 1983.18,1126.19 1984.41,1001.72 1970.93,988.29 1966.03,976.09 1961.13,962.67 1953.78,935.82 1943.98,895.55 
	1940.31,895.55 "/>
<g>
	<path d="M875.34,2113.12c-1.75,1.18-3.8,1.77-6.13,1.77c-2.19,0-4.13-0.85-5.81-2.53c-1.69-1.67-2.89-4.97-3.62-9.92
		c-0.74-4.94-1.1-18.39-1.1-40.33v-78.15c0-22.28-1.31-37.03-3.94-44.23c-4.09-11.06-10.44-19.19-19.06-24.38
		c-11.4-6.87-26.01-10.31-43.84-10.31c-23.22,0-41.27,6.03-54.13,18.1c-12.86,12.05-19.28,25.3-19.28,39.7
		c0,7.54,1.71,13.49,5.15,17.85c3.43,4.35,7.86,6.53,13.26,6.53c5.56,0,10.05-2.1,13.48-6.29c3.43-4.18,5.16-10.12,5.16-17.83
		l-0.44-14.58c0-7.36,2.77-13.91,8.32-19.6c5.4-5.7,12.71-8.56,21.91-8.56c12.13,0,21.37,4.28,27.73,12.83
		c6.35,8.54,9.53,24.29,9.53,47.23v9.05c-34.48,14.41-59.14,26.65-73.96,36.69c-14.83,10.05-25.25,20.78-31.23,32.17
		c-4.38,8.2-6.57,17.92-6.57,29.14c0,17.76,4.49,32.09,13.47,42.97c8.98,10.89,20.42,16.34,34.3,16.34c8.91,0,17.31-2.1,25.2-6.28
		c5.25-2.85,18.19-13.41,38.79-31.66c0.14,13.73,2.34,23.46,6.57,29.14c4.24,5.69,9.93,8.54,17.1,8.54
		c14.9,0,30.53-12.56,46.89-37.68v-14.08C884.32,2104.83,878.41,2110.96,875.34,2113.12z M822.52,2092.53
		c-18.11,16.75-32.73,25.12-43.83,25.12c-8.18,0-15.42-3.97-21.69-11.94c-6.28-7.95-9.43-17.97-9.43-30.02
		c0-9.56,2.48-18.36,7.45-26.39c4.96-8.04,13.22-15.75,24.76-23.12c6.43-4.18,20.68-11.3,42.74-21.36V2092.53z"/>
	<path d="M1018.45,1905.05c-17.68,0-34.92,17.26-51.73,51.78v-51.78h-9.2l-60.7,28.16l2.19,9.04c5.7-2.51,10.81-3.77,15.34-3.77
		c3.8,0,6.97,1.17,9.53,3.52c2.56,2.34,4.31,6.07,5.26,11.18c0.95,5.12,1.42,21.08,1.42,47.88v89.21c0,13.4-0.36,21.52-1.09,24.37
		c-1.47,5.86-4.02,10.14-7.67,12.81c-4.97,3.69-12.57,5.54-22.79,5.54v9.04h102.78v-9.04c-9.06,0-16-1.51-20.82-4.52
		c-4.82-3.03-8.18-6.79-10.07-11.31c-2.78-6.54-4.17-16.17-4.17-28.91v-110.31c7.02-15.75,13.81-27.07,20.38-33.92
		c3.07-3.36,5.92-5.03,8.55-5.03c3.07,0,7.78,2.88,14.13,8.66c6.36,5.78,12.09,8.67,17.2,8.67c5.26,0,9.79-2.26,13.59-6.78
		c3.81-4.52,5.7-10.06,5.7-16.59c0-7.38-2.62-13.86-7.89-19.48C1033.13,1907.86,1026.48,1905.05,1018.45,1905.05z"/>
	<path d="M1198.15,2093.02c-11.39,11.23-24.25,16.84-38.57,16.84c-20.01,0-35.91-10.51-47.67-31.54
		c-11.76-21.02-17.64-45.27-17.64-72.75c0-26.97,5.92-48.66,17.75-65.08c8.91-12.41,20.67-18.6,35.29-18.6
		c9.06,0,16.14,2.52,21.26,7.54c5.11,5.19,8.07,12.73,8.87,22.61c0.8,9.89,2.44,16.59,4.93,20.11c4.38,6.37,10.88,9.55,19.5,9.55
		c6.44,0,11.44-1.97,15.02-5.91c3.58-3.92,5.36-9.08,5.36-15.44c0-12.9-6.35-25.33-19.07-37.32c-12.7-11.99-28.92-17.98-48.64-17.98
		c-26.3,0-48.84,11.32-67.61,33.94c-18.78,22.6-28.16,52.02-28.16,88.2c0,37.36,8.47,67.02,25.42,88.96
		c16.95,21.95,36.82,32.92,59.61,32.92c19.14,0,36.6-8.17,52.38-24.5c15.78-16.33,26.37-39.66,31.78-69.99l-6.35-3.52
		C1214,2071.33,1206.18,2085.32,1198.15,2093.02z"/>
	<path d="M1354.84,1905.05c-16.65,0-32.43,4.99-47.33,14.95c-14.91,9.98-26.93,25.39-36.05,46.25c-9.14,20.85-13.7,41.83-13.7,62.94
		c0,28.99,7.52,55.12,22.57,78.41c17.82,27.64,41.86,41.46,72.1,41.46c18.55,0,35.4-5.37,50.51-16.08
		c15.12-10.72,26.99-26.64,35.61-47.74c8.61-21.1,12.93-41.97,12.93-62.58c0-29.31-7.82-55.28-23.44-77.91
		C1409.63,1918.29,1385.23,1905.05,1354.84,1905.05z M1396.92,2111.12c-9.21,13.4-20.9,20.1-35.06,20.1
		c-19,0-34.3-12.15-45.92-36.44c-11.61-24.29-17.42-53.18-17.42-86.7c0-20.76,2.41-37.77,7.23-51.01
		c4.83-13.23,11.15-22.49,18.97-27.77c7.81-5.28,15.59-7.91,23.33-7.91c16.07,0,29.29,8.04,39.67,24.13
		c15.34,23.45,23.01,55.61,23.01,96.49C1410.72,2074.68,1406.12,2097.72,1396.92,2111.12z"/>
	<path d="M1845.73,1940.83c-14.21-16.18-32.38-24.29-54.49-24.29c-26.13,0-47.85,10.49-65.14,31.46
		c-17.31,20.96-25.95,50.2-25.95,87.66c0,34.61,8.43,62.16,25.31,82.65c16.86,20.5,37.14,30.74,60.82,30.74
		c21.82,0,39.98-8.97,54.48-26.9c14.5-17.94,23.26-37.85,26.27-59.7l-6.67-4.79c-6.46,19.14-14.46,32.65-24.01,40.55
		c-9.55,7.88-20.78,11.83-33.7,11.83c-19.38,0-36.25-9.24-50.6-27.75c-14.36-18.5-21.47-44.02-21.32-76.55h136.3
		C1867.03,1978.66,1859.93,1957.02,1845.73,1940.83z M1730.73,1991.9c1.57-18.34,7.06-32.66,16.47-42.94
		c9.4-10.29,20.06-15.42,31.97-15.42c7.76,0,15.19,2.54,22.29,7.65c7.11,5.1,12.45,12.11,16.05,21.05
		c2.29,5.74,3.8,15.63,4.53,29.66H1730.73z"/>
	<polygon points="774,1828.68 774,1823.64 736.07,1823.64 736.07,1873.86 777.24,1873.86 777.55,1873.86 783.25,1873.86 
		793.66,1861.72 801.76,1873.86 819.66,1873.86 805.06,1851.6 817.77,1836.77 811.79,1836.77 802.44,1847.56 795.37,1836.77 
		777.37,1836.77 791.09,1857.74 777.55,1873.5 777.55,1868.82 753.04,1868.82 753.04,1848.91 770.65,1848.91 770.65,1843.88 
		753.04,1843.88 753.04,1828.68 	"/>
	<path d="M859.39,1847.41c0-7.8-5.02-11.71-15.05-11.71c-6.97,0-12.52,1.85-16.66,5.55c-4.14,3.68-6.22,8.63-6.22,14.84
		c0,12.38,7.11,18.56,21.35,18.56c11.99,0,17.99-4.69,17.99-14.11l-0.05-1.51l-6.59-1.73c0.34,2.03,0.5,3.5,0.5,4.41
		c0,6.44-2.89,9.68-8.68,9.68c-3.17,0-5.34-1.2-6.51-3.59c-1.17-2.4-1.76-6.8-1.76-13.22c0-10.4,2.74-15.6,8.23-15.6
		c4.15,0,6.21,2.64,6.21,7.94l-0.09,3.54L859.39,1847.41z"/>
	<path d="M884.71,1835.75c-5.98,0-10.87,1.9-14.7,5.73c-3.83,3.82-5.74,8.73-5.74,14.72c0,12.33,7.2,18.51,21.59,18.51
		c11.12,0,17-4.29,17.66-12.85l-6.3-1.57c0.05,0.96,0.09,1.8,0.09,2.55c0,5.48-2.69,8.23-8.06,8.23c-5.74,0-8.61-4.85-8.61-14.56
		h22.79C903.43,1842.66,897.19,1835.75,884.71,1835.75z M880.6,1852.34l0.17-3.35c0.35-6.41,1.89-9.6,4.62-9.6
		c3.04,0,4.55,4.31,4.55,12.94H880.6z"/>
	<path d="M909.98,1823.64v50.21h15.64v-50.95C919.52,1823.39,914.3,1823.64,909.98,1823.64z"/>
	<path d="M960.6,1836.7v37.16h15.64v-20.31c0-2.99,0.67-5.58,2.01-7.77c1.34-2.21,2.93-3.29,4.76-3.29c1.8,0,2.7,1.39,2.7,4.15
		v27.22h15.64v-28.55c0-6.32-3.63-9.49-10.89-9.49c-5.6,0-10.34,2.3-14.22,6.92v-6.97C971.17,1836.39,965.96,1836.7,960.6,1836.7z"
		/>
	<path d="M1029.58,1835.82c-14.32,0-21.47,6.48-21.47,19.42c0,12.94,7.15,19.41,21.47,19.41c14.28,0,21.42-6.47,21.42-19.41
		C1051,1842.3,1043.86,1835.82,1029.58,1835.82z M1029.53,1871.4c-3.45,0-5.18-5.39-5.18-16.15c0-10.77,1.73-16.15,5.18-16.15
		c3.49,0,5.23,5.38,5.23,16.15C1034.76,1866,1033.01,1871.4,1029.53,1871.4z"/>
	<path d="M1070.16,1874.26c6.59,0,10.51-1.93,11.73-5.82l-4.45-0.36c-0.18,1.11-0.7,1.67-1.59,1.67c-1.23,0-1.84-0.83-1.84-2.48
		v-26.22h6.94v-4.16h-6.94v-12.06c-5.03,2.4-10.23,4.24-15.64,5.51v6.54h-5.22v4.16h5.22v24.61
		C1058.37,1871.4,1062.3,1874.26,1070.16,1874.26z"/>
	<path d="M1156.71,1838.51c0-10.45-6.33-15.67-18.98-15.67c-8.12,0-14.69,2.48-19.75,7.41c-5.06,4.94-7.58,11.39-7.58,19.33
		c0,16.76,8.66,25.14,26,25.14c6.92,0,12.44-1.45,16.54-4.38c4.11-2.93,6.17-6.83,6.17-11.7c0-0.94-0.06-2.04-0.17-3.31l-7.25-1.63
		c0.37,2.17,0.56,3.79,0.56,4.89c0,3.46-1.12,6.35-3.36,8.65c-2.24,2.31-5.05,3.45-8.42,3.45c-8.17,0-12.26-6.76-12.26-20.26
		c0-15.71,3.66-23.58,10.97-23.58c6.92,0,10.37,3.69,10.37,11.11c0,0.81-0.04,1.94-0.13,3.41L1156.71,1838.51z"/>
	<path d="M1205.68,1855.24c0-12.95-7.14-19.42-21.42-19.42c-14.32,0-21.47,6.48-21.47,19.42c0,12.94,7.16,19.41,21.47,19.41
		C1198.53,1874.65,1205.68,1868.19,1205.68,1855.24z M1179.04,1855.24c0-10.77,1.72-16.15,5.18-16.15c3.48,0,5.22,5.38,5.22,16.15
		c0,10.76-1.74,16.15-5.22,16.15C1180.76,1871.4,1179.04,1866,1179.04,1855.24z"/>
	<path d="M1259.93,1846.02v27.84h15.63v-28.77c0-6.25-3.6-9.38-10.8-9.38c-5.22,0-9.58,2.03-13.07,6.06
		c-2.2-3.99-5.56-5.99-10.06-5.99c-5.41,0-9.95,2.14-13.63,6.37v-6.39c-5.15,0.61-10.35,0.91-15.65,0.91v37.19h15.65v-20.96
		c0-6.97,1.93-10.45,5.82-10.45c1.49,0,2.23,1.39,2.23,4.17v27.25h15.64v-21c0-6.98,1.91-10.49,5.74-10.49
		C1259.1,1842.36,1259.93,1843.58,1259.93,1846.02z"/>
	<path d="M1284.22,1836.82v49.58h15.63v-15.59c2.69,2.69,6.13,4.04,10.3,4.04c10.14,0,15.21-6.54,15.21-19.6
		c0-5.91-1.35-10.63-4.03-14.15c-2.69-3.53-6.27-5.28-10.76-5.28c-4.19,0-7.76,1.87-10.71,5.63v-5.59
		C1293.86,1836.5,1288.65,1836.82,1284.22,1836.82z M1304.87,1841.23c2.83,0,4.25,4.62,4.25,13.84c0,9.58-1.49,14.38-4.46,14.38
		c-3.31,0-4.97-4.79-4.97-14.38C1299.69,1845.84,1301.42,1841.23,1304.87,1841.23z"/>
	<path d="M1350.42,1835.75c-5.98,0-10.88,1.9-14.7,5.73c-3.83,3.82-5.75,8.73-5.75,14.72c0,12.33,7.21,18.51,21.6,18.51
		c11.11,0,17-4.29,17.66-12.85l-6.3-1.57c0.06,0.96,0.09,1.8,0.09,2.55c0,5.48-2.69,8.23-8.06,8.23c-5.73,0-8.61-4.85-8.61-14.56
		h22.8C1369.14,1842.66,1362.9,1835.75,1350.42,1835.75z M1346.3,1852.34l0.18-3.35c0.34-6.41,1.88-9.6,4.62-9.6
		c3.04,0,4.54,4.31,4.54,12.94H1346.3z"/>
	<path d="M1376.6,1830.33v6.54h-5.24v4.16h5.24v24.61c0,5.74,3.92,8.6,11.79,8.6c6.59,0,10.51-1.93,11.74-5.82l-4.46-0.36
		c-0.17,1.11-0.7,1.67-1.59,1.67c-1.22,0-1.84-0.83-1.84-2.48v-26.22h6.94v-4.16h-6.94v-12.06
		C1387.2,1827.22,1382,1829.06,1376.6,1830.33z"/>
	<path d="M1422.58,1835.75c-5.98,0-10.88,1.9-14.7,5.73c-3.82,3.82-5.74,8.73-5.74,14.72c0,12.33,7.2,18.51,21.6,18.51
		c11.12,0,17-4.29,17.66-12.85l-6.3-1.57c0.06,0.96,0.09,1.8,0.09,2.55c0,5.48-2.68,8.23-8.06,8.23c-5.74,0-8.61-4.85-8.61-14.56
		h22.8C1441.3,1842.66,1435.05,1835.75,1422.58,1835.75z M1418.46,1852.34l0.18-3.35c0.34-6.41,1.88-9.6,4.62-9.6
		c3.04,0,4.54,4.31,4.54,12.94H1418.46z"/>
	<path d="M2046.39,1018.9l-1.22-4.88c-0.26-1.04-0.64-2.05-1.12-3l-2.45-4.88c-0.27-0.54-0.58-1.07-0.92-1.57l-7.35-10.98
		c-0.18-0.26-0.36-0.52-0.56-0.77l-15.46-20.14l-12.98-21.17l-13.24-22.78l-11.84-22.4l-6.98-16.23l-7.14-18.96l-12.17-36.35
		c-0.08-0.25-0.18-0.5-0.27-0.75l-18.43-46.5l-18.4-45.2l-22.01-53.59l-29.4-73.22c-0.06-0.14-0.12-0.29-0.18-0.43l-8.58-19.53
		c-0.21-0.48-0.45-0.95-0.71-1.4l-9.8-17.08c-0.33-0.58-0.7-1.13-1.11-1.66l-69.62-90.03l-30.53-43.79l-24.5-34.17
		c-0.05-0.07-0.1-0.14-0.15-0.21l-24.16-32.48l-11.94-19.03c-0.22-0.35-0.46-0.69-0.7-1.02l-7.35-9.76
		c-0.64-0.85-1.38-1.64-2.19-2.33l-8.58-7.32c-0.62-0.53-1.29-1.01-2-1.43l-6.13-3.66c-0.67-0.4-1.37-0.74-2.09-1.03l-6.12-2.44
		c-0.14-0.06-0.29-0.11-0.43-0.17l-13.48-4.88c-0.21-0.08-0.42-0.15-0.64-0.21l-39.08-12.16l-37.5-12.05l-60.58-24.14l-58.59-25.53
		c-0.18-0.08-0.37-0.16-0.56-0.23l-43.87-16.99l-42.17-18l-66.81-34.42l-6.42-10.97c-0.25-0.43-0.52-0.84-0.81-1.24l-9.8-13.42
		c-0.31-0.43-0.65-0.84-1.01-1.23l-23.23-25.57c-0.51-0.56-1.06-1.09-1.65-1.56l-19.6-15.86c-0.36-0.29-0.73-0.56-1.11-0.82
		l-11.03-7.32c-0.33-0.22-0.67-0.42-1.01-0.61l-11.03-6.1c-0.48-0.27-0.97-0.5-1.48-0.71l-14.7-6.1c-0.43-0.18-0.88-0.34-1.32-0.48
		L1164.19,81c-0.71-0.22-1.42-0.38-2.15-0.49l-33.08-4.88c-0.14-0.02-0.29-0.04-0.43-0.06l-20.83-2.44
		c-0.28-0.03-0.56-0.06-0.85-0.07l-20.83-1.22c-0.28-0.02-0.57-0.03-0.86-0.03h-19.6c-0.57,0-1.14,0.03-1.7,0.1l-20.83,2.44
		c-0.33,0.04-0.66,0.09-0.98,0.15l-19.6,3.66c-0.83,0.16-1.64,0.38-2.44,0.68l-19.6,7.32c-0.24,0.09-0.49,0.19-0.73,0.29L980.08,95
		c-0.35,0.15-0.69,0.32-1.02,0.49l-18.38,9.76c-0.31,0.17-0.63,0.35-0.93,0.54l-23.28,14.64c-0.52,0.33-1.01,0.69-1.49,1.07
		l-20.67,16.95l-18.38,14.65c-0.84,0.67-1.61,1.44-2.29,2.28l-4.9,6.1c-0.79,0.98-1.44,2.05-1.96,3.2l-4.9,10.98
		c-0.4,0.89-0.71,1.82-0.92,2.78l-2.45,10.98c-0.1,0.45-0.18,0.91-0.24,1.36l-2.45,19.53c-0.11,0.91-0.14,1.83-0.08,2.74l0.75,11.94
		l-50.42,40.4c-0.06,0.05-0.13,0.11-0.2,0.16L804,283.74l-16.72,13.09l-16.16,11.5l-12.23,6.65l-12.38,5.61l-27.28,9.45l-27.9,8.46
		c-0.25,0.08-0.49,0.16-0.74,0.25l-12.76,4.62l-13.96,3.48c-0.9,0.23-1.79,0.54-2.63,0.93l-18.38,8.54
		c-0.12,0.06-0.24,0.11-0.36,0.17l-19.6,9.76c-0.28,0.14-0.56,0.29-0.83,0.45l-14.7,8.54c-0.1,0.06-0.2,0.12-0.3,0.18l-15.93,9.76
		c-0.15,0.09-0.3,0.19-0.45,0.28l-14.7,9.76c-0.4,0.26-0.78,0.55-1.15,0.85l-13.48,10.98c-0.25,0.2-0.49,0.41-0.72,0.63
		l-18.38,17.08c-0.12,0.12-0.24,0.23-0.36,0.35l-8.58,8.54c-0.49,0.49-0.95,1.01-1.36,1.57l-7.35,9.76
		c-0.21,0.28-0.41,0.57-0.61,0.87l-11.03,17.08c-0.29,0.44-0.55,0.9-0.78,1.37l-4.9,9.76c-0.23,0.46-0.44,0.93-0.62,1.41l-3.68,9.76
		c-0.12,0.31-0.22,0.62-0.32,0.94l-3.68,12.2c-0.41,1.37-0.62,2.79-0.62,4.22v9.24l-8.65,20.45c-0.31,0.74-0.57,1.51-0.75,2.3
		l-6.08,25.43l-4.85,18.12c-0.1,0.36-0.18,0.72-0.25,1.08l-3.67,19.52c-0.06,0.29-0.1,0.59-0.14,0.88l-4.08,32.54l-10.53,7.26
		c-0.32,0.22-0.63,0.46-0.94,0.7l-13.48,10.98c-0.38,0.31-0.74,0.63-1.08,0.98l-13.48,13.42c-0.31,0.31-0.61,0.64-0.9,0.98
		l-12.25,14.64c-0.33,0.4-0.65,0.82-0.94,1.25l-7.35,10.98c-0.34,0.51-0.65,1.03-0.92,1.58l-6.12,12.2
		c-0.13,0.26-0.25,0.52-0.36,0.78l-11.03,25.63c-0.07,0.15-0.13,0.31-0.19,0.46l-8.58,21.97c-0.31,0.79-0.55,1.61-0.72,2.44
		l-4.22,21.01l-6.44,8.25c-0.36,0.47-0.7,0.95-1,1.46l-7.35,12.2c-0.1,0.17-0.2,0.35-0.3,0.52l-7.35,13.42
		c-0.08,0.15-0.17,0.31-0.25,0.46l-6.12,12.2c-0.16,0.32-0.31,0.65-0.44,0.98l-8.58,20.75c-0.22,0.54-0.41,1.1-0.57,1.66
		l-6.12,21.97c-0.03,0.09-0.05,0.18-0.07,0.27l-11,42.6l-15.93,59.8c-0.92,3.46-0.54,7.14,1.06,10.34l6.01,11.96l5.6,12.27
		l3.34,11.08l3.43,12.53l2.13,12.71v27.41l-1.18,12.96l-1.22,15.86c-0.06,0.75-0.06,1.5,0,2.25l1.22,15.86
		c0.06,0.82,0.2,1.64,0.4,2.44l3.68,14.65c0.18,0.71,0.41,1.41,0.69,2.09l6.18,14.78l3.67,8.54c0.42,0.97,0.94,1.89,1.55,2.75
		l6.13,8.54c0.21,0.3,0.44,0.58,0.67,0.86l6.12,7.32c0.28,0.34,0.58,0.67,0.9,0.98l3.52,3.51l2.02,25.12
		c0.03,0.42,0.08,0.83,0.15,1.24l4.92,29.39l4.9,28.07c0.08,0.45,0.18,0.9,0.3,1.35l7.35,26.85c0.05,0.17,0.1,0.34,0.15,0.52
		l6.13,19.53c0.24,0.75,0.53,1.48,0.88,2.19l4.9,9.76c0.12,0.24,0.25,0.48,0.39,0.72l4.9,8.54c0.43,0.74,0.92,1.45,1.47,2.11
		l6.13,7.32c0.57,0.68,1.2,1.31,1.88,1.88l21.91,18.19l19.1,16.65l17.66,17.59l15.63,17.96l8.58,9.76c0.67,0.76,1.42,1.46,2.24,2.07
		l9.8,7.32c0.13,0.09,0.26,0.19,0.39,0.28l12.25,8.54c0.56,0.39,1.15,0.74,1.76,1.05l-0.25,24.82v624.86
		c0,33.22-0.57,36.71-15.68,39.57l-5.12,0.93c-1.7,1.9-1.14,6.97,0.57,7.93c8.89-0.28,17.22-0.76,27.12-0.91
		c18.17,0.15,26.38,0.64,35.15,0.91c0.65-0.37,3.43-1.33,6.52-2.48c12.13,3.74,28.12,6.59,40.04,6.59
		c27.33,0,51.77-10.26,70.95-31.13c19.97-21.63,33.12-56.42,33.12-97.09c0-47.26-16.3-80.61-37.33-100.75
		c-19.18-17.95-41.79-24.55-65.43-24.55c-16.82,0-35.74,5.49-41.52,8.41c-2.89,1.47-6.04,2.94-9.19,3.67
		c-0.49,0.86-1.02,1.99-1.58,3.33v-439.31c0-2.76,0-6.13-0.01-9.65l4.34,0.78l10.75,2.38c1.04,0.23,2.1,0.34,3.16,0.34h12.25
		c0.54,0,1.08-0.03,1.61-0.09l5.77-0.64l0.47,1.85c0.26,1.04,0.64,2.05,1.12,3.01l2.45,4.88c0.46,0.92,1.02,1.79,1.67,2.6l4.9,6.1
		c0.94,1.17,2.06,2.2,3.32,3.03l7.35,4.88c1.08,0.72,2.25,1.29,3.48,1.7l4.8,1.6l-7.43,91.94c-0.03,0.39-0.05,0.79-0.05,1.18v8.54
		c0,0.7,0.05,1.39,0.15,2.08l1.23,8.54c0.18,1.28,0.53,2.52,1.04,3.71l3.68,8.54c0.74,1.71,1.8,3.27,3.12,4.59l9.8,9.76
		c1.11,1.11,2.4,2.03,3.81,2.73l4.9,2.44c0.39,0.2,0.8,0.36,1.21,0.52v241.81h13.59v-238.34l9.06,2v236.34h36.2v-223.41l0.96,0.48
		l12.12,6.58l0.51,0.41v140.77h31.69v-108.39l3.78,5.27l6.05,12.06l3.28,14.16c0.12,0.51,0.3,0.99,0.47,1.49v75.42h13.58v-60.97
		l0.39,0.34c0.28,0.24,0.56,0.47,0.86,0.69l9.8,7.33c0.53,0.4,1.09,0.76,1.67,1.08l0.87,0.48v51.06h9.03v-46.06l1.13,0.63
		c0.38,0.21,0.77,0.4,1.17,0.58l11.03,4.88c0.43,0.19,0.87,0.36,1.31,0.51l17.06,5.67v33.8h9.06v-31.28l11.49,3.05
		c0.6,0.16,1.21,0.28,1.83,0.36l0.27,0.04v27.83h36.21v-23.17l1.63,0.2c0.16,0.02,0.33,0.04,0.49,0.05l11.46,1.04v21.88h31.7v-20.42
		h12.07c0.21,0,0.42,0,0.63-0.01l0.87-0.04v20.47h9.06v-20.87l13.59-0.6v21.47h9.04v-21.87l13.59-0.6v22.47h36.21v-25.11l2.75-0.23
		c0.2-0.02,0.4-0.04,0.6-0.07l29.4-3.66c0.31-0.04,0.62-0.09,0.93-0.15l2.52-0.48v29.7h9.08v-31.43l36.21-6.9v38.33h9.05v-40.06
		l0.77-0.15l12.82-2.48v42.69h9.04v-44.44l22.24-4.31c0.41-0.08,0.82-0.18,1.22-0.29l8.25-2.35v51.39h36.2v-61.69l13.58-3.87v62.86
		h31.68v-71.95l18.12-5.52v77.47h4.51v-78.84l17.75-5.4l18.5-5.58v89.83h9.03v-92.55l12.9-3.89c0.23-0.07,0.46-0.15,0.69-0.23v96.68
		h9.07v-99.96l13.55-4.91v104.87h36.21v-118.19l13.59-5.08v123.27h4.52v-124.96l2.75-1.03l15.36-5.57v131.55h31.7v-145.5
		c1.74-2.28,2.83-5.06,3-8.04l5.53-94.71l2.42-0.72c0.59-0.18,1.17-0.39,1.74-0.64l5.39-2.39v325.92h9.07v-330.11l6.96-3.46
		c0.42-0.21,0.82-0.43,1.22-0.68l9.8-6.1c0.42-0.26,0.83-0.55,1.23-0.85l11.03-8.54c0.53-0.41,0.99-0.89,1.46-1.37v351.12h9.06
		v-361.32l0.09-0.11c0.19-0.21,0.37-0.43,0.54-0.65l8.58-10.98c0.46-0.59,0.88-1.22,1.25-1.88l3.11-5.57v380.51h13.62v-440.62
		l5.86-10l3.72-4.63l4.81-4.79l3.46-2.59l3.75-2.24l10.92-2.97l12.64-2.29l14.7-2.44c0.3-0.05,0.59-0.11,0.89-0.18l19.22-4.42
		v522.14c-1.9-6.4-3.82-11.55-5.32-14.21c-3.16-0.73-6.3-2.2-9.19-3.67c-5.79-2.92-24.71-8.41-41.52-8.41
		c-23.65,0-46.25,6.6-65.43,24.55c-21.03,20.14-37.32,53.49-37.32,100.75c0,40.66,13.15,75.46,33.12,97.09
		c19.18,20.87,43.62,31.13,70.95,31.13c12.6,0,29.75-3.18,42.08-7.24c3.72,1.43,7.45,2.69,8.21,3.13
		c8.77-0.27,16.99-0.76,35.16-0.91c9.9,0.15,18.23,0.63,27.11,0.91c1.71-0.96,2.28-6.03,0.56-7.93l-5.12-0.93
		c-15.09-2.86-15.68-6.35-15.68-39.57v-706.81l1.46-0.42c0.68-0.19,1.34-0.43,1.98-0.72l24.5-10.98c0.18-0.08,0.36-0.16,0.54-0.25
		l12.25-6.1c0.64-0.32,1.26-0.69,1.85-1.1l12.25-8.54c0.25-0.18,0.49-0.38,0.74-0.57v513.85h4.19v-517.4l4.78-4.08
		c0.28-0.24,0.56-0.5,0.82-0.76l8.58-8.54c0.49-0.49,0.95-1.01,1.36-1.57l1.28-1.7v534.05h33.6v-557.66l17.03-7.98l12.4-5.4v571.05
		h8.41v-574.71l18.08-7.88l41.7-17.1l25.73-10.98c0.82-0.35,1.61-0.78,2.35-1.27l7.35-4.88c1.17-0.78,2.23-1.72,3.13-2.8l6.12-7.32
		c0.34-0.4,0.65-0.82,0.94-1.25l4.9-7.32c0.19-0.28,0.37-0.57,0.53-0.86l9.8-17.08c0.37-0.65,0.69-1.32,0.96-2.01l6.12-15.86
		c0.27-0.71,0.49-1.45,0.66-2.19l2.58-11.97l14.29-11.38c0.28-0.22,0.55-0.46,0.82-0.7l17.08-15.8l14.7-13.42
		c0.16-0.14,0.31-0.29,0.46-0.44l6.13-6.1c0.31-0.31,0.62-0.64,0.9-0.98l6.12-7.32c0.55-0.66,1.04-1.36,1.47-2.11l4.9-8.54
		c0.14-0.23,0.26-0.47,0.38-0.71l3.68-7.32c0.13-0.26,0.25-0.52,0.37-0.78l7.35-17.09c0.25-0.57,0.45-1.15,0.62-1.75l4.9-17.08
		c0.11-0.38,0.2-0.77,0.28-1.16l3.64-18.15l4.87-21.81c0.11-0.52,0.2-1.04,0.26-1.56l1.23-10.98c0.06-0.54,0.09-1.08,0.09-1.62
		v-4.88C2046.83,1021.26,2046.69,1020.06,2046.39,1018.9z M1635.7,2087.73c-1.52-0.33-3.22,0.07-4.26,1.31
		c-3.95,24.91-15.77,53.49-53.88,53.49c-40.2,0-74.36-35.54-74.36-111.39c0-76.91,34.94-119.42,78.05-119.42
		c33.06,0,48.13,29.29,54.45,50.79V2087.73z M552.37,1951.76c7.86-19.37,22.93-40.04,50.72-40.04c43.1,0,78.03,42.51,78.03,119.42
		c0,75.85-34.15,111.39-74.36,111.39c-38.11,0-49.93-28.58-53.87-53.49c-0.16-0.19-0.34-0.33-0.53-0.48V1951.76z M2017.55,1026.53
		l-1.05,9.38l-4.73,21.19c-0.02,0.1-0.04,0.21-0.06,0.31l-3.56,17.72l-4.48,15.62l-6.81,15.84l-3.3,6.57l-4.05,7.07l-4.87,5.82
		l-5.43,5.41l-14.53,13.27l-16.76,15.5l-17.96,14.31c-2.64,2.11-4.48,5.07-5.19,8.37l-3.44,15.96l-5.31,13.75l-8.99,15.68
		l-4.18,6.25l-4.26,5.09l-4.46,2.97l-24.3,10.37l-41.65,17.08c-0.1,0.04-0.2,0.08-0.29,0.12l-39.2,17.09
		c-0.12,0.05-0.25,0.11-0.37,0.17l-20.68,9.69l-10.89,4.82c-0.9,0.4-1.76,0.89-2.56,1.46l-8.58,6.1c-0.09,0.06-0.18,0.13-0.27,0.2
		l-9.8,7.32c-1.11,0.83-2.1,1.82-2.94,2.92l-6.72,8.93l-7.44,7.41l-7.6,6.49l-10.78,7.52l-11.02,5.49l-23.26,10.42l-24.34,6.93
		l-31.05,7.14l-14.47,2.4l-13.48,2.44c-0.41,0.08-0.82,0.17-1.23,0.28l-13.48,3.66c-1.29,0.35-2.53,0.88-3.68,1.57l-6.12,3.66
		c-0.43,0.26-0.84,0.54-1.24,0.83l-4.9,3.66c-0.56,0.42-1.08,0.87-1.57,1.36l-6.13,6.1c-0.38,0.38-0.74,0.79-1.08,1.21l-4.9,6.1
		c-0.45,0.56-0.85,1.15-1.22,1.77l-8.58,14.64c-0.37,0.63-0.69,1.28-0.96,1.95l-2.45,6.1c-0.34,0.83-0.59,1.69-0.77,2.57l-1.23,6.1
		c-0.19,0.95-0.29,1.92-0.29,2.89v12.76l-1.09,11.98l-0.81,4.01l-1.6,3.99l-5.12,9.18l-7.62,9.75l-7.37,8.39l-9.33,7.22l-8.57,5.34
		l-8.88,4.42l-9.88,4.38l-11.36,3.39c-5.9,1.76-10.07,7.03-10.43,13.18l-5.56,95.32l-31.5,11.41l-39.07,14.59l-40.06,14.51
		l-84.05,25.49l-85.03,24.19l-43.45,8.42l-57.12,10.89l-28.63,3.56l-28.83,2.39l-54.51,2.41h-25.98l-26.05-2.36l-19.24-2.4
		l-17.45-2.32l-17.04-4.52l-17.28-5.74l-9.79-4.33l-9.58-5.3l-8.56-6.4l-5.81-5.07l-2.61-11.24c-0.26-1.13-0.66-2.23-1.18-3.26
		l-7.35-14.65c-0.34-0.68-0.74-1.34-1.19-1.96l-12.25-17.09c-0.25-0.35-0.52-0.69-0.8-1.02l-7.35-8.54
		c-0.49-0.57-1.02-1.1-1.59-1.59l-8.58-7.32c-0.13-0.11-0.25-0.21-0.38-0.32l-12.25-9.76c-0.67-0.53-1.38-1.01-2.14-1.42
		l-13.48-7.32c-0.15-0.08-0.3-0.16-0.46-0.24l-14.7-7.32c-0.62-0.31-1.26-0.57-1.91-0.79l-14.7-4.88c-0.48-0.16-0.96-0.29-1.45-0.4
		l-21.86-4.84l-8.06-2.01l-1.34-0.67l-6.12-6.09l-1.79-4.16l-0.8-5.58v-6.91l8.53-105.58c0.33-4.08-1.06-8.1-3.83-11.11
		c-2.77-3-6.67-4.71-10.76-4.71h-6.21l-3.25-1.08l-3.83-2.54l-2.51-3.12l-1.03-2.05l-0.39-1.56v-1.26l0.79-3.13
		c1.17-4.65-0.02-9.58-3.17-13.19c-3.15-3.61-7.88-5.46-12.64-4.92l-21.25,2.35h-9.84l-9.46-2.09c-0.19-0.04-0.37-0.08-0.56-0.11
		l-11.42-2.07l-21.67-10.79l-11.18-7.79l-8.38-6.26l-23.45-26.86c-0.23-0.26-0.47-0.52-0.71-0.76l-18.38-18.3
		c-0.23-0.23-0.47-0.45-0.71-0.66l-19.6-17.09c-0.09-0.08-0.18-0.15-0.27-0.23l-21.03-17.46l-4.44-5.31l-4.06-7.07l-4.19-8.34
		l-5.69-18.14l-7.1-25.92l-4.76-27.29l-4.8-28.67l-2.4-29.88c-0.28-3.48-1.79-6.74-4.26-9.2l-6.88-6.85l-5.35-6.39l-4.89-6.81
		l-8.69-20.57l-3.11-12.38l-1.04-13.5l1.12-14.53l1.23-13.42c0.04-0.44,0.06-0.89,0.06-1.33v-29.29c0-0.81-0.07-1.62-0.2-2.42
		l-2.45-14.64c-0.08-0.49-0.19-0.97-0.32-1.45l-3.68-13.42c-0.03-0.12-0.07-0.24-0.1-0.35l-3.68-12.2c-0.19-0.63-0.42-1.25-0.7-1.86
		l-6.13-13.42c-0.08-0.17-0.15-0.33-0.24-0.49l-3.63-7.23l14.52-54.53l10.99-42.58l5.85-20.98l8.04-19.44l5.77-11.49l7.08-12.93
		l6.74-11.18l8.03-10.29c1.4-1.8,2.37-3.89,2.82-6.13l4.65-23.15l8.02-20.55l10.75-25l5.52-11l6.41-9.57l11.32-13.53l12.49-12.44
		l12.46-10.15l15.44-10.65c3.44-2.37,5.7-6.09,6.22-10.23l4.84-38.61l3.49-18.54l4.76-17.77c0.04-0.13,0.07-0.26,0.1-0.38
		l5.84-24.45l9.33-22.07c0.76-1.8,1.16-3.74,1.16-5.7v-10.05l2.91-9.66l3.23-8.58l4.2-8.37l10.31-15.98l6.41-8.51l7.66-7.63
		l17.85-16.59l12.55-10.23l13.88-9.22l15.56-9.54l14.14-8.22l19-9.46l16.93-7.87l13.34-3.32c0.49-0.12,0.97-0.27,1.45-0.44
		l13.11-4.75l27.8-8.43c0.18-0.06,0.37-0.11,0.55-0.18l28.18-9.76c0.42-0.15,0.84-0.31,1.25-0.5l13.48-6.1
		c0.32-0.15,0.64-0.3,0.95-0.47l13.48-7.32c0.52-0.28,1.02-0.59,1.5-0.94l17.15-12.2c0.18-0.13,0.36-0.26,0.54-0.4l17.15-13.42
		c0.11-0.09,0.22-0.17,0.33-0.26l21.96-18.23l56.25-45.07c3.72-2.98,5.76-7.59,5.46-12.34l-1.14-18.15l2.19-17.47l1.98-8.87
		l3.53-7.91l2.7-3.36l17.27-13.76l20.12-16.5l22.04-13.87l17.41-9.25l18.72-8.16l18.05-6.74l17.87-3.34l19.48-2.28h18.32l19.97,1.17
		l20.18,2.36l31.77,4.69l14.2,4.35l13.29,5.52l9.79,5.42l9.96,6.61l18.18,14.71l22.02,24.24l8.89,12.18l8.2,14.01
		c1.4,2.4,3.46,4.35,5.93,5.62l71.06,36.61c0.31,0.16,0.63,0.31,0.96,0.45l42.88,18.31c0.15,0.06,0.3,0.13,0.46,0.19l43.82,16.97
		l58.53,25.51c0.14,0.06,0.29,0.12,0.43,0.18l61.25,24.41c0.31,0.12,0.62,0.24,0.94,0.34l38.11,12.24l38.88,12.1l12.96,4.69
		l4.81,1.92l4.07,2.43l6.42,5.48l6.01,7.98l11.92,19c0.21,0.33,0.42,0.65,0.65,0.96l24.43,32.85l24.31,33.9l30.63,43.93
		c0.14,0.2,0.29,0.4,0.43,0.59l69.21,89.5l8.91,15.53l8.17,18.6l29.36,73.11l22.04,53.65l18.33,45.03l18.23,46l12.13,36.23
		c0.06,0.17,0.12,0.34,0.18,0.51l7.35,19.52c0.08,0.21,0.16,0.42,0.25,0.63l7.35,17.08c0.16,0.36,0.32,0.71,0.51,1.05l12.25,23.19
		c0.09,0.18,0.19,0.35,0.29,0.52l13.48,23.19c0.06,0.1,0.12,0.2,0.18,0.3l13.48,21.97c0.27,0.43,0.55,0.85,0.87,1.26l15.64,20.37
		l6.58,9.83l1.32,2.62l0.39,1.56V1026.53z"/>
</g>
</svg>
