<svg xmlns="http://www.w3.org/2000/svg" width="64.164" height="61.485" viewBox="0 0 64.164 61.485">
  <g id="support" transform="translate(0 -8.826)">
    <g id="Group_43" data-name="Group 43" transform="translate(0 8.826)">
      <path id="Path_30" data-name="Path 30" d="M41.257,51.451V50.334a11.642,11.642,0,0,0,.911-.826,16.6,16.6,0,0,0,4.2-9.254,8.161,8.161,0,0,0,5.27-3.133c1.761-2.49,1.919-6.072.449-10.565a1.215,1.215,0,0,0-.486-.631l-.668-.449A16.467,16.467,0,0,0,47,14.388c-3.267-3.68-8.282-5.538-14.925-5.562-6.631,0-11.658,1.882-14.925,5.513a16.467,16.467,0,0,0-3.935,11.087l-.668.449a1.215,1.215,0,0,0-.486.631c-1.469,4.518-1.312,8.076.449,10.565a8.185,8.185,0,0,0,5.27,3.17A16.613,16.613,0,0,0,22,49.508a11.848,11.848,0,0,0,.911.826v1.117C18.256,52.35-.312,56.71,0,69.1a1.214,1.214,0,0,0,1.214,1.214H62.946A1.214,1.214,0,0,0,64.16,69.1C64.476,56.71,45.908,52.35,41.257,51.451Zm-24.2-13.917a5.271,5.271,0,0,1-2.575-1.882l.061.012c-1.214-1.773-1.324-4.457-.243-8l.887-.6a1.214,1.214,0,0,0,.534-1.129,14.354,14.354,0,0,1,3.3-9.994c2.745-3.109,7.153-4.663,13.055-4.688s10.31,1.579,13.1,4.688a14.354,14.354,0,0,1,3.3,9.994,1.214,1.214,0,0,0,.534,1.129l.887.6c1.081,3.534,1.008,6.23-.243,8a5.3,5.3,0,0,1-2.587,1.882,8.087,8.087,0,0,0,1.979-6.072,5.684,5.684,0,0,0-1.955-3.4c-.522-12.144-9.035-13.5-12.7-13.5a15.308,15.308,0,0,0-2.319.17,15.287,15.287,0,0,0-2.319-.17c-3.643,0-12.144,1.336-12.7,13.5a5.683,5.683,0,0,0-1.979,3.388A8.076,8.076,0,0,0,17.054,37.534Zm27.628-9.958a25.017,25.017,0,0,1-14.512-3.643,1.214,1.214,0,0,0-1.579.158c-2.429,2.611-6.861,3.218-9,3.352.656-8.586,5.853-10.456,10.225-10.456a11.739,11.739,0,0,1,2.077.17,1.212,1.212,0,0,0,.486,0,11.8,11.8,0,0,1,2.077-.17c4.335,0,9.557,1.919,10.164,10.577ZM20.017,37.765l.049.012a1.214,1.214,0,0,0-.3-.814c-1.664-1.907-2.429-3.643-2.222-5.076a3.218,3.218,0,0,1,1.105-2.052c1.6,0,7.286-.3,10.93-3.449a27.384,27.384,0,0,0,13.48,3.643,16.014,16.014,0,0,0,2.5-.134,3.206,3.206,0,0,1,1.093,1.992c.206,1.409-.559,3.17-2.222,5.076a1.214,1.214,0,0,0-.3.814v.631L37.055,42.2a3.5,3.5,0,1,0,1.093,2.538q.008-.164,0-.328l5.574-2.987a13.359,13.359,0,0,1-3.255,6.412,10.82,10.82,0,0,1-8.051,3.012h-.607a10.845,10.845,0,0,1-8.039-3C19.932,44.019,20.017,37.826,20.017,37.765Zm15.7,6.971a1.081,1.081,0,1,1-1.081-1.081A1.081,1.081,0,0,1,35.719,44.736ZM30.862,67.809H2.469c.959-9.12,15.787-12.933,20.426-13.917v2.174c0,2.757,3.352,4.858,7.966,5.21ZM25.324,56.066v-4.19a14.682,14.682,0,0,0,6.448,1.36h.607a14.682,14.682,0,0,0,6.448-1.36v4.19c0,1.154-2.635,2.817-6.752,2.817S25.324,57.22,25.324,56.066Zm7.966,11.78V61.264c4.615-.316,7.966-2.429,7.966-5.21V53.929c4.675.972,19.43,4.785,20.426,13.917Z" transform="translate(0 -8.826)" fill="#e0b340"/>
    </g>
  </g>
</svg>
