<svg xmlns="http://www.w3.org/2000/svg" width="80.834" height="61.973" viewBox="0 0 80.834 61.973">
  <g id="tracking" transform="translate(-2 -9)">
    <path id="Path_38" data-name="Path 38" d="M82.439,38.909,65.715,22.184A4.012,4.012,0,0,0,62.856,21H39.723v2.694h6.736V43.9h2.694V23.694h13.7a1.347,1.347,0,0,1,.954.395l2.3,2.3H59.931a2.694,2.694,0,0,0-2.694,2.694V41.209A2.694,2.694,0,0,0,59.931,43.9H80.14V54.681a1.347,1.347,0,0,1-1.347,1.347h-2.8a9.419,9.419,0,0,0-18.646,0H38.268a9.419,9.419,0,0,0-18.646,0h-2.8a1.347,1.347,0,0,1-1.347-1.347V42.556H12.778V54.681a4.042,4.042,0,0,0,4.042,4.042h2.8a9.4,9.4,0,0,0,2.736,5.389H2v2.694H66.667a9.439,9.439,0,0,0,9.323-8.083h2.8a4.042,4.042,0,0,0,4.042-4.042V39.861a1.347,1.347,0,0,0-.395-.952ZM22.209,57.375a6.736,6.736,0,1,1,6.736,6.736A6.736,6.736,0,0,1,22.209,57.375Zm13.323,6.736a9.4,9.4,0,0,0,2.736-5.389H57.344a9.4,9.4,0,0,0,2.736,5.389Zm31.136,0A6.736,6.736,0,1,1,73.4,57.375a6.736,6.736,0,0,1-6.736,6.736Zm-6.736-22.9V29.083H68.8L80.14,40.419v.789Z" transform="translate(0 4.167)" fill="#e0b340"/>
    <rect id="Rectangle_37" data-name="Rectangle 37" width="2.694" height="2.694" transform="translate(27.597 60.195)" fill="#e0b340"/>
    <rect id="Rectangle_38" data-name="Rectangle 38" width="2.694" height="2.694" transform="translate(65.32 60.195)" fill="#e0b340"/>
    <rect id="Rectangle_39" data-name="Rectangle 39" width="6.736" height="2.694" transform="translate(2 56.153)" fill="#e0b340"/>
    <rect id="Rectangle_40" data-name="Rectangle 40" width="4.042" height="2.694" transform="translate(4.694 50.764)" fill="#e0b340"/>
    <rect id="Rectangle_41" data-name="Rectangle 41" width="2.694" height="2.694" transform="translate(6.042 45.375)" fill="#e0b340"/>
    <path id="Path_39" data-name="Path 39" d="M19.514,44.028A17.514,17.514,0,1,0,2,26.514,17.514,17.514,0,0,0,19.514,44.028Zm0-32.334a14.82,14.82,0,1,1-14.82,14.82,14.82,14.82,0,0,1,14.82-14.82Z" transform="translate(0 0)" fill="#e0b340"/>
    <path id="Path_40" data-name="Path 40" d="M17.431,37.25a1.347,1.347,0,0,0,.952-.395c.868-.868,8.478-8.645,8.478-14.425A9.431,9.431,0,1,0,8,22.431c0,5.78,7.611,13.557,8.478,14.425A1.347,1.347,0,0,0,17.431,37.25Zm0-21.556a6.744,6.744,0,0,1,6.736,6.736c0,3.457-4.24,8.8-6.736,11.52-2.5-2.721-6.736-8.063-6.736-11.52a6.744,6.744,0,0,1,6.736-6.736Z" transform="translate(2.083 1.389)" fill="#e0b340"/>
    <path id="Path_41" data-name="Path 41" d="M20.083,21.042a4.042,4.042,0,1,0-4.042,4.042A4.042,4.042,0,0,0,20.083,21.042Zm-5.389,0a1.347,1.347,0,1,1,1.347,1.347A1.347,1.347,0,0,1,14.694,21.042Z" transform="translate(3.472 2.778)" fill="#e0b340"/>
    <rect id="Rectangle_42" data-name="Rectangle 42" width="5.389" height="2.694" transform="translate(53.195 50.764)" fill="#e0b340"/>
  </g>
</svg>
