<svg xmlns="http://www.w3.org/2000/svg" width="483.804" height="195.491" viewBox="0 0 483.804 195.491">
  <g id="Group_177" data-name="Group 177" transform="translate(-68.997 -64)">
    <g id="Group_172" data-name="Group 172" transform="translate(1 0.169)">
      <g id="Group_1" data-name="Group 1">
        <path id="Path_1" data-name="Path 1" d="M140.894,259.322c-8.164,0-16.475-1.254-20.814-5.594l-.554-.552-.065-.779a8.8,8.8,0,0,0-4.056-5.938l-9.651-4.371a3.1,3.1,0,0,1-1.614-.815c-1-.933-1.421-2.392-1.3-4.463l.992-10.593a8.558,8.558,0,0,1-2.645-1.694l-.519-.507-.158-1.108c-2.586.24-6.829-.275-11.956-4.353l-.158-.141c-1.8-1.75-5.828-5.709-7.245-7.557a9.715,9.715,0,0,1-3.246-3.039l-.125-.259c-.163-.4-3.784-9.452-3.811-16.426-1.552-1.485-4.143-5.086-3.986-12.5l.009-.414.163-.381h0s1.2-3.414-1.875-9.895l-.283-.6.1-.651c.087-.558,2.182-13.577,7.743-22.273.5-2.238,3.1-12.3,10.573-17.111.492-2.818,1.889-10.359,3.236-13.469.1-2.371,1.769-9.56,16.955-18.015l.486-.2c3.257-.877,12.2-3.74,16.305-6.879l-.118-.15a25.049,25.049,0,0,1,3.3-2.518c2.367-1.824,4.813-3.744,6.043-4.8.018-2.137.309-6.078,2.1-7.957,1.035-1.186,13.486-14.733,35.126-7.262l.343.121.285.225a55.5,55.5,0,0,1,9.428,9.875c2.608,1.1,13.545,5.7,19.6,8.443l.713.322c3.14,1.436,7.4,2.912,11.523,4.34,4.6,1.594,8.574,2.971,10.627,4.16l.361.209.258.334c.8,1.035,19.631,25.424,22.364,30.692l.074.162c.441,1.06,10.7,25.748,12.623,32.291a124,124,0,0,0,6.4,10.728c1.553,1.263,4.076,5.431-2.482,18l-.2.381-6.217,5.154c-.1,1.83-.885,5.164-4.838,8.326l-.24.19-.282.117c-2.912,1.2-10.914,4.619-12.943,6.066l-.557.4h-.681c.068,0-2.311.309-6,4.764l-.317.385-.457.2c-1.252.561-7.633,3.383-10.072,3.787l-.205.024c-2.039.14-6.689,1.009-8.063,2.794a1.549,1.549,0,0,0-.3,1.354l.039.358a13.493,13.493,0,0,1-9.5,12.562l-1.137,11.945-1.26.465c-.994.367-24.509,9.055-35.775,11.727A119.3,119.3,0,0,1,140.894,259.322Zm-17.32-8.179c7.521,6.429,30.177,3.412,38.45,1.658,9.514-2.258,28.862-9.238,33.971-11.1l1.158-12.181,1.449-.377c7.293-1.9,7.737-7.643,7.76-8.633a5.79,5.79,0,0,1,1.147-4.555c2.814-3.65,9.769-4.344,11.037-4.439a66.528,66.528,0,0,0,8.5-3.26c3.8-4.455,6.781-5.568,8.189-5.838,3.08-1.949,11.149-5.328,13.036-6.107,3.347-2.8,3.027-5.311,3.011-5.418l-.174-1.186.914-.826,6.352-5.264c4.664-9.074,3.52-11.945,3.289-12.367l-.162-.092-.262-.344c-2.558-3.345-6.879-11.408-7.062-11.75l-.174-.429c-1.617-5.746-11.793-30.283-12.484-31.951-2.221-4.176-16.092-22.429-21.641-29.619a91.1,91.1,0,0,0-9.533-3.629c-4.217-1.461-8.576-2.971-11.9-4.492l-.7-.314c-6.82-3.084-19.93-8.579-20.06-8.635l-.579-.243-.353-.515a50.953,50.953,0,0,0-8.656-9.246c-19.075-6.4-29.727,5.656-30.174,6.176l-.114.123c-.546.55-.985,3.4-.9,5.865l.031.926-.655.656c-1.122,1.123-5.384,4.43-8.1,6.508-.388.367-.843.769-1.355,1.222-4.933,4.366-16.428,7.686-18.365,8.225-14.666,8.229-14.543,14.367-14.54,14.428l.089.679-.331.522c-.993,1.861-2.5,9.375-3.216,13.672L90.294,130l-.9.5c-7.258,4.053-9.425,15.041-9.446,15.153l-.08.418-.235.357c-4.555,6.91-6.719,17.625-7.206,20.306,3.027,6.721,2.247,10.92,1.822,12.317-.063,7.144,2.886,9.191,3.013,9.277l1.018.678-.018,1.254c-.324,5.679,2.911,14.246,3.413,15.533a7.176,7.176,0,0,0,1.975,1.572l.519.287.3.516a93.917,93.917,0,0,0,6.821,7.1c6.1,4.809,9.929,3.186,10.089,3.116l2.585-1.153.709,4.623a6.282,6.282,0,0,0,1.866.76l1.871.389-.167,1.9L107.1,237.135a4.516,4.516,0,0,0,.022.881l.069.031,10.393,4.73A13.38,13.38,0,0,1,123.574,251.143Z"/>
      </g>
      <g id="Group_171" data-name="Group 171">
        <g id="Group_2" data-name="Group 2">
          <path id="Path_2" data-name="Path 2" d="M73.384,185.143c.08.142.17.291.268.439.03.049.066.1.1.148.068.1.141.205.214.313.042.057.085.113.128.172.074.1.152.205.233.307.042.054.081.107.126.162q.142.181.293.363l.082.1c.131.157.263.311.4.467.021.024.043.047.064.073.111.127.225.253.334.377l.1.111.3.328c.027.029.056.061.084.09.113.123.226.24.332.351l.013.014v-38.3c-.087.08-.169.158-.25.234l-.007.008c-.073.07-.143.137-.207.205a.531.531,0,0,0-.046.049c-.056.055-.109.107-.158.164-.014.016-.03.031-.044.049-.057.062-.111.125-.161.183a.054.054,0,0,1-.014.016c-.051.064-.1.129-.146.189-.011.014-.021.03-.031.045-.031.045-.06.088-.085.131-.011.02-.023.035-.032.055a.776.776,0,0,0-.058.115.338.338,0,0,0-.023.047.712.712,0,0,0-.047.147c-.25,1.257.5,5.162.5,6.039s-3.9,4.407-4.28,5.54.755,5.035,1.511,6.67,1.511,6.295.755,8.184S72.251,183.131,73.384,185.143Z"/>
        </g>
        <g id="Group_3" data-name="Group 3">
          <path id="Path_3" data-name="Path 3" d="M237.8,202.66l.459-.215c.076-.033.15-.07.228-.1l.571-.266c.031-.013.062-.029.1-.043.213-.1.428-.2.647-.3a.5.5,0,0,0,.053-.025c.941-.441,1.908-.9,2.847-1.346V127.323c-.136-.254-.271-.5-.4-.739-.024-.037-.045-.074-.067-.113-.265-.47-.517-.912-.757-1.312-.026-.045-.053-.088-.08-.133-.118-.193-.231-.381-.344-.555-.041-.066-.086-.135-.131-.209-.035-.054-.074-.113-.111-.174a.363.363,0,0,1-.035-.052l-.131-.205c-.012-.014-.02-.032-.032-.047-.048-.076-.1-.158-.158-.242a.047.047,0,0,0-.012-.018c-.05-.078-.105-.162-.158-.246-.013-.02-.027-.039-.039-.059l-.15-.232a.808.808,0,0,1-.055-.088c-.053-.078-.107-.158-.162-.242-.016-.028-.035-.055-.053-.082-.052-.082-.107-.166-.164-.252-.021-.031-.045-.065-.064-.1-.059-.092-.119-.184-.182-.279-.012-.016-.021-.035-.033-.049-.065-.1-.135-.2-.2-.309-.024-.031-.047-.07-.069-.1-.388-.588-.808-1.227-1.257-1.9-.01-.015-.022-.031-.03-.046-.076-.112-.15-.223-.226-.338-.03-.043-.057-.088-.086-.129-.065-.094-.127-.192-.192-.289-.043-.067-.086-.129-.13-.2-.022-.035-.047-.068-.071-.1v84.492l.516-.237C237.686,202.711,237.739,202.685,237.8,202.66Z"/>
        </g>
        <g id="Group_4" data-name="Group 4">
          <path id="Path_4" data-name="Path 4" d="M96.365,200.051a10.374,10.374,0,0,0-1.869,1.234v5.955c.6-.584,1.241-1.193,1.869-1.787Z"/>
        </g>
        <g id="Group_5" data-name="Group 5">
          <path id="Path_5" data-name="Path 5" d="M96.365,107.493l0,0c-.112.131-.221.256-.327.382-.01.01-.017.02-.027.03-.1.115-.189.226-.279.334-.015.017-.025.033-.04.049-.083.1-.162.2-.239.3-.015.02-.031.04-.047.059-.072.092-.142.18-.206.266-.017.019-.031.039-.047.06-.062.084-.121.162-.178.24-.012.018-.028.037-.04.057-.055.078-.1.15-.152.219-.01.015-.022.031-.032.047-.048.072-.089.138-.128.205a.169.169,0,0,0-.017.027c-.044.072-.079.139-.108.2v83.961c.609-.221,1.245-.436,1.869-.631Z"/>
        </g>
        <g id="Group_6" data-name="Group 6">
          <path id="Path_6" data-name="Path 6" d="M96.365,219.322v-11.3a24.407,24.407,0,0,0-1.869,2.187v8.44a12.468,12.468,0,0,0,1.864.675Z"/>
        </g>
        <g id="Group_7" data-name="Group 7">
          <path id="Path_7" data-name="Path 7" d="M96.365,195.435a14.5,14.5,0,0,0-1.869,1.036v3.463c.626-.371,1.256-.731,1.869-1.067Z"/>
        </g>
        <g id="Group_8" data-name="Group 8">
          <path id="Path_8" data-name="Path 8" d="M98.2,219.664a.305.305,0,0,0,.06.006c.183.018.368.031.554.037h.033a8.626,8.626,0,0,0,1.232-.039h.016a8.619,8.619,0,0,0,1.254-.23h0a7.647,7.647,0,0,0,1.248-.448h0V204.736l-.639.043a8.009,8.009,0,0,0-4.344,2.074V219.59h0C97.807,219.623,98,219.647,98.2,219.664Z"/>
        </g>
        <g id="Group_9" data-name="Group 9">
          <path id="Path_9" data-name="Path 9" d="M102.6,105.428v-3.97h0a36.392,36.392,0,0,0-3.717,3.341l0,0c-.43.434-.852.873-1.257,1.305l-.007.008v5.25a17.671,17.671,0,0,1,1.2-2.752C99,108.426,100.75,106.95,102.6,105.428Z"/>
        </g>
        <g id="Group_10" data-name="Group 10">
          <path id="Path_10" data-name="Path 10" d="M102.6,199.141c-1,.082-2.243.154-3.786.226a5.4,5.4,0,0,0-1.2.2V204.5a23.692,23.692,0,0,1,4.983-2.01Z"/>
        </g>
        <g id="Group_11" data-name="Group 11">
          <path id="Path_11" data-name="Path 11" d="M102.6,196.627V148.952c-.364-3.088-.639-5.346-.639-5.346a34.663,34.663,0,0,1-4.344-8.264v57.582c1.845-.516,3.4-.772,3.714-.354.755,1.008-.628,2.141-.628,2.141a6.43,6.43,0,0,0-3.086.244v3.238a23.536,23.536,0,0,1,3.714-1.72A3.848,3.848,0,0,1,102.6,196.627Z"/>
        </g>
        <g id="Group_12" data-name="Group 12">
          <path id="Path_12" data-name="Path 12" d="M104.468,225.428v5.234l.626-5.037C104.888,225.563,104.678,225.5,104.468,225.428Z"/>
        </g>
        <g id="Group_13" data-name="Group 13">
          <path id="Path_13" data-name="Path 13" d="M108.832,101.27V98.793c-.034.01-.068.024-.1.036-.156.056-.311.115-.462.172-.06.019-.117.039-.174.062l-.483.18-.117.041c-.817.3-1.554.578-2.171.814l-.018.008c-.152.057-.3.113-.432.166l-.007,0-.4.152V103.9c1.186-.961,2.185-1.746,2.524-1.959A9.835,9.835,0,0,1,108.832,101.27Z"/>
        </g>
        <g id="Group_14" data-name="Group 14">
          <path id="Path_14" data-name="Path 14" d="M104.646,223.18c.03.01.06.021.089.029.057.023.114.039.171.059l.1.033.162.052c.036.01.074.024.111.038l.155.047c.039.011.077.023.113.035.053.015.1.031.154.047s.074.021.11.035l.154.047a.9.9,0,0,1,.1.027c.053.016.105.033.156.047l.091.027c.048.012.1.027.143.043.03.008.061.018.09.024s.085.025.126.039l.092.023c.038.012.077.023.112.031a.653.653,0,0,0,.073.022c.035.01.071.021.1.029a.516.516,0,0,0,.064.02l.1.027a.348.348,0,0,1,.041.01l.077.021c.027.008.053.016.075.02l.014,0c.017.006.027.007.041.011a.23.23,0,0,0,.04.01l-1.636,13.219s-.252,1.383,1.889,2.014c.066.019.143.043.222.068.013.006.028.01.041.015.068.022.14.045.216.073a.176.176,0,0,1,.032.012c.082.027.166.056.255.091.009,0,.018.008.03.012.09.033.187.068.287.107h0v-2.107L107.37,237l-.251-2.139,1.713.635v-2.156l-.581-.24-.125-2.9.706.3V222.9l-1.84-.618s-1.761-2.265-1.761-4.154c0-1.074,1.871-1.619,3.6-2.189V200.242c-.282-.357-.563-.73-.833-1.127-1.888-2.771-1.762-5.162-2.265-6.295-.243-.545-.777-1.82-1.266-3.205v7.694a3.071,3.071,0,0,1,1.14.8c.247.373-.088.621-1.14.809v3.066a16.842,16.842,0,0,1,2.4-.478c.756,0,1.509.881,1.888,2.267.306,1.122-1.125.84-4.287.893v18.453h0Z"/>
        </g>
        <g id="Group_15" data-name="Group 15">
          <path id="Path_15" data-name="Path 15" d="M108.832,179.037V168.478c-1.311.391-3.328,2.883-3.853,2.567-.269-.16-.423-.643-.511-1.346v13.963A49.2,49.2,0,0,1,108.832,179.037Z"/>
        </g>
        <g id="Group_16" data-name="Group 16">
          <path id="Path_16" data-name="Path 16" d="M111.6,240.824l.028.016q.452.206.914.426a.174.174,0,0,1,.028.013v-2.365l-1.871-.687v2.2h.005Q111.139,240.614,111.6,240.824Z"/>
        </g>
        <g id="Group_17" data-name="Group 17">
          <path id="Path_17" data-name="Path 17" d="M112.57,97.428c-.034.01-.066.024-.1.035-.6.217-1.194.434-1.773.645v2.643c.593-.159,1.223-.319,1.871-.483Z"/>
        </g>
        <g id="Group_18" data-name="Group 18">
          <path id="Path_18" data-name="Path 18" d="M112.57,228.021l-1.871-.664v3.951l1.871.8Z"/>
        </g>
        <g id="Group_19" data-name="Group 19">
          <path id="Path_19" data-name="Path 19" d="M112.57,224.152l-1.871-.629v2.041l1.871.691Z"/>
        </g>
        <g id="Group_20" data-name="Group 20">
          <path id="Path_20" data-name="Path 20" d="M111.649,214.348a26.094,26.094,0,0,0,.921-6.229v-2.047c-.011-.148-.023-.285-.038-.412a6.7,6.7,0,0,0-1.833-3.2v12.746A1.869,1.869,0,0,0,111.649,214.348Z"/>
        </g>
        <g id="Group_21" data-name="Group 21">
          <path id="Path_21" data-name="Path 21" d="M112.57,234.9l-1.871-.779v2.068l1.871.693Z"/>
        </g>
        <g id="Group_22" data-name="Group 22">
          <path id="Path_22" data-name="Path 22" d="M112.152,173.059c-.24-.323-.791-1.774-1.453-2.977v7.2c.844-.781,1.455-1.328,1.581-1.451C112.783,175.326,112.532,173.565,112.152,173.059Z"/>
        </g>
        <g id="Group_23" data-name="Group 23">
          <path id="Path_23" data-name="Path 23" d="M115.684,96.3c-.411.147-.826.3-1.242.45V99.8c.416-.1.834-.207,1.242-.31Z"/>
        </g>
        <g id="Group_24" data-name="Group 24">
          <path id="Path_24" data-name="Path 24" d="M115.684,242.869v-1.588c-.328-.133-.562-.226-.635-.25a22.858,22.858,0,0,1,.635-4.623V225.2l-1.242-.42v17.424l.01.006C114.871,242.426,115.285,242.647,115.684,242.869Z"/>
        </g>
        <g id="Group_25" data-name="Group 25">
          <path id="Path_25" data-name="Path 25" d="M121.1,249.295v.148a.366.366,0,0,1,0,.069.227.227,0,0,1,0,.025v.055s.066.088.2.238l0,0V207.164a24.564,24.564,0,0,0-1.245,2.664v36.346l0,.006A5.641,5.641,0,0,1,121.1,249.295Z"/>
        </g>
        <g id="Group_26" data-name="Group 26">
          <path id="Path_26" data-name="Path 26" d="M121.294,94.229l-.079.033c-.178.067-.362.135-.55.207-.018,0-.035.014-.053.02-.183.066-.371.137-.563.207v3.363c.4-.209.82-.443,1.245-.695Z"/>
        </g>
        <g id="Group_27" data-name="Group 27">
          <path id="Path_27" data-name="Path 27" d="M121.294,181.947c-.432.848-.856,1.711-1.245,2.6v10.908c.376,1.256.812,2.51,1.245,3.74Z"/>
        </g>
        <g id="Group_28" data-name="Group 28">
          <path id="Path_28" data-name="Path 28" d="M81.921,207.9a.77.77,0,0,0,.147.022c.117,0,.225,0,.333.012.032,0,.063,0,.093,0,.078.006.153.01.226.02.028,0,.057,0,.084.008.089.009.176.021.255.035h.011c.088.014.167.029.24.045.02,0,.038.008.056.009.052.012.1.024.141.032l.06.015a.8.8,0,0,1,.09.022l.049.012V134.965l-.5.489-.013.013c-.154.153-.3.3-.45.453-.013.01-.026.024-.039.036-.141.142-.277.287-.412.427l-.071.076c-.133.141-.264.282-.387.417v71h0C81.865,207.891,81.894,207.9,81.921,207.9Z"/>
        </g>
        <g id="Group_29" data-name="Group 29">
          <path id="Path_29" data-name="Path 29" d="M86.82,211.449V203.8c-.773.963-1.226,1.6-1.226,1.6l-.018-.013v4.693c.135.15.282.309.426.467C86.264,210.84,86.539,211.141,86.82,211.449Z"/>
        </g>
        <g id="Group_30" data-name="Group 30">
          <path id="Path_30" data-name="Path 30" d="M86.82,131.934c-.182.186-.378.383-.584.586l-.01.012q-.312.308-.65.631v67.771a13.8,13.8,0,0,1,1.244-1.815Z"/>
        </g>
        <g id="Group_31" data-name="Group 31">
          <path id="Path_31" data-name="Path 31" d="M91.369,216.434c.043.046.084.089.123.134.106.116.2.217.27.3a4.706,4.706,0,0,0,.668.59v-4.629a2.246,2.246,0,0,1-.794-2.254,3.452,3.452,0,0,1,.794-1.2V203.3c-.448.512-.865,1.035-1.246,1.545v11.38c.059.065.115.129.171.188A.11.11,0,0,0,91.369,216.434Z"/>
        </g>
        <g id="Group_32" data-name="Group 32">
          <path id="Path_32" data-name="Path 32" d="M92.43,197.99c-.427.354-.843.719-1.246,1.09v2.971c.394-.279.812-.561,1.246-.842Z"/>
        </g>
        <g id="Group_33" data-name="Group 33">
          <path id="Path_33" data-name="Path 33" d="M92.43,115.452c-.392.711-.819,1.5-1.246,2.306v77.494c.337-.158.762-.344,1.246-.541Z"/>
        </g>
        <g id="Group_34" data-name="Group 34">
          <path id="Path_34" data-name="Path 34" d="M128.152,228.391c-2.145-.516-3.663-.828-3.663-.828s-.7-2.04-1.323-4.194v6.393c.877.121,2.943.414,4.986.793Z"/>
        </g>
        <g id="Group_35" data-name="Group 35">
          <path id="Path_35" data-name="Path 35" d="M124.361,199.367c-.254-1.531-.767-2.965-1.195-4.58v13.651c.1-.4.2-.791.315-1.139C124.614,203.773,124.866,202.387,124.361,199.367Z"/>
        </g>
        <g id="Group_36" data-name="Group 36">
          <path id="Path_36" data-name="Path 36" d="M128.152,147.68a28.267,28.267,0,0,0-1.4,12.162c.756,4.908-.378,9.693-1.511,13.6a28.7,28.7,0,0,1-2.078,4.914v7.341a81.813,81.813,0,0,1,4.986-11.384Z"/>
        </g>
        <g id="Group_37" data-name="Group 37">
          <path id="Path_37" data-name="Path 37" d="M123.608,251.893c.008,0,.015.011.023.015.314.231.66.467,1.033.705l.03.018a20.181,20.181,0,0,0,1.913,1.068c.006,0,.013,0,.018.01q.714.348,1.527.672v-2.623c-1.5-.608-2.853-1.35-3.286-2.166a18.488,18.488,0,0,1-1.383-5.92l-.317-5.848v13.733l0,0C123.309,251.668,123.455,251.781,123.608,251.893Z"/>
        </g>
        <g id="Group_38" data-name="Group 38">
          <path id="Path_38" data-name="Path 38" d="M128.152,89.864c-.84.658-1.7,1.3-2.538,1.887s-1.666,1.122-2.445,1.564l0,0V96.18c1.851-1.238,3.68-2.633,4.986-3.666Z"/>
        </g>
        <g id="Group_39" data-name="Group 39">
          <path id="Path_39" data-name="Path 39" d="M128.152,193.258v-5.28a1.561,1.561,0,0,0-1.146-.568c-1.112,0-2.013,1.438-2.013,3.209s.9,3.209,2.013,3.209A1.557,1.557,0,0,0,128.152,193.258Z"/>
        </g>
        <g id="Group_40" data-name="Group 40">
          <path id="Path_40" data-name="Path 40" d="M126.692,222.277c.621,0,1.162-.67,1.46-1.666v-3.466c-.3-1-.839-1.667-1.46-1.667-.939,0-1.7,1.522-1.7,3.4S125.753,222.277,126.692,222.277Z"/>
        </g>
        <g id="Group_41" data-name="Group 41">
          <path id="Path_41" data-name="Path 41" d="M127.385,234.99c0-1.39-.819-2.519-1.826-2.519s-1.825,1.129-1.825,2.519.817,2.516,1.825,2.516S127.385,236.379,127.385,234.99Z"/>
        </g>
        <g id="Group_42" data-name="Group 42">
          <path id="Path_42" data-name="Path 42" d="M126.755,248.961a2.214,2.214,0,0,0,1.4-.508v-5.025a2.22,2.22,0,0,0-1.4-.508,3.071,3.071,0,0,0,0,6.041Z"/>
        </g>
        <g id="Group_43" data-name="Group 43">
          <path id="Path_43" data-name="Path 43" d="M130.932,255.262c.212.053.429.1.649.152l.223.045c.206.045.415.084.627.123.08.014.16.027.242.043.287.049.58.1.878.135.269.033.547.068.832.1v-25.8c-1.47-.444-2.981-.854-4.362-1.206v2.075c1.856.41,3.326.869,3.278,1.293-.125,1.132.127,21.146.127,21.146s-1.588-.349-3.4-.935v2.584c.249.074.505.142.765.211C130.835,255.236,130.883,255.25,130.932,255.262Z"/>
        </g>
        <g id="Group_44" data-name="Group 44">
          <path id="Path_44" data-name="Path 44" d="M134.383,143.247V121.432c-.995,3.815.082,7.576-.579,12.985-.65,5.306-2.233,6.236-3.783,8.878v9.055a45.738,45.738,0,0,1,3.027-6.227A20.256,20.256,0,0,0,134.383,143.247Z"/>
        </g>
        <g id="Group_45" data-name="Group 45">
          <path id="Path_45" data-name="Path 45" d="M134.383,96.792V93.12l-2.092-3.262,1.262-1.385.83,1.338V84.54c-.121.113-.252.234-.391.357-.019.02-.039.037-.059.055-.119.109-.246.222-.377.341-.026.024-.051.047-.079.071l-.41.369a.809.809,0,0,0-.071.062c-.857.762-1.874,1.647-2.97,2.555l-.005.006V91l.006-.006A63.1,63.1,0,0,0,134.383,96.792Z"/>
        </g>
        <g id="Group_46" data-name="Group 46">
          <path id="Path_46" data-name="Path 46" d="M131.664,156.067c0,2.016.844,3.65,1.889,3.65a1.208,1.208,0,0,0,.83-.377v-6.547a1.207,1.207,0,0,0-.83-.376C132.508,152.417,131.664,154.051,131.664,156.067Z"/>
        </g>
        <g id="Group_47" data-name="Group 47">
          <path id="Path_47" data-name="Path 47" d="M137.5,236.945c-.679-.271-1.05-.445-1.05-.445l-.2-1.3v6.053c.319.043.744.1,1.247.166Z"/>
        </g>
        <g id="Group_48" data-name="Group 48">
          <path id="Path_48" data-name="Path 48" d="M137.5,231.088c-.4-.147-.819-.293-1.247-.436v3.4c.227.082.66.232,1.247.435Z"/>
        </g>
        <g id="Group_49" data-name="Group 49">
          <path id="Path_49" data-name="Path 49" d="M137.5,256.055V253c-.659,0-1.1-.006-1.247-.008V256c.234.012.473.023.712.031C137.14,256.041,137.32,256.045,137.5,256.055Z"/>
        </g>
        <g id="Group_50" data-name="Group 50">
          <path id="Path_50" data-name="Path 50" d="M137.5,81.352V76.1l-.006.01q-.167.234-.322.469c-.018.029-.036.056-.056.084-.091.136-.178.273-.262.406-.019.027-.037.055-.053.082-.089.141-.174.277-.254.414l-.033.055c-.093.152-.178.3-.261.449V86.44l1.247,1.592Z"/>
        </g>
        <g id="Group_51" data-name="Group 51">
          <path id="Path_51" data-name="Path 51" d="M137.2,120.319a2.41,2.41,0,0,1,.295-.6v-3.443a11.116,11.116,0,0,0-1.247,1.291V134.35a22.016,22.016,0,0,1,.448-2.7C137.455,128.752,136.824,121.577,137.2,120.319Z"/>
        </g>
        <g id="Group_52" data-name="Group 52">
          <path id="Path_52" data-name="Path 52" d="M137.5,98.723V90.764l-1.247-1.955v9.746a2.321,2.321,0,0,0,.448.238A1.028,1.028,0,0,0,137.5,98.723Z"/>
        </g>
        <g id="Group_53" data-name="Group 53">
          <path id="Path_53" data-name="Path 53" d="M137.5,244.93l-1.247-.182v4.346c.146.017.584.064,1.247.133Z"/>
        </g>
        <g id="Group_54" data-name="Group 54">
          <path id="Path_54" data-name="Path 54" d="M140.617,81.686V77.708a7.523,7.523,0,0,0-1.244,2.074v3.5a13.812,13.812,0,0,0,1.244,2.094Z"/>
        </g>
        <g id="Group_55" data-name="Group 55">
          <path id="Path_55" data-name="Path 55" d="M140.617,245.342l-1.244-.158v4.23c.389.037.8.076,1.244.115Z"/>
        </g>
        <g id="Group_56" data-name="Group 56">
          <path id="Path_56" data-name="Path 56" d="M140.617,238.025q-.674-.2-1.244-.4v4.033c.392.049.811.1,1.244.153Z"/>
        </g>
        <g id="Group_57" data-name="Group 57">
          <path id="Path_57" data-name="Path 57" d="M140.617,252.994l-1.244.006v3.088c.407,0,.822,0,1.244-.006Z"/>
        </g>
        <g id="Group_58" data-name="Group 58">
          <path id="Path_58" data-name="Path 58" d="M140.617,87.754c-.378-.664-.82-1.441-1.244-2.2V96.989c.431-.551.855-1.174,1.244-1.789Z"/>
        </g>
        <g id="Group_59" data-name="Group 59">
          <path id="Path_59" data-name="Path 59" d="M140.617,232.463c-.367-.207-.784-.416-1.244-.623v3.275c.391.131.807.268,1.244.408Z"/>
        </g>
        <g id="Group_60" data-name="Group 60">
          <path id="Path_60" data-name="Path 60" d="M140.617,75.754V72.688h0c-.053.031-.1.063-.145.09l-.129.08c-.041.025-.078.053-.116.078s-.089.062-.131.1c-.025.017-.053.039-.077.058-.063.053-.123.1-.173.151-.156.154-.312.324-.471.5V76.92c.074-.093.144-.183.221-.279A5.057,5.057,0,0,1,140.617,75.754Z"/>
        </g>
        <g id="Group_61" data-name="Group 61">
          <path id="Path_61" data-name="Path 61" d="M140.617,129.086V105.817c-1.542,2-1.035,2.65-1.149,6.447a7.806,7.806,0,0,1-.1,1.037v14.213A2.131,2.131,0,0,0,140.617,129.086Z"/>
        </g>
        <g id="Group_62" data-name="Group 62">
          <path id="Path_62" data-name="Path 62" d="M147.473,235.145a29.01,29.01,0,0,1-4.987-1.694v2.666c1.587.494,3.314,1,4.987,1.443Z"/>
        </g>
        <g id="Group_63" data-name="Group 63">
          <path id="Path_63" data-name="Path 63" d="M147.473,239.541a47.373,47.373,0,0,1-4.987-.994v3.484c1.555.174,3.259.354,4.987.506Z"/>
        </g>
        <g id="Group_64" data-name="Group 64">
          <path id="Path_64" data-name="Path 64" d="M143.671,256a.177.177,0,0,0,.033,0c.4-.017.8-.037,1.2-.056.013,0,.025,0,.035,0,.408-.022.816-.047,1.229-.073l.03,0q.632-.04,1.273-.089v-2.9c-1.765.051-3.466.084-4.987.1v3.064l.014,0Q143.079,256.024,143.671,256Z"/>
        </g>
        <g id="Group_65" data-name="Group 65">
          <path id="Path_65" data-name="Path 65" d="M147.473,70.03c-.458.142-.912.289-1.355.435l-.027.01c-.213.07-.422.143-.632.211-.008.006-.016.006-.025.012-1.078.369-2.085.738-2.948,1.1v2.856c1.445-.744,3.22-1.5,4.987-2.19Z"/>
        </g>
        <g id="Group_66" data-name="Group 66">
          <path id="Path_66" data-name="Path 66" d="M147.473,246.051c-1.742-.139-3.442-.313-4.987-.488v4.128c1.568.131,3.283.256,4.987.352Z"/>
        </g>
        <g id="Group_67" data-name="Group 67">
          <path id="Path_67" data-name="Path 67" d="M147.473,95.717c-1.4,2.321-2.466,4.209-2.466,4.209s-.756-8.558-.378-10.7c.3-1.7-1.066-2.207-2.143-3.1V87.77c.307.357.505.576.505.576l-.505.416v19.453c1.026-1.959,3.206-5.691,4.987-8.691Z"/>
        </g>
        <g id="Group_68" data-name="Group 68">
          <path id="Path_68" data-name="Path 68" d="M147.473,73.606c-2.113,1.057-4.064,2.053-4.987,2.566v1.11a39.914,39.914,0,0,1,4.987-2.338Z"/>
        </g>
        <g id="Group_69" data-name="Group 69">
          <path id="Path_69" data-name="Path 69" d="M142.486,125.3v2.123a4.465,4.465,0,0,0,0-2.123Z"/>
        </g>
        <g id="Group_70" data-name="Group 70">
          <path id="Path_70" data-name="Path 70" d="M153.708,246.355c-.412,0-.828-.011-1.25-.021V250.2c.434,0,.852-.005,1.25-.017Z"/>
        </g>
        <g id="Group_71" data-name="Group 71">
          <path id="Path_71" data-name="Path 71" d="M153.708,239.992c-.422,0-.84-.006-1.25-.019V242.9c.424.02.84.04,1.25.053Z"/>
        </g>
        <g id="Group_72" data-name="Group 72">
          <path id="Path_72" data-name="Path 72" d="M153.708,210.652V198.531a34.865,34.865,0,0,0-.772,8.768A13.7,13.7,0,0,0,153.708,210.652Z"/>
        </g>
        <g id="Group_73" data-name="Group 73">
          <path id="Path_73" data-name="Path 73" d="M153.708,255.16v-2.57c-.414.025-.83.051-1.25.074V255.3c.41-.045.824-.092,1.236-.143Z"/>
        </g>
        <g id="Group_74" data-name="Group 74">
          <path id="Path_74" data-name="Path 74" d="M153.708,236.139c-.416-.028-.832-.065-1.25-.108v2.6c.449.064.869.109,1.25.131Z"/>
        </g>
        <g id="Group_75" data-name="Group 75">
          <path id="Path_75" data-name="Path 75" d="M153.708,175.4a2.909,2.909,0,0,0-1.25.541v3.4a19.453,19.453,0,0,0,1.25,1.545Z"/>
        </g>
        <g id="Group_76" data-name="Group 76">
          <path id="Path_76" data-name="Path 76" d="M153.708,70.512c-.373.184-.793.389-1.25.615v2.026c.416-.131.832-.26,1.25-.379Z"/>
        </g>
        <g id="Group_77" data-name="Group 77">
          <path id="Path_77" data-name="Path 77" d="M153.708,68.251c-.4.1-.818.21-1.25.328v2.078c.459-.156.879-.3,1.25-.42Z"/>
        </g>
        <g id="Group_78" data-name="Group 78">
          <path id="Path_78" data-name="Path 78" d="M153.708,92.192l-.647.309a11.485,11.485,0,0,1,.647-1.885V87.2c-.1.052-.195.1-.27.138a4.153,4.153,0,0,0-.98.924v8.776c.394.431.816.9,1.25,1.4Z"/>
        </g>
        <g id="Group_79" data-name="Group 79">
          <path id="Path_79" data-name="Path 79" d="M153.565,102.823a3.542,3.542,0,0,0-1.107-2.729v5.455A3.538,3.538,0,0,0,153.565,102.823Z"/>
        </g>
        <g id="Group_80" data-name="Group 80">
          <path id="Path_80" data-name="Path 80" d="M159.936,95.278c-.437.219-.855.424-1.244.613v3.524c.3-.168.731-.409,1.244-.69Z"/>
        </g>
        <g id="Group_81" data-name="Group 81">
          <path id="Path_81" data-name="Path 81" d="M159.929,254.264h.007v-2.287c-.4.058-.812.115-1.244.17v2.322c.016,0,.03-.008.043-.01C159.136,254.4,159.536,254.33,159.929,254.264Z"/>
        </g>
        <g id="Group_82" data-name="Group 82">
          <path id="Path_82" data-name="Path 82" d="M159.936,89.19l-1.244.6v3.092c.4-.226.817-.459,1.244-.695Z"/>
        </g>
        <g id="Group_83" data-name="Group 83">
          <path id="Path_83" data-name="Path 83" d="M159.936,194.488c-.484.077-.91.135-1.244.174v6.719a81.959,81.959,0,0,0,1.244,10.685Z"/>
        </g>
        <g id="Group_84" data-name="Group 84">
          <path id="Path_84" data-name="Path 84" d="M159.936,172.355a4.632,4.632,0,0,0-1.209-.806.212.212,0,0,0-.035,0V178.6l1.244,1.08Z"/>
        </g>
        <g id="Group_85" data-name="Group 85">
          <path id="Path_85" data-name="Path 85" d="M159.936,67.379h0c-.426-.015-.84-.019-1.243-.009h0v4.289c.428-.061.844-.108,1.244-.135Z"/>
        </g>
        <g id="Group_86" data-name="Group 86">
          <path id="Path_86" data-name="Path 86" d="M159.936,180.3l-1.244-1.35v6.928c.412.383.828.765,1.244,1.142Z"/>
        </g>
        <g id="Group_87" data-name="Group 87">
          <path id="Path_87" data-name="Path 87" d="M159.936,245.873c-.376.072-.742.139-1.084.193l-.16.024v3.428c.407-.09.823-.19,1.244-.295Z"/>
        </g>
        <g id="Group_88" data-name="Group 88">
          <path id="Path_88" data-name="Path 88" d="M159.936,235.772c-.152.031-.3.07-.455.1-.257.051-.521.092-.789.133v2.334c.407-.068.823-.147,1.244-.227Z"/>
        </g>
        <g id="Group_89" data-name="Group 89">
          <path id="Path_89" data-name="Path 89" d="M159.936,220.941v-3.369c-.318-.437-.761-1.088-1.244-1.91v3.633A4.181,4.181,0,0,0,159.936,220.941Z"/>
        </g>
        <g id="Group_90" data-name="Group 90">
          <path id="Path_90" data-name="Path 90" d="M159.936,84.038c-.421.218-.837.433-1.244.642v2.281c.391-.169.809-.353,1.244-.55Z"/>
        </g>
        <g id="Group_91" data-name="Group 91">
          <path id="Path_91" data-name="Path 91" d="M159.936,239.545c-.406.051-.822.1-1.244.146v3.17c.369-.039.787-.1,1.244-.17Z"/>
        </g>
        <g id="Group_92" data-name="Group 92">
          <path id="Path_92" data-name="Path 92" d="M159.936,104.334V100.4c-.6.264-.957.406-.957.406l-.287-.432v3.69A2.005,2.005,0,0,0,159.936,104.334Z"/>
        </g>
        <g id="Group_93" data-name="Group 93">
          <path id="Path_93" data-name="Path 93" d="M163.052,175.08c-.434-.4-.85-.775-1.244-1.125V181.3l1.244,1.078Z"/>
        </g>
        <g id="Group_94" data-name="Group 94">
          <path id="Path_94" data-name="Path 94" d="M163.052,70.319c-.569-.242-1.008-.428-1.244-.524v1.731a5.371,5.371,0,0,1,1.244.262Z"/>
        </g>
        <g id="Group_95" data-name="Group 95">
          <path id="Path_95" data-name="Path 95" d="M163.052,245.185c-.424.1-.84.2-1.244.295v3.239c.414-.117.83-.244,1.244-.367Z"/>
        </g>
        <g id="Group_96" data-name="Group 96">
          <path id="Path_96" data-name="Path 96" d="M163.052,251.3l-.172.052q-.479.15-1.072.28v2.3c.419-.079.834-.157,1.244-.239Z"/>
        </g>
        <g id="Group_97" data-name="Group 97">
          <path id="Path_97" data-name="Path 97" d="M163.052,209.275c-.465-1.712-.907-3.521-1.244-5.24v16.883c.357-.094.777-.213,1.244-.352Z"/>
        </g>
        <g id="Group_98" data-name="Group 98">
          <path id="Path_98" data-name="Path 98" d="M163.052,234.889q-.615.216-1.244.4v2.43c.414-.09.828-.186,1.244-.283Z"/>
        </g>
        <g id="Group_99" data-name="Group 99">
          <path id="Path_99" data-name="Path 99" d="M163.052,239.1c-.4.066-.821.131-1.244.191v3.082c.4-.074.814-.154,1.244-.244Z"/>
        </g>
        <g id="Group_100" data-name="Group 100">
          <path id="Path_100" data-name="Path 100" d="M163.052,193.951c-.412.076-.83.151-1.244.223v2.74l1.244-.486Z"/>
        </g>
        <g id="Group_101" data-name="Group 101">
          <path id="Path_101" data-name="Path 101" d="M163.052,67.674l-.006,0c-.412-.06-.824-.111-1.238-.156v2.231c.232.037.671.113,1.244.236Z"/>
        </g>
        <g id="Group_102" data-name="Group 102">
          <path id="Path_102" data-name="Path 102" d="M163.052,183.684l-1.244-1.35v6.371c.429.379.845.746,1.244,1.1Z"/>
        </g>
        <g id="Group_103" data-name="Group 103">
          <path id="Path_103" data-name="Path 103" d="M163.052,98.915c-.436.226-.854.435-1.244.623v4.136c.4-.193.818-.392,1.244-.551Z"/>
        </g>
        <g id="Group_104" data-name="Group 104">
          <path id="Path_104" data-name="Path 104" d="M163.052,93.711c-.414.213-.83.424-1.244.631V97.7c.41-.225.83-.455,1.244-.68Z"/>
        </g>
        <g id="Group_105" data-name="Group 105">
          <path id="Path_105" data-name="Path 105" d="M163.052,87.665l-1.244.611v2.892l1.244-.666Z"/>
        </g>
        <g id="Group_106" data-name="Group 106">
          <path id="Path_106" data-name="Path 106" d="M163.052,82.379q-.615.337-1.244.672v2.477c.414-.2.83-.408,1.244-.623Z"/>
        </g>
        <g id="Group_107" data-name="Group 107">
          <path id="Path_107" data-name="Path 107" d="M172.4,236.852c-1.367.449-3,.929-4.984,1.388v2.951c1.584-.357,3.267-.753,4.984-1.166Z"/>
        </g>
        <g id="Group_108" data-name="Group 108">
          <path id="Path_108" data-name="Path 108" d="M172.4,229.754a29.96,29.96,0,0,1-4.984,3.236v3.325c1.8-.5,3.506-1.012,4.984-1.483Z"/>
        </g>
        <g id="Group_109" data-name="Group 109">
          <path id="Path_109" data-name="Path 109" d="M169.552,80.668c2.39-2.644,2.642-5.664.123-7.175-.612-.367-1.406-.782-2.256-1.2v1.557c2.3,1.365,3.506,2.838,2.006,4.422a12.173,12.173,0,0,1-2.006,1.543v2.574A11.976,11.976,0,0,0,169.552,80.668Z"/>
        </g>
        <g id="Group_110" data-name="Group 110">
          <path id="Path_110" data-name="Path 110" d="M168.452,252.451c.328-.088.652-.176.971-.267.068-.022.137-.041.207-.061.252-.074.5-.146.746-.221.32-.1.633-.195.939-.3l1.088-.357v-3.061c-1.7.579-3.406,1.157-4.984,1.684v2.852l1.027-.266Z"/>
        </g>
        <g id="Group_111" data-name="Group 111">
          <path id="Path_111" data-name="Path 111" d="M172.4,82.049V72.022h0c-.351-.447-.7-.863-1.031-1.229a.716.716,0,0,1-.061-.062c-.085-.092-.169-.18-.253-.266-.03-.031-.061-.062-.094-.092-.07-.07-.143-.138-.215-.2a1.225,1.225,0,0,0-.1-.093c-.068-.063-.132-.118-.2-.168-.033-.03-.068-.059-.1-.086-.063-.051-.131-.1-.194-.143-.031-.019-.058-.043-.088-.06-.091-.059-.179-.114-.263-.157-.143-.068-.3-.14-.465-.209a.157.157,0,0,1-.029-.013c-.168-.071-.348-.141-.538-.209a.155.155,0,0,1-.029-.014c-.195-.068-.4-.141-.617-.209a.048.048,0,0,0-.018,0c-.218-.072-.449-.142-.689-.211h0v2.721a8.891,8.891,0,0,1,4.4,3.311c1.881,3.318-1.773,8.478-4.4,10.622v2.87A37.658,37.658,0,0,0,172.4,82.049Z"/>
        </g>
        <g id="Group_112" data-name="Group 112">
          <path id="Path_112" data-name="Path 112" d="M172.4,88.958V86.043a36.755,36.755,0,0,1-3.228,4.192,12.123,12.123,0,0,1-1.756,1.146v2.682C168.86,92.709,170.667,90.827,172.4,88.958Z"/>
        </g>
        <g id="Group_113" data-name="Group 113">
          <path id="Path_113" data-name="Path 113" d="M172.4,242.643c-1.664.48-3.351.96-4.984,1.408v2.859c1.834-.644,3.549-1.295,4.984-1.85Z"/>
        </g>
        <g id="Group_114" data-name="Group 114">
          <path id="Path_114" data-name="Path 114" d="M172.321,96.9l.082-.1V92.2c-.525.545-1.058,1.07-1.593,1.558a27.608,27.608,0,0,1-3.391,2.612v4.677A24.568,24.568,0,0,0,172.321,96.9Z"/>
        </g>
        <g id="Group_115" data-name="Group 115">
          <path id="Path_115" data-name="Path 115" d="M172.4,213.857c-3.543-5.427-4.236-18.992-4.236-18.992l4.236-1.672V184c-1.345-1.319-3.138-3.059-4.984-4.824v6.978l3.812,3.3-2.041.875-1.771-1.92v30.775c1.767-.57,3.564-1.158,4.984-1.6Z"/>
        </g>
        <g id="Group_116" data-name="Group 116">
          <path id="Path_116" data-name="Path 116" d="M178.634,84.678c-1.022,1.395-2.588,3.449-4.362,5.483V94.5c1.27-1.586,2.868-3.6,4.362-5.45Z"/>
        </g>
        <g id="Group_117" data-name="Group 117">
          <path id="Path_117" data-name="Path 117" d="M178.634,242.959v-2.111c-1.373.39-2.846.818-4.362,1.257v2.223l.063-.023C175.269,243.935,176.81,243.467,178.634,242.959Z"/>
        </g>
        <g id="Group_118" data-name="Group 118">
          <path id="Path_118" data-name="Path 118" d="M178.634,82.256V79.827l-.276-.076a.058.058,0,0,1-.017-.006c-.178-.049-.34-.1-.485-.139a.058.058,0,0,0-.021-.006l-.358-.111a.06.06,0,0,1-.019-.006l-.2-.065h0a.151.151,0,0,1-.028-.01l-.033-.053c-.006-.014-.013-.027-.023-.049a.045.045,0,0,1-.014-.023c-.019-.03-.037-.063-.058-.1a.114.114,0,0,1-.016-.023c-.383-.664-1.5-2.569-2.813-4.528v4.69l.19-.287,1.762,1.385s-.838,1.275-1.952,2.916v3.585c2.358-2.6,4.217-4.74,4.217-4.74Z"/>
        </g>
        <g id="Group_119" data-name="Group 119">
          <path id="Path_119" data-name="Path 119" d="M178.634,249.188v-3.1c-1.338.443-2.826.943-4.362,1.465v3.08c.114-.037.235-.078.352-.115C175.931,250.084,177.274,249.641,178.634,249.188Z"/>
        </g>
        <g id="Group_120" data-name="Group 120">
          <path id="Path_120" data-name="Path 120" d="M178.634,219.492V185.273c-2.1.424-3.922,1-3.922,1l-.44-.433v22.732c.555,3.4,1.047,6,1.047,6l-1.047-.117v2.584a4.415,4.415,0,0,1,.819-.174C175.681,216.863,176.964,218.246,178.634,219.492Z"/>
        </g>
        <g id="Group_121" data-name="Group 121">
          <path id="Path_121" data-name="Path 121" d="M178.634,234.84c-.471.107-.865.2-1.153.275-.863.227-1.884.621-3.209,1.094v3.363c1.454-.355,2.918-.72,4.362-1.084Z"/>
        </g>
        <g id="Group_122" data-name="Group 122">
          <path id="Path_122" data-name="Path 122" d="M178.634,232.984v-7.222a13.756,13.756,0,0,0-4.362,2.375v6.088c.387-.131.747-.254,1.073-.368A28.367,28.367,0,0,1,178.634,232.984Z"/>
        </g>
        <g id="Group_123" data-name="Group 123">
          <path id="Path_123" data-name="Path 123" d="M181.753,230.853q-.32.03-.621.047v1.6c.2-.037.412-.074.621-.109Z"/>
        </g>
        <g id="Group_124" data-name="Group 124">
          <path id="Path_124" data-name="Path 124" d="M181.753,248.147v-3.075c-.2.061-.406.129-.621.2v3.083l.181-.06C181.458,248.244,181.6,248.2,181.753,248.147Z"/>
        </g>
        <g id="Group_125" data-name="Group 125">
          <path id="Path_125" data-name="Path 125" d="M181.753,234.168c-.213.043-.42.086-.621.131v3.554c.207-.054.414-.109.621-.16Z"/>
        </g>
        <g id="Group_126" data-name="Group 126">
          <path id="Path_126" data-name="Path 126" d="M181.753,80.694a.017.017,0,0,1-.014,0c-.209-.064-.4-.123-.59-.182l-.017-.006v5.506c.217-.263.426-.507.621-.732Z"/>
        </g>
        <g id="Group_127" data-name="Group 127">
          <path id="Path_127" data-name="Path 127" d="M181.753,184.852c-.2.007-.412.023-.621.043v36.068a6.2,6.2,0,0,0,.621.222Z"/>
        </g>
        <g id="Group_128" data-name="Group 128">
          <path id="Path_128" data-name="Path 128" d="M181.753,239.988c-.207.053-.41.11-.621.164v2.135c.2-.055.412-.109.621-.162Z"/>
        </g>
        <g id="Group_129" data-name="Group 129">
          <path id="Path_129" data-name="Path 129" d="M187.985,229.617c-.1.026-.209.057-.306.086q-.454.132-.938.258v1.654q.639-.09,1.244-.17Z"/>
        </g>
        <g id="Group_130" data-name="Group 130">
          <path id="Path_130" data-name="Path 130" d="M187.985,232.9c-.408.082-.824.162-1.244.25v3.25q.639-.166,1.244-.328Z"/>
        </g>
        <g id="Group_131" data-name="Group 131">
          <path id="Path_131" data-name="Path 131" d="M187.985,243.477c-.431.126-.851.244-1.244.355v2.613l1.244-.433Z"/>
        </g>
        <g id="Group_132" data-name="Group 132">
          <path id="Path_132" data-name="Path 132" d="M187.985,238.617c-.408.1-.824.193-1.244.28v1.974l1.244-.3Z"/>
        </g>
        <g id="Group_133" data-name="Group 133">
          <path id="Path_133" data-name="Path 133" d="M187.985,181.461c-.017.01-.039.021-.056.033a4.982,4.982,0,0,0-1.188,1.3v38.049c.4-.092.813-.19,1.244-.3Z"/>
        </g>
        <g id="Group_134" data-name="Group 134">
          <path id="Path_134" data-name="Path 134" d="M187.985,82.876c-.392-.161-.81-.321-1.244-.483h0v2.979c.406.293.824.6,1.244.894Z"/>
        </g>
        <g id="Group_135" data-name="Group 135">
          <path id="Path_135" data-name="Path 135" d="M191.1,180.307c-.451.138-.869.269-1.25.4v39.352c.411-.112.827-.227,1.25-.35Z"/>
        </g>
        <g id="Group_136" data-name="Group 136">
          <path id="Path_136" data-name="Path 136" d="M191.1,244.9v-2.357c-.406.125-.826.254-1.25.381v2.43c.426-.155.838-.3,1.239-.45A.021.021,0,0,1,191.1,244.9Z"/>
        </g>
        <g id="Group_137" data-name="Group 137">
          <path id="Path_137" data-name="Path 137" d="M191.1,228.969c-.431.072-.847.144-1.25.224v2.01c.457-.058.875-.107,1.25-.154Z"/>
        </g>
        <g id="Group_138" data-name="Group 138">
          <path id="Path_138" data-name="Path 138" d="M191.1,237.73c-.394.129-.812.258-1.25.385v2.01c.438-.1.856-.2,1.25-.3Z"/>
        </g>
        <g id="Group_139" data-name="Group 139">
          <path id="Path_139" data-name="Path 139" d="M191.1,232.279c-.392.076-.808.161-1.25.246v3.051l1.25-.332Z"/>
        </g>
        <g id="Group_140" data-name="Group 140">
          <path id="Path_140" data-name="Path 140" d="M191.1,84.514c-.121-.08-.236-.154-.345-.228s-.213-.149-.313-.221c-.07-.049-.154-.1-.246-.156a.245.245,0,0,0-.051-.03c-.091-.054-.187-.109-.295-.166v3.723c.368.195.786.4,1.25.621Z"/>
        </g>
        <g id="Group_141" data-name="Group 141">
          <path id="Path_141" data-name="Path 141" d="M197.956,178.455c-1.525.371-3.322.836-4.986,1.3v39.41c1.674-.5,3.379-1.025,4.986-1.539Z"/>
        </g>
        <g id="Group_142" data-name="Group 142">
          <path id="Path_142" data-name="Path 142" d="M194.347,243.662c.107-.043.216-.086.322-.131l.234-.1.369-.156c.082-.037.164-.072.245-.105.064-.029.127-.057.187-.086.123-.055.236-.108.346-.156l.121-.059c.084-.041.166-.08.242-.119.031-.016.063-.031.092-.047.092-.049.18-.1.256-.142a.675.675,0,0,0,.064-.038c.065-.039.125-.078.176-.113.008,0,.019-.014.029-.019a.938.938,0,0,0,.131-.112.221.221,0,0,0,.022-.023.289.289,0,0,0,.062-.1c.006-.029.014-.066.024-.109,0-.012,0-.022,0-.032.016-.1.034-.218.051-.369,0-.013,0-.027,0-.041.02-.16.037-.347.061-.558l0-.028c.019-.22.041-.462.064-.726v-.014c.047-.545.1-1.17.145-1.84s.1-1.381.146-2.1v-.012c.024-.346.045-.691.068-1.033,0-.033,0-.063,0-.094.01-.119.018-.234.026-.352,0-.056.008-.115.011-.169.008-.145.018-.288.026-.428,0-.037.006-.072.006-.108.008-.094.013-.183.019-.271.02-.291.035-.57.053-.838v-5.119c-1.432.248-3.219.486-4.986.748v2.166l1,.877-1,.2v2.832l1.882-.51-.378,2.266s-.565.242-1.5.588v2.305c1.015-.237,1.632-.375,1.632-.375l.124,2.39s-.707.227-1.756.557V244.2c.439-.166.847-.326,1.228-.48C194.249,243.7,194.3,243.682,194.347,243.662Z"/>
        </g>
        <g id="Group_143" data-name="Group 143">
          <path id="Path_143" data-name="Path 143" d="M197.956,88.042h0c-.213-.086-.424-.172-.633-.262l-.074-.029-.584-.256-.1-.045c-.188-.086-.374-.17-.557-.256-.037-.016-.072-.033-.109-.051-.182-.086-.364-.17-.54-.256l-.105-.051c-.178-.088-.354-.173-.529-.261l-.086-.045c-.18-.09-.354-.18-.526-.268-.021-.014-.041-.023-.06-.035-.178-.092-.354-.185-.524-.277a.148.148,0,0,0-.033-.018c-.178-.1-.351-.193-.521-.291V88.9c1.519.664,3.257,1.381,4.986,2.066Z"/>
        </g>
        <g id="Group_144" data-name="Group 144">
          <path id="Path_144" data-name="Path 144" d="M200.448,177.891c-.189.039-.4.082-.623.132v39l.623-.2Z"/>
        </g>
        <g id="Group_145" data-name="Group 145">
          <path id="Path_145" data-name="Path 145" d="M200.448,88.956c-.1-.038-.215-.075-.31-.106s-.207-.072-.313-.109v2.965l.623.238Z"/>
        </g>
        <g id="Group_146" data-name="Group 146">
          <path id="Path_146" data-name="Path 146" d="M200.448,230.125v-2.807c-.1.041-.2.084-.31.117s-.2.065-.313.1v2.67c.2-.017.4-.045.619-.076Z"/>
        </g>
        <g id="Group_147" data-name="Group 147">
          <path id="Path_147" data-name="Path 147" d="M207.308,94.516V91.37a.219.219,0,0,1-.034-.01l-.99-.356L206,90.9l-.957-.344L205,90.547c-.322-.117-.635-.228-.943-.336-.086-.029-.17-.058-.252-.089l-.772-.272c-.031-.01-.06-.021-.09-.033v3.07c.479.178.932.344,1.348.494C205.151,93.692,206.186,94.079,207.308,94.516Z"/>
        </g>
        <g id="Group_148" data-name="Group 148">
          <path id="Path_148" data-name="Path 148" d="M203.71,228.713a.336.336,0,0,1,.035-.029c.111-.1.219-.206.322-.319l.055-.06c.1-.115.2-.235.3-.365.174-.241.338-.485.5-.735.035-.055.068-.111.1-.166.15-.248.294-.492.427-.742.014-.029.031-.059.045-.09.125-.23.24-.465.35-.7.023-.049.049-.1.07-.151.117-.253.229-.511.33-.769.016-.035.029-.07.043-.106.1-.248.19-.5.276-.74.011-.027.019-.052.027-.078.1-.269.182-.541.264-.807.005-.023.013-.048.019-.072.166-.553.313-1.1.438-1.627V176.842c-1.639.316-3.247.572-4.364.724V216c2.032-.683,3.364-1.148,3.364-1.148s-1.133,5.162-1.889,7.3a12.858,12.858,0,0,1-1.475,3.018v4.1l0,0A5.166,5.166,0,0,0,203.71,228.713Z"/>
        </g>
        <g id="Group_149" data-name="Group 149">
          <path id="Path_149" data-name="Path 149" d="M207.308,162.16V119.067a57.379,57.379,0,0,0-3.77,8.174c-.2.613-.4,1.394-.594,2.3v26.775c1.549,2.205,3.434,4.7,4.119,5.538C207.142,161.953,207.224,162.057,207.308,162.16Z"/>
        </g>
        <g id="Group_150" data-name="Group 150">
          <path id="Path_150" data-name="Path 150" d="M211.046,214.053V175.992c-.393.111-.813.215-1.248.318v38.016c.045-.011.113-.025.2-.043C210.224,214.23,210.585,214.152,211.046,214.053Z"/>
        </g>
        <g id="Group_151" data-name="Group 151">
          <path id="Path_151" data-name="Path 151" d="M211.046,170.037v-47.4l-1.248-1.748v48.22A3.959,3.959,0,0,0,211.046,170.037Z"/>
        </g>
        <g id="Group_152" data-name="Group 152">
          <path id="Path_152" data-name="Path 152" d="M211.046,92.721,209.8,92.27v3.248c.414.174.832.35,1.248.527Z"/>
        </g>
        <g id="Group_153" data-name="Group 153">
          <path id="Path_153" data-name="Path 153" d="M211.046,127.393V112.586c-.412.668-.832,1.36-1.248,2.067v15.4l.816-2.4Z"/>
        </g>
        <g id="Group_154" data-name="Group 154">
          <path id="Path_154" data-name="Path 154" d="M216.655,145.231V104.959c-.345.368-.73.782-1.158,1.262-.031.031-.061.069-.09.1v38.584l.115-.071Z"/>
        </g>
        <g id="Group_155" data-name="Group 155">
          <path id="Path_155" data-name="Path 155" d="M216.655,212.83V142.313l-1.045-.459-.2-.459V213.1a.155.155,0,0,0,.031-.006Z"/>
        </g>
        <g id="Group_156" data-name="Group 156">
          <path id="Path_156" data-name="Path 156" d="M216.655,94.782l-.011,0c-.139-.053-.282-.106-.424-.158-.078-.03-.155-.059-.237-.086-.154-.059-.312-.117-.47-.176-.036-.014-.071-.025-.106-.039v3.767c.447.235.867.465,1.248.692Z"/>
        </g>
        <g id="Group_157" data-name="Group 157">
          <path id="Path_157" data-name="Path 157" d="M216.655,136.907l-1.248.705v1.359l1.248-.68Z"/>
        </g>
        <g id="Group_158" data-name="Group 158">
          <path id="Path_158" data-name="Path 158" d="M216.655,132.065V130.92l-1.045-1.564-.2.1v2.791l.293.32Z"/>
        </g>
        <g id="Group_159" data-name="Group 159">
          <path id="Path_159" data-name="Path 159" d="M220.4,212.025V118.983l-1.125.562-.748-.328v93.211c.051-.01.094-.022.145-.033C219.263,212.268,219.843,212.145,220.4,212.025Z"/>
        </g>
        <g id="Group_160" data-name="Group 160">
          <path id="Path_160" data-name="Path 160" d="M220.4,127.065V124.36l-1.3-2.055,1.3-.623V96.206l-.043-.018c-.222-.088-.48-.187-.773-.3-.078-.027-.164-.062-.244-.093s-.152-.059-.236-.09c-.184-.071-.375-.145-.577-.219v4.652a1.613,1.613,0,0,1,.371.547,2,2,0,0,1-.371,2.266v22.719l1.371.476Z"/>
        </g>
        <g id="Group_161" data-name="Group 161">
          <path id="Path_161" data-name="Path 161" d="M220.4,137.821v-.3l-1.125-2.09-.748.426v1.586l.479,1.2Z"/>
        </g>
        <g id="Group_162" data-name="Group 162">
          <path id="Path_162" data-name="Path 162" d="M222.89,125.274l-.625.293v4.941l.625,1.152Z"/>
        </g>
        <g id="Group_163" data-name="Group 163">
          <path id="Path_163" data-name="Path 163" d="M222.89,211.5V141.651l-.625.314v69.67c.218-.049.421-.092.617-.129Z"/>
        </g>
        <g id="Group_164" data-name="Group 164">
          <path id="Path_164" data-name="Path 164" d="M222.89,99.4c-.039-.033-.069-.067-.1-.094l-.006-.006c-.027-.029-.047-.053-.066-.07v0c-.032-.035-.049-.057-.049-.057s-.006-.043-.02-.117h0a5.382,5.382,0,0,0-.386-1.256v50.116l.625-.3Z"/>
        </g>
        <g id="Group_165" data-name="Group 165">
          <path id="Path_165" data-name="Path 165" d="M224.245,211.232c.07-.011.135-.023.188-.033a2.537,2.537,0,0,0,.38-.092c.041-.011.081-.027.12-.039.08-.029.162-.056.24-.088.045-.019.086-.04.131-.06.07-.031.14-.065.209-.1.047-.023.086-.05.129-.074l.193-.117c.041-.027.082-.059.121-.09.063-.041.121-.084.182-.131.037-.031.074-.062.113-.093.059-.049.115-.1.17-.149.037-.031.07-.064.1-.1.059-.052.112-.1.166-.16.034-.033.063-.066.094-.1.055-.059.109-.116.162-.176l.084-.1.16-.189c.024-.03.045-.061.071-.088.054-.073.107-.139.16-.211.019-.024.037-.045.053-.069.058-.078.121-.158.175-.236.008-.014.018-.023.022-.033.144-.2.279-.394.408-.578s.256-.371.377-.535V131.94l-1.51-8.563-2.855,1.336v9.166l1.515,2.8-.623,3.93-.892.445v70.211a.036.036,0,0,0,.019,0C224.157,211.25,224.2,211.242,224.245,211.232Z"/>
        </g>
        <g id="Group_166" data-name="Group 166">
          <path id="Path_166" data-name="Path 166" d="M228.458,105.782c-.373-.522-.727-1.022-1.064-1.49-.012-.018-.026-.036-.04-.053-.105-.147-.21-.289-.31-.43l-.008-.012c-.211-.291-.414-.566-.6-.826-.018-.021-.034-.043-.049-.062l-.227-.305-.056-.074c-.075-.1-.147-.2-.221-.291a.431.431,0,0,0-.033-.045c-.082-.108-.16-.213-.239-.311a.273.273,0,0,1-.027-.037c-.066-.082-.129-.16-.189-.232-.018-.026-.036-.049-.055-.072-.051-.065-.1-.125-.147-.182-.019-.024-.035-.043-.052-.067l-.153-.181c-.007-.008-.017-.018-.023-.026-.055-.066-.108-.123-.154-.177a.223.223,0,0,1-.037-.039c-.034-.036-.069-.073-.1-.1a.38.38,0,0,0-.039-.041c-.028-.025-.053-.051-.078-.074a.228.228,0,0,1-.032-.028c-.033-.027-.064-.05-.087-.066-.125-.08-.233-.152-.34-.226v47.982l4.365-2.084Z"/>
        </g>
        <g id="Group_167" data-name="Group 167">
          <path id="Path_167" data-name="Path 167" d="M254.392,188.328c.056-.043.111-.09.168-.135.085-.066.171-.138.257-.207.051-.043.1-.084.155-.127.127-.1.255-.212.386-.326l.151-.127c.1-.088.2-.174.3-.261.046-.043.093-.085.138-.125q.209-.185.412-.373c.035-.038.075-.071.114-.108.107-.1.214-.205.322-.309.039-.037.082-.08.123-.117.135-.135.267-.267.394-.4.028-.023.049-.049.075-.074l.318-.344c.033-.035.066-.072.1-.111.123-.135.236-.272.347-.4.012-.017.024-.031.035-.045.1-.121.188-.24.276-.359.025-.035.051-.068.076-.1.094-.131.182-.26.26-.387s.158-.26.238-.387V169.553l0,0a14.286,14.286,0,0,0-1.342-1.375h0l-.025-.024-.01-.019c-.008-.022-.021-.063-.045-.121s-.035-.1-.056-.162l0,0q-.024-.067-.057-.153c-.016-.046-.035-.1-.057-.154s-.037-.1-.056-.156-.029-.082-.045-.125l-.055-.143c-.015-.05-.035-.1-.054-.154-.034-.09-.069-.187-.106-.287-.018-.045-.031-.088-.047-.133-.031-.084-.062-.17-.1-.26-.015-.043-.031-.088-.048-.134-.043-.122-.088-.243-.135-.37-.018-.054-.037-.111-.059-.168-.031-.08-.058-.16-.09-.242s-.054-.156-.082-.238c-.037-.1-.076-.2-.113-.307s-.066-.189-.1-.287-.065-.176-.1-.265-.061-.168-.092-.254-.055-.159-.082-.235c-.057-.158-.111-.314-.17-.474-.023-.071-.047-.143-.074-.213-.037-.106-.074-.211-.113-.319-.022-.062-.043-.125-.067-.187-.06-.178-.125-.359-.189-.541-.026-.076-.051-.152-.08-.229-.037-.107-.073-.213-.112-.322-.025-.068-.047-.139-.072-.207-.072-.211-.148-.424-.221-.637-.013-.043-.029-.084-.043-.127-.043-.123-.084-.246-.127-.367-.015-.053-.035-.105-.052-.156-.088-.262-.178-.523-.266-.783l-.006-.016c-.039-.119-.078-.24-.117-.357-.019-.056-.039-.113-.059-.168-.085-.265-.173-.525-.257-.783v30.7l.015-.012C254.175,188.5,254.284,188.416,254.392,188.328Z"/>
        </g>
        <g id="Group_168" data-name="Group 168">
          <path id="Path_168" data-name="Path 168" d="M251.114,194.256l.006-.014c.057-.107.111-.213.162-.316l0,0c.1-.217.2-.426.274-.629V148.528c-.1-.352-.2-.711-.3-1.069l-.01-.023c-.1-.357-.207-.713-.312-1.066v48.206C251,194.469,251.056,194.361,251.114,194.256Z"/>
        </g>
        <g id="Group_169" data-name="Group 169">
          <path id="Path_169" data-name="Path 169" d="M231.858,205.35V122.924l-.621.354V205.65h0C231.458,205.541,231.667,205.44,231.858,205.35Z"/>
        </g>
        <g id="Group_170" data-name="Group 170">
          <path id="Path_170" data-name="Path 170" d="M231.858,110.69c-.207-.307-.416-.609-.621-.91v17.076l.621,2.588Z"/>
        </g>
      </g>
    </g>
    <g id="Group_174" data-name="Group 174" transform="translate(-4 14.434)">
      <path id="Path_173" data-name="Path 173" d="M5.176-33.891v-1.045H19.842v1.045H18.6a3.454,3.454,0,0,0-3.054,1.384q-.606.9-.606,4.349V-9.434a23.875,23.875,0,0,1-.846,7,10.975,10.975,0,0,1-2.915,4.674,6.948,6.948,0,0,1-5,1.991A5.159,5.159,0,0,1,2.45,2.921,4.068,4.068,0,0,1,1.087-.087a3.047,3.047,0,0,1,.631-2.09,2.6,2.6,0,0,1,1.944-.875,2.087,2.087,0,0,1,1.451.593A9.841,9.841,0,0,1,6.741.7Q7.322,2.229,8.23,2.229q.682,0,1.275-.932a6.577,6.577,0,0,0,.593-3.3V-28.158A14.121,14.121,0,0,0,9.77-32a2.428,2.428,0,0,0-1.06-1.214,4.267,4.267,0,0,0-2.3-.678ZM34.861-.369a38.384,38.384,0,0,1-4.468,3.558,6.223,6.223,0,0,1-2.9.706A4.947,4.947,0,0,1,23.54,2.06a7.226,7.226,0,0,1-1.552-4.829,6.724,6.724,0,0,1,.757-3.276,10.543,10.543,0,0,1,3.6-3.615,53.114,53.114,0,0,1,8.519-4.123V-14.8q0-3.869-1.1-5.309a3.77,3.77,0,0,0-3.193-1.44,3.359,3.359,0,0,0-2.524.96,3.031,3.031,0,0,0-.959,2.2l.05,1.638a3.033,3.033,0,0,1-.593,2.005,1.93,1.93,0,0,1-1.552.706,1.875,1.875,0,0,1-1.527-.734,3.1,3.1,0,0,1-.593-2.005,5.988,5.988,0,0,1,2.221-4.462,8.9,8.9,0,0,1,6.235-2.033,9.855,9.855,0,0,1,5.048,1.158,5.162,5.162,0,0,1,2.2,2.739,17.178,17.178,0,0,1,.454,4.97v8.783a44.979,44.979,0,0,0,.126,4.533A2.018,2.018,0,0,0,39.569.026a.931.931,0,0,0,.669.282,1.264,1.264,0,0,0,.707-.2A16.5,16.5,0,0,0,42.989-1.95V-.369q-2.827,4.236-5.4,4.236a2.348,2.348,0,0,1-1.969-.96A5.649,5.649,0,0,1,34.861-.369Zm0-1.836v-9.856a47.328,47.328,0,0,0-4.922,2.4,8.8,8.8,0,0,0-2.852,2.6A5.435,5.435,0,0,0,26.228-4.1,5.192,5.192,0,0,0,27.314-.722a3.165,3.165,0,0,0,2.5,1.341Q31.731.619,34.861-2.2ZM64.344-6.469A14.6,14.6,0,0,1,60.684,1.4,8.335,8.335,0,0,1,54.651,4.15q-3.938,0-6.866-3.7t-2.928-10A14.768,14.768,0,0,1,48.1-19.46a9.9,9.9,0,0,1,7.787-3.813,7.957,7.957,0,0,1,5.6,2.019,5.762,5.762,0,0,1,2.2,4.194,2.445,2.445,0,0,1-.618,1.737,2.247,2.247,0,0,1-1.729.664,2.571,2.571,0,0,1-2.247-1.073,4.853,4.853,0,0,1-.568-2.259A3.9,3.9,0,0,0,57.5-20.533a3.392,3.392,0,0,0-2.448-.847,4.811,4.811,0,0,0-4.064,2.09,12.021,12.021,0,0,0-2.045,7.314A16.145,16.145,0,0,0,50.978-3.8Q53.01-.256,56.468-.256a6.252,6.252,0,0,0,4.443-1.892,12.992,12.992,0,0,0,2.7-4.716ZM74.491-36.8v25.756l5.881-6.015a21.1,21.1,0,0,0,2.171-2.429,1.314,1.314,0,0,0,.2-.678,1.32,1.32,0,0,0-.416-.974,2.1,2.1,0,0,0-1.376-.466v-.9H91v.9a8.623,8.623,0,0,0-3.446.706,11.159,11.159,0,0,0-3.016,2.316l-5.932,6.128,5.932,8.388Q87.011-.595,87.869.337A6.921,6.921,0,0,0,89.99,2.06a5.946,5.946,0,0,0,2.2.282V3.359H80.953V2.342a2.157,2.157,0,0,0,1.3-.325,1.045,1.045,0,0,0,.341-.833,4.553,4.553,0,0,0-1.01-2.09L74.491-11.044v8.585a10.853,10.853,0,0,0,.316,3.3,2.181,2.181,0,0,0,.9,1.13,6.109,6.109,0,0,0,2.524.367V3.359H66.464V2.342a5.719,5.719,0,0,0,2.65-.48A1.963,1.963,0,0,0,69.922.9,9.508,9.508,0,0,0,70.3-2.318V-25.871a47.1,47.1,0,0,0-.177-5.493,2.5,2.5,0,0,0-.581-1.384,1.481,1.481,0,0,0-1.06-.381,4.374,4.374,0,0,0-1.59.48l-.429-.988L73.33-36.8ZM97.386-12.767q-.025,5.761,2.5,9.037a7.358,7.358,0,0,0,5.932,3.276,5.981,5.981,0,0,0,3.95-1.4,10.454,10.454,0,0,0,2.814-4.787l.783.565a14.161,14.161,0,0,1-3.08,7.046A7.868,7.868,0,0,1,103.9,4.15,8.935,8.935,0,0,1,96.767.521Q93.8-3.108,93.8-9.237q0-6.637,3.042-10.35a9.471,9.471,0,0,1,7.636-3.714,8.093,8.093,0,0,1,6.386,2.866,11.256,11.256,0,0,1,2.5,7.667Zm0-1.638h10.7a12.252,12.252,0,0,0-.53-3.5,5.492,5.492,0,0,0-1.881-2.485,4.394,4.394,0,0,0-2.613-.9,4.961,4.961,0,0,0-3.748,1.822A8.382,8.382,0,0,0,97.386-14.4ZM123.158-31.01v8.5h5.4v1.977h-5.4V-3.758A6.176,6.176,0,0,0,123.8-.369a1.969,1.969,0,0,0,1.653.875,2.686,2.686,0,0,0,1.616-.579,3.679,3.679,0,0,0,1.212-1.709h.984a8.964,8.964,0,0,1-2.5,4.166,5.064,5.064,0,0,1-3.332,1.4,4.13,4.13,0,0,1-2.272-.72A4.229,4.229,0,0,1,119.523,1a12,12,0,0,1-.53-4.137v-17.4h-3.66v-.932a9.564,9.564,0,0,0,2.84-2.1,16.471,16.471,0,0,0,2.587-3.516,33.492,33.492,0,0,0,1.616-3.925Z" transform="translate(422.233 204)"/>
      <g id="Group_173" data-name="Group 173" transform="translate(27 71)">
        <path id="Path_172" data-name="Path 172" d="M23.983-6.445A61.958,61.958,0,0,1,16.9-.293a9.219,9.219,0,0,1-4.6,1.221A7.6,7.6,0,0,1,6.027-2.246,13.246,13.246,0,0,1,3.564-10.6a12.486,12.486,0,0,1,1.2-5.664,17.6,17.6,0,0,1,5.705-6.25q4.064-2.93,13.512-7.129V-31.4q0-6.689-1.742-9.18a5.794,5.794,0,0,0-5.065-2.49,5.1,5.1,0,0,0-4,1.66A5.474,5.474,0,0,0,11.652-37.6l.08,2.832a5.575,5.575,0,0,1-.941,3.467,2.963,2.963,0,0,1-2.462,1.221,2.89,2.89,0,0,1-2.422-1.27,5.706,5.706,0,0,1-.941-3.467,10.722,10.722,0,0,1,3.523-7.715q3.523-3.516,9.889-3.516a14.6,14.6,0,0,1,8.007,2,8.816,8.816,0,0,1,3.483,4.736q.721,2.1.721,8.594v15.186q0,6.4.2,7.837a3.671,3.671,0,0,0,.661,1.929,1.42,1.42,0,0,0,1.061.488,1.884,1.884,0,0,0,1.121-.342A27.447,27.447,0,0,0,36.875-9.18v2.734Q32.391.879,28.307.879a3.626,3.626,0,0,1-3.123-1.66Q24.023-2.441,23.983-6.445Zm0-3.174V-26.66a72.719,72.719,0,0,0-7.807,4.15,14.5,14.5,0,0,0-4.524,4.492,10.028,10.028,0,0,0-1.361,5.127,9.523,9.523,0,0,0,1.722,5.835,4.914,4.914,0,0,0,3.964,2.319Q19.019-4.736,23.983-9.619ZM50.327-46.045v10.059q4.6-10.059,9.449-10.059a4.647,4.647,0,0,1,3.643,1.636,5.552,5.552,0,0,1,1.441,3.784A5.039,5.039,0,0,1,63.82-37.4a3.084,3.084,0,0,1-2.482,1.318,4.862,4.862,0,0,1-3.143-1.685q-1.742-1.685-2.582-1.685a2.257,2.257,0,0,0-1.561.977,24.113,24.113,0,0,0-3.723,6.592v21.436a15.886,15.886,0,0,0,.761,5.615,4.7,4.7,0,0,0,1.842,2.2,6.863,6.863,0,0,0,3.8.879V0H37.956V-1.758A6.671,6.671,0,0,0,42.12-2.832a4.263,4.263,0,0,0,1.4-2.49,30.551,30.551,0,0,0,.2-4.736V-27.393a87.745,87.745,0,0,0-.26-9.3,3.913,3.913,0,0,0-.961-2.173,2.4,2.4,0,0,0-1.742-.684,6.715,6.715,0,0,0-2.8.732l-.4-1.758,11.09-5.469ZM98.051-16.992q-1.481,8.838-5.805,13.6T82.677,1.367q-6.246,0-10.89-6.4T67.143-22.314q0-10.547,5.145-17.139t12.351-6.592a12.023,12.023,0,0,1,8.888,3.491Q97.01-39.063,97.01-35.3a4.461,4.461,0,0,1-.981,3,3.413,3.413,0,0,1-2.743,1.147,3.97,3.97,0,0,1-3.563-1.855,8.982,8.982,0,0,1-.9-3.906A7.078,7.078,0,0,0,87.2-41.309a5.119,5.119,0,0,0-3.884-1.465,7.458,7.458,0,0,0-6.446,3.613q-3.243,4.785-3.243,12.646a29.924,29.924,0,0,0,3.223,14.136Q80.075-6.25,85.56-6.25a9.531,9.531,0,0,0,7.046-3.271q2.2-2.246,4.284-8.154Zm23.181-29.053q8.328,0,13.372,7.715a27.156,27.156,0,0,1,4.284,15.137,33.748,33.748,0,0,1-2.362,12.158,20.4,20.4,0,0,1-6.506,9.277,14.96,14.96,0,0,1-9.229,3.125q-8.288,0-13.172-8.057A28.758,28.758,0,0,1,103.5-21.924,31.9,31.9,0,0,1,106-34.155a19.979,19.979,0,0,1,6.586-8.984A14.669,14.669,0,0,1,121.233-46.045Zm-1.241,3.174a7.29,7.29,0,0,0-4.264,1.538,10.678,10.678,0,0,0-3.463,5.4,31.14,31.14,0,0,0-1.321,9.912A40.838,40.838,0,0,0,114.126-9.18q3.183,7.08,8.388,7.08,3.884,0,6.406-3.906t2.522-13.428q0-11.914-4.2-18.75Q124.4-42.871,119.992-42.871ZM170.2-5.029a19.431,19.431,0,0,1-5.245,4.907,10.809,10.809,0,0,1-5.525,1.489q-6.006,0-10.49-6.128t-4.484-15.747a32.678,32.678,0,0,1,4.965-17.6q4.965-7.983,12.772-7.983a10.016,10.016,0,0,1,8.007,3.76v-8.252a82.209,82.209,0,0,0-.3-9.424,4.493,4.493,0,0,0-.941-2.393,2.183,2.183,0,0,0-1.6-.635,7.182,7.182,0,0,0-2.763.781l-.52-1.709L175-69.434h1.8v51.709a84.253,84.253,0,0,0,.3,9.595,4.653,4.653,0,0,0,.961,2.417,2.079,2.079,0,0,0,1.541.684,7.422,7.422,0,0,0,2.883-.83l.44,1.709-10.89,5.518H170.2Zm0-3.418V-31.494a18.214,18.214,0,0,0-1.441-6.055,9.591,9.591,0,0,0-3.183-4.126,6.741,6.741,0,0,0-3.864-1.392q-3.523,0-6.286,3.857-3.643,5.078-3.643,14.844,0,9.863,3.523,15.112T163.151-4Q166.795-4,170.2-8.447Zm21.26-19.434q-.04,9.961,3.964,15.625t9.409,5.664A9.019,9.019,0,0,0,211.1-9.009q2.662-2.417,4.464-8.276l1.241.977a25.628,25.628,0,0,1-4.884,12.183q-4.044,5.493-10.129,5.493-6.606,0-11.31-6.274t-4.7-16.87q0-11.475,4.824-17.9t12.111-6.421a12.409,12.409,0,0,1,10.129,4.956q3.964,4.956,3.964,13.257Zm0-2.832h16.976a22.935,22.935,0,0,0-.841-6.055,9.452,9.452,0,0,0-2.983-4.3,6.607,6.607,0,0,0-4.144-1.562,7.638,7.638,0,0,0-5.945,3.149Q191.9-36.328,191.457-30.713Z" transform="translate(313 85)"/>
        <path id="Path_171" data-name="Path 171" d="M16.344-5.029A19.712,19.712,0,0,0,21.71-.122a11.253,11.253,0,0,0,5.652,1.489q6.143,0,10.731-6.128t4.587-15.747A32.134,32.134,0,0,0,37.6-38.11q-5.079-7.983-13.065-7.983a10.34,10.34,0,0,0-8.191,3.76v-8.252a80.374,80.374,0,0,1,.307-9.424,4.44,4.44,0,0,1,.962-2.393,2.261,2.261,0,0,1,1.638-.635,7.478,7.478,0,0,1,2.826.781l.532-1.709L11.43-69.434H9.587v51.709A82.373,82.373,0,0,1,9.279-8.13,4.6,4.6,0,0,1,8.3-5.713a2.149,2.149,0,0,1-1.577.684,7.726,7.726,0,0,1-2.949-.83L3.32-4.15,14.46,1.367h1.884Zm0-3.418V-31.494a17.878,17.878,0,0,1,1.474-6.055,9.625,9.625,0,0,1,3.256-4.126,7,7,0,0,1,3.952-1.392q3.6,0,6.43,3.857,3.727,5.078,3.727,14.844,0,9.863-3.6,15.112T23.553-4Q19.826-4,16.344-8.447Z" transform="translate(267.924 85)"/>
      </g>
    </g>
  </g>
</svg>
