<svg xmlns="http://www.w3.org/2000/svg" width="65" height="58.398" viewBox="0 0 65 58.398">
  <g id="credit-card" transform="translate(0 -26.001)">
    <g id="Group_45" data-name="Group 45" transform="translate(46.916 71.379)">
      <g id="Group_44" data-name="Group 44">
        <path id="Path_31" data-name="Path 31" d="M374.314,383.664a1.269,1.269,0,0,0-1.767.32,14.373,14.373,0,0,1-1.3,1.614A15.485,15.485,0,0,1,370,386.765a1.27,1.27,0,1,0,1.646,1.934,17.784,17.784,0,0,0,1.453-1.369,16.9,16.9,0,0,0,1.534-1.9A1.269,1.269,0,0,0,374.314,383.664Z" transform="translate(-369.556 -383.437)" fill="#e0b340"/>
      </g>
    </g>
    <g id="Group_47" data-name="Group 47" transform="translate(43.659 76.566)">
      <g id="Group_46" data-name="Group 46">
        <path id="Path_32" data-name="Path 32" d="M346.382,425.033a1.27,1.27,0,0,0-1.688-.61l-.04.018a1.27,1.27,0,1,0,1.025,2.323l.093-.042A1.27,1.27,0,0,0,346.382,425.033Z" transform="translate(-343.896 -424.302)" fill="#e0b340"/>
      </g>
    </g>
    <g id="Group_49" data-name="Group 49" transform="translate(0 26.001)">
      <g id="Group_48" data-name="Group 48" transform="translate(0 0)">
        <path id="Path_33" data-name="Path 33" d="M61.207,26H3.793A3.8,3.8,0,0,0,0,29.794V65.373a3.8,3.8,0,0,0,3.793,3.792H30.527a21.219,21.219,0,0,0,5.936,10.367c3.269,3.176,7.017,4.868,8.465,4.868s5.2-1.691,8.465-4.867A21.219,21.219,0,0,0,59.33,69.165h1.878A3.8,3.8,0,0,0,65,65.373V29.794A3.8,3.8,0,0,0,61.207,26ZM57.383,63.962A18.74,18.74,0,0,1,51.7,77.632a15.9,15.9,0,0,1-6.776,4.228,15.9,15.9,0,0,1-6.777-4.228,18.741,18.741,0,0,1-5.678-13.67V57.71a56.82,56.82,0,0,0,12.455-5.268A58.789,58.789,0,0,0,57.383,57.71Zm5.078,1.41a1.255,1.255,0,0,1-1.254,1.253H59.771a23.424,23.424,0,0,0,.151-2.664V56.748a1.27,1.27,0,0,0-.937-1.225A56,56,0,0,1,45.57,49.881a1.27,1.27,0,0,0-1.283,0,54.469,54.469,0,0,1-13.415,5.641,1.27,1.27,0,0,0-.937,1.225v7.214a23.4,23.4,0,0,0,.151,2.664H3.793a1.255,1.255,0,0,1-1.254-1.253v-21.6H62.461Zm0-24.137H2.539V36.157H62.461Zm0-7.617H2.539V29.794A1.255,1.255,0,0,1,3.793,28.54H61.207a1.255,1.255,0,0,1,1.254,1.254Z" transform="translate(0 -26.001)" fill="#e0b340"/>
      </g>
    </g>
    <g id="Group_51" data-name="Group 51" transform="translate(5.078 52.661)">
      <g id="Group_50" data-name="Group 50">
        <path id="Path_34" data-name="Path 34" d="M50.157,236a5.718,5.718,0,0,0-2.221.45,5.713,5.713,0,1,0,0,10.526A5.713,5.713,0,1,0,50.157,236Zm-4.443,8.886a3.174,3.174,0,1,1,3.174-3.174A3.177,3.177,0,0,1,45.714,244.889Zm4.757-.016a5.7,5.7,0,0,0,0-6.316,3.174,3.174,0,0,1,0,6.316Z" transform="translate(-40.001 -236.003)" fill="#e0b340"/>
      </g>
    </g>
    <g id="Group_53" data-name="Group 53" transform="translate(5.078 46.948)">
      <g id="Group_52" data-name="Group 52">
        <path id="Path_35" data-name="Path 35" d="M47.8,191h-6.53a1.27,1.27,0,1,0,0,2.539H47.8a1.27,1.27,0,1,0,0-2.539Z" transform="translate(-39.999 -191.001)" fill="#e0b340"/>
      </g>
    </g>
    <g id="Group_55" data-name="Group 55" transform="translate(15.301 46.948)">
      <g id="Group_54" data-name="Group 54">
        <path id="Path_36" data-name="Path 36" d="M121.852,191h-.06a1.27,1.27,0,1,0,0,2.539h.06a1.27,1.27,0,1,0,0-2.539Z" transform="translate(-120.522 -191.001)" fill="#e0b340"/>
      </g>
    </g>
    <g id="Group_57" data-name="Group 57" transform="translate(37.588 60.671)">
      <g id="Group_56" data-name="Group 56">
        <path id="Path_37" data-name="Path 37" d="M310.386,299.47a1.27,1.27,0,0,0-1.8,0l-6.789,6.789-3.558-3.558a1.27,1.27,0,0,0-1.8,1.8l4.455,4.456a1.269,1.269,0,0,0,1.8,0l7.687-7.686A1.27,1.27,0,0,0,310.386,299.47Z" transform="translate(-296.077 -299.098)" fill="#e0b340"/>
      </g>
    </g>
  </g>
</svg>
